<svg width="529" height="315" viewBox="0 0 529 315" fill="none" xmlns="http://www.w3.org/2000/svg">
<ellipse cx="368.5" cy="23.5" rx="77.5" ry="23.5" fill="#EB5757"/>
<path d="M367.646 81.3536C367.842 81.5488 368.158 81.5488 368.354 81.3536L371.536 78.1716C371.731 77.9763 371.731 77.6597 371.536 77.4645C371.34 77.2692 371.024 77.2692 370.828 77.4645L368 80.2929L365.172 77.4645C364.976 77.2692 364.66 77.2692 364.464 77.4645C364.269 77.6597 364.269 77.9763 364.464 78.1716L367.646 81.3536ZM367.5 47V81H368.5V47H367.5Z" fill="black"/>
<path d="M316.197 29H315.072V20.4688H316.197V29ZM319.115 22.6602L319.15 23.457C319.635 22.8477 320.268 22.543 321.049 22.543C322.389 22.543 323.064 23.2988 323.076 24.8105V29H321.992V24.8047C321.988 24.3477 321.883 24.0098 321.676 23.791C321.473 23.5723 321.154 23.4629 320.721 23.4629C320.369 23.4629 320.061 23.5566 319.795 23.7441C319.529 23.9316 319.322 24.1777 319.174 24.4824V29H318.09V22.6602H319.115ZM325.889 29H324.805V22.6602H325.889V29ZM324.717 20.9785C324.717 20.8027 324.77 20.6543 324.875 20.5332C324.984 20.4121 325.145 20.3516 325.355 20.3516C325.566 20.3516 325.727 20.4121 325.836 20.5332C325.945 20.6543 326 20.8027 326 20.9785C326 21.1543 325.945 21.3008 325.836 21.418C325.727 21.5352 325.566 21.5938 325.355 21.5938C325.145 21.5938 324.984 21.5352 324.875 21.418C324.77 21.3008 324.717 21.1543 324.717 20.9785ZM328.648 28.1152H332.357V29H327.324V28.2031L330.822 23.5566H327.377V22.6602H332.182V23.4277L328.648 28.1152ZM334.76 29H333.676V22.6602H334.76V29ZM333.588 20.9785C333.588 20.8027 333.641 20.6543 333.746 20.5332C333.855 20.4121 334.016 20.3516 334.227 20.3516C334.438 20.3516 334.598 20.4121 334.707 20.5332C334.816 20.6543 334.871 20.8027 334.871 20.9785C334.871 21.1543 334.816 21.3008 334.707 21.418C334.598 21.5352 334.438 21.5938 334.227 21.5938C334.016 21.5938 333.855 21.5352 333.746 21.418C333.641 21.3008 333.588 21.1543 333.588 20.9785ZM336.213 25.7715C336.213 25.1504 336.334 24.5918 336.576 24.0957C336.822 23.5996 337.162 23.2168 337.596 22.9473C338.033 22.6777 338.531 22.543 339.09 22.543C339.953 22.543 340.65 22.8418 341.182 23.4395C341.717 24.0371 341.984 24.832 341.984 25.8242V25.9004C341.984 26.5176 341.865 27.0723 341.627 27.5645C341.393 28.0527 341.055 28.4336 340.613 28.707C340.176 28.9805 339.672 29.1172 339.102 29.1172C338.242 29.1172 337.545 28.8184 337.01 28.2207C336.479 27.623 336.213 26.832 336.213 25.8477V25.7715ZM337.303 25.9004C337.303 26.6035 337.465 27.168 337.789 27.5938C338.117 28.0195 338.555 28.2324 339.102 28.2324C339.652 28.2324 340.09 28.0176 340.414 27.5879C340.738 27.1543 340.9 26.5488 340.9 25.7715C340.9 25.0762 340.734 24.5137 340.402 24.084C340.074 23.6504 339.637 23.4336 339.09 23.4336C338.555 23.4336 338.123 23.6465 337.795 24.0723C337.467 24.498 337.303 25.1074 337.303 25.9004ZM346.033 25.7715C346.033 25.1504 346.154 24.5918 346.396 24.0957C346.643 23.5996 346.982 23.2168 347.416 22.9473C347.854 22.6777 348.352 22.543 348.91 22.543C349.773 22.543 350.471 22.8418 351.002 23.4395C351.537 24.0371 351.805 24.832 351.805 25.8242V25.9004C351.805 26.5176 351.686 27.0723 351.447 27.5645C351.213 28.0527 350.875 28.4336 350.434 28.707C349.996 28.9805 349.492 29.1172 348.922 29.1172C348.062 29.1172 347.365 28.8184 346.83 28.2207C346.299 27.623 346.033 26.832 346.033 25.8477V25.7715ZM347.123 25.9004C347.123 26.6035 347.285 27.168 347.609 27.5938C347.938 28.0195 348.375 28.2324 348.922 28.2324C349.473 28.2324 349.91 28.0176 350.234 27.5879C350.559 27.1543 350.721 26.5488 350.721 25.7715C350.721 25.0762 350.555 24.5137 350.223 24.084C349.895 23.6504 349.457 23.4336 348.91 23.4336C348.375 23.4336 347.943 23.6465 347.615 24.0723C347.287 24.498 347.123 25.1074 347.123 25.9004ZM354.189 22.6602L354.225 23.457C354.709 22.8477 355.342 22.543 356.123 22.543C357.463 22.543 358.139 23.2988 358.15 24.8105V29H357.066V24.8047C357.062 24.3477 356.957 24.0098 356.75 23.791C356.547 23.5723 356.229 23.4629 355.795 23.4629C355.443 23.4629 355.135 23.5566 354.869 23.7441C354.604 23.9316 354.396 24.1777 354.248 24.4824V29H353.164V22.6602H354.189ZM364.355 29.8848H358.988V29H364.355V29.8848ZM367.742 28.2324C368.129 28.2324 368.467 28.1152 368.756 27.8809C369.045 27.6465 369.205 27.3535 369.236 27.002H370.262C370.242 27.3652 370.117 27.7109 369.887 28.0391C369.656 28.3672 369.348 28.6289 368.961 28.8242C368.578 29.0195 368.172 29.1172 367.742 29.1172C366.879 29.1172 366.191 28.8301 365.68 28.2559C365.172 27.6777 364.918 26.8887 364.918 25.8887V25.707C364.918 25.0898 365.031 24.541 365.258 24.0605C365.484 23.5801 365.809 23.207 366.23 22.9414C366.656 22.6758 367.158 22.543 367.736 22.543C368.447 22.543 369.037 22.7559 369.506 23.1816C369.979 23.6074 370.23 24.1602 370.262 24.8398H369.236C369.205 24.4297 369.049 24.0938 368.768 23.832C368.49 23.5664 368.146 23.4336 367.736 23.4336C367.186 23.4336 366.758 23.6328 366.453 24.0312C366.152 24.4258 366.002 24.998 366.002 25.748V25.9531C366.002 26.6836 366.152 27.2461 366.453 27.6406C366.754 28.0352 367.184 28.2324 367.742 28.2324ZM371.193 25.7715C371.193 25.1504 371.314 24.5918 371.557 24.0957C371.803 23.5996 372.143 23.2168 372.576 22.9473C373.014 22.6777 373.512 22.543 374.07 22.543C374.934 22.543 375.631 22.8418 376.162 23.4395C376.697 24.0371 376.965 24.832 376.965 25.8242V25.9004C376.965 26.5176 376.846 27.0723 376.607 27.5645C376.373 28.0527 376.035 28.4336 375.594 28.707C375.156 28.9805 374.652 29.1172 374.082 29.1172C373.223 29.1172 372.525 28.8184 371.99 28.2207C371.459 27.623 371.193 26.832 371.193 25.8477V25.7715ZM372.283 25.9004C372.283 26.6035 372.445 27.168 372.77 27.5938C373.098 28.0195 373.535 28.2324 374.082 28.2324C374.633 28.2324 375.07 28.0176 375.395 27.5879C375.719 27.1543 375.881 26.5488 375.881 25.7715C375.881 25.0762 375.715 24.5137 375.383 24.084C375.055 23.6504 374.617 23.4336 374.07 23.4336C373.535 23.4336 373.104 23.6465 372.775 24.0723C372.447 24.498 372.283 25.1074 372.283 25.9004ZM379.35 22.6602L379.385 23.457C379.869 22.8477 380.502 22.543 381.283 22.543C382.623 22.543 383.299 23.2988 383.311 24.8105V29H382.227V24.8047C382.223 24.3477 382.117 24.0098 381.91 23.791C381.707 23.5723 381.389 23.4629 380.955 23.4629C380.604 23.4629 380.295 23.5566 380.029 23.7441C379.764 23.9316 379.557 24.1777 379.408 24.4824V29H378.324V22.6602H379.35ZM385.971 22.6602L386.006 23.457C386.49 22.8477 387.123 22.543 387.904 22.543C389.244 22.543 389.92 23.2988 389.932 24.8105V29H388.848V24.8047C388.844 24.3477 388.738 24.0098 388.531 23.791C388.328 23.5723 388.01 23.4629 387.576 23.4629C387.225 23.4629 386.916 23.5566 386.65 23.7441C386.385 23.9316 386.178 24.1777 386.029 24.4824V29H384.945V22.6602H385.971ZM394.197 29.1172C393.338 29.1172 392.639 28.8359 392.1 28.2734C391.561 27.707 391.291 26.9512 391.291 26.0059V25.8066C391.291 25.1777 391.41 24.6172 391.648 24.125C391.891 23.6289 392.227 23.2422 392.656 22.9648C393.09 22.6836 393.559 22.543 394.062 22.543C394.887 22.543 395.527 22.8145 395.984 23.3574C396.441 23.9004 396.67 24.6777 396.67 25.6895V26.1406H392.375C392.391 26.7656 392.572 27.2715 392.92 27.6582C393.271 28.041 393.717 28.2324 394.256 28.2324C394.639 28.2324 394.963 28.1543 395.229 27.998C395.494 27.8418 395.727 27.6348 395.926 27.377L396.588 27.8926C396.057 28.709 395.26 29.1172 394.197 29.1172ZM394.062 23.4336C393.625 23.4336 393.258 23.5938 392.961 23.9141C392.664 24.2305 392.48 24.6758 392.41 25.25H395.586V25.168C395.555 24.6172 395.406 24.1914 395.141 23.8906C394.875 23.5859 394.516 23.4336 394.062 23.4336ZM400.473 28.2324C400.859 28.2324 401.197 28.1152 401.486 27.8809C401.775 27.6465 401.936 27.3535 401.967 27.002H402.992C402.973 27.3652 402.848 27.7109 402.617 28.0391C402.387 28.3672 402.078 28.6289 401.691 28.8242C401.309 29.0195 400.902 29.1172 400.473 29.1172C399.609 29.1172 398.922 28.8301 398.41 28.2559C397.902 27.6777 397.648 26.8887 397.648 25.8887V25.707C397.648 25.0898 397.762 24.541 397.988 24.0605C398.215 23.5801 398.539 23.207 398.961 22.9414C399.387 22.6758 399.889 22.543 400.467 22.543C401.178 22.543 401.768 22.7559 402.236 23.1816C402.709 23.6074 402.961 24.1602 402.992 24.8398H401.967C401.936 24.4297 401.779 24.0938 401.498 23.832C401.221 23.5664 400.877 23.4336 400.467 23.4336C399.916 23.4336 399.488 23.6328 399.184 24.0312C398.883 24.4258 398.732 24.998 398.732 25.748V25.9531C398.732 26.6836 398.883 27.2461 399.184 27.6406C399.484 28.0352 399.914 28.2324 400.473 28.2324ZM405.682 21.125V22.6602H406.865V23.498H405.682V27.4297C405.682 27.6836 405.734 27.875 405.84 28.0039C405.945 28.1289 406.125 28.1914 406.379 28.1914C406.504 28.1914 406.676 28.168 406.895 28.1211V29C406.609 29.0781 406.332 29.1172 406.062 29.1172C405.578 29.1172 405.213 28.9707 404.967 28.6777C404.721 28.3848 404.598 27.9688 404.598 27.4297V23.498H403.443V22.6602H404.598V21.125H405.682ZM408.096 25.5371C408.096 24.6543 408.213 23.8066 408.447 22.9941C408.686 22.1816 409.039 21.4434 409.508 20.7793C409.977 20.1152 410.463 19.6465 410.967 19.373L411.189 20.0879C410.619 20.5254 410.15 21.1934 409.783 22.0918C409.42 22.9902 409.221 23.9961 409.186 25.1094L409.18 25.6074C409.18 27.1152 409.455 28.4238 410.006 29.5332C410.338 30.1973 410.732 30.7168 411.189 31.0918L410.967 31.7539C410.447 31.4648 409.951 30.9805 409.479 30.3008C408.557 28.9727 408.096 27.3848 408.096 25.5371ZM414.74 25.5957C414.74 26.4668 414.625 27.3027 414.395 28.1035C414.168 28.9004 413.818 29.6367 413.346 30.3125C412.877 30.9883 412.385 31.4688 411.869 31.7539L411.641 31.0918C412.242 30.6309 412.725 29.916 413.088 28.9473C413.455 27.9746 413.643 26.8965 413.65 25.7129V25.5254C413.65 24.7051 413.564 23.9434 413.393 23.2402C413.221 22.5332 412.98 21.9004 412.672 21.3418C412.367 20.7832 412.023 20.3477 411.641 20.0352L411.869 19.373C412.385 19.6582 412.875 20.1348 413.34 20.8027C413.809 21.4707 414.158 22.207 414.389 23.0117C414.623 23.8164 414.74 24.6777 414.74 25.5957Z" fill="black"/>
<path d="M367.5 81L470 132L367.5 183L265 132L367.5 81Z" fill="#F2994A"/>
<path d="M366.646 220.354C366.842 220.549 367.158 220.549 367.354 220.354L370.536 217.172C370.731 216.976 370.731 216.66 370.536 216.464C370.34 216.269 370.024 216.269 369.828 216.464L367 219.293L364.172 216.464C363.976 216.269 363.66 216.269 363.464 216.464C363.269 216.66 363.269 216.976 363.464 217.172L366.646 220.354ZM366.5 183V220H367.5V183H366.5Z" fill="black"/>
<path d="M325.121 128.08H329.164V129H323.99V120.469H325.121V128.08ZM336.623 125.01C336.623 125.846 336.482 126.576 336.201 127.201C335.92 127.822 335.521 128.297 335.006 128.625C334.49 128.953 333.889 129.117 333.201 129.117C332.529 129.117 331.934 128.953 331.414 128.625C330.895 128.293 330.49 127.822 330.201 127.213C329.916 126.6 329.77 125.891 329.762 125.086V124.471C329.762 123.65 329.904 122.926 330.189 122.297C330.475 121.668 330.877 121.188 331.396 120.855C331.92 120.52 332.518 120.352 333.189 120.352C333.873 120.352 334.475 120.518 334.994 120.85C335.518 121.178 335.92 121.656 336.201 122.285C336.482 122.91 336.623 123.639 336.623 124.471V125.01ZM335.504 124.459C335.504 123.447 335.301 122.672 334.895 122.133C334.488 121.59 333.92 121.318 333.189 121.318C332.479 121.318 331.918 121.59 331.508 122.133C331.102 122.672 330.893 123.422 330.881 124.383V125.01C330.881 125.99 331.086 126.762 331.496 127.324C331.91 127.883 332.479 128.162 333.201 128.162C333.928 128.162 334.49 127.898 334.889 127.371C335.287 126.84 335.492 126.08 335.504 125.092V124.459ZM344.873 125.01C344.873 125.846 344.732 126.576 344.451 127.201C344.17 127.822 343.771 128.297 343.256 128.625C342.74 128.953 342.139 129.117 341.451 129.117C340.779 129.117 340.184 128.953 339.664 128.625C339.145 128.293 338.74 127.822 338.451 127.213C338.166 126.6 338.02 125.891 338.012 125.086V124.471C338.012 123.65 338.154 122.926 338.439 122.297C338.725 121.668 339.127 121.188 339.646 120.855C340.17 120.52 340.768 120.352 341.439 120.352C342.123 120.352 342.725 120.518 343.244 120.85C343.768 121.178 344.17 121.656 344.451 122.285C344.732 122.91 344.873 123.639 344.873 124.471V125.01ZM343.754 124.459C343.754 123.447 343.551 122.672 343.145 122.133C342.738 121.59 342.17 121.318 341.439 121.318C340.729 121.318 340.168 121.59 339.758 122.133C339.352 122.672 339.143 123.422 339.131 124.383V125.01C339.131 125.99 339.336 126.762 339.746 127.324C340.16 127.883 340.729 128.162 341.451 128.162C342.178 128.162 342.74 127.898 343.139 127.371C343.537 126.84 343.742 126.08 343.754 125.092V124.459ZM347.686 125.66V129H346.561V120.469H349.707C350.641 120.469 351.371 120.707 351.898 121.184C352.43 121.66 352.695 122.291 352.695 123.076C352.695 123.904 352.436 124.543 351.916 124.992C351.4 125.438 350.66 125.66 349.695 125.66H347.686ZM347.686 124.74H349.707C350.309 124.74 350.77 124.6 351.09 124.318C351.41 124.033 351.57 123.623 351.57 123.088C351.57 122.58 351.41 122.174 351.09 121.869C350.77 121.564 350.33 121.406 349.771 121.395H347.686V124.74ZM357.957 122.66L357.986 123.363C358.451 122.816 359.078 122.543 359.867 122.543C360.754 122.543 361.357 122.883 361.678 123.562C361.889 123.258 362.162 123.012 362.498 122.824C362.838 122.637 363.238 122.543 363.699 122.543C365.09 122.543 365.797 123.279 365.82 124.752V129H364.736V124.816C364.736 124.363 364.633 124.025 364.426 123.803C364.219 123.576 363.871 123.463 363.383 123.463C362.98 123.463 362.646 123.584 362.381 123.826C362.115 124.064 361.961 124.387 361.918 124.793V129H360.828V124.846C360.828 123.924 360.377 123.463 359.475 123.463C358.764 123.463 358.277 123.766 358.016 124.371V129H356.932V122.66H357.957ZM371.375 129C371.312 128.875 371.262 128.652 371.223 128.332C370.719 128.855 370.117 129.117 369.418 129.117C368.793 129.117 368.279 128.941 367.877 128.59C367.479 128.234 367.279 127.785 367.279 127.242C367.279 126.582 367.529 126.07 368.029 125.707C368.533 125.34 369.24 125.156 370.15 125.156H371.205V124.658C371.205 124.279 371.092 123.979 370.865 123.756C370.639 123.529 370.305 123.416 369.863 123.416C369.477 123.416 369.152 123.514 368.891 123.709C368.629 123.904 368.498 124.141 368.498 124.418H367.408C367.408 124.102 367.52 123.797 367.742 123.504C367.969 123.207 368.273 122.973 368.656 122.801C369.043 122.629 369.467 122.543 369.928 122.543C370.658 122.543 371.23 122.727 371.645 123.094C372.059 123.457 372.273 123.959 372.289 124.6V127.518C372.289 128.1 372.363 128.562 372.512 128.906V129H371.375ZM369.576 128.174C369.916 128.174 370.238 128.086 370.543 127.91C370.848 127.734 371.068 127.506 371.205 127.225V125.924H370.355C369.027 125.924 368.363 126.312 368.363 127.09C368.363 127.43 368.477 127.695 368.703 127.887C368.93 128.078 369.221 128.174 369.576 128.174ZM375.166 129H374.082V122.66H375.166V129ZM373.994 120.979C373.994 120.803 374.047 120.654 374.152 120.533C374.262 120.412 374.422 120.352 374.633 120.352C374.844 120.352 375.004 120.412 375.113 120.533C375.223 120.654 375.277 120.803 375.277 120.979C375.277 121.154 375.223 121.301 375.113 121.418C375.004 121.535 374.844 121.594 374.633 121.594C374.422 121.594 374.262 121.535 374.152 121.418C374.047 121.301 373.994 121.154 373.994 120.979ZM377.932 122.66L377.967 123.457C378.451 122.848 379.084 122.543 379.865 122.543C381.205 122.543 381.881 123.299 381.893 124.811V129H380.809V124.805C380.805 124.348 380.699 124.01 380.492 123.791C380.289 123.572 379.971 123.463 379.537 123.463C379.186 123.463 378.877 123.557 378.611 123.744C378.346 123.932 378.139 124.178 377.99 124.482V129H376.906V122.66H377.932ZM384.998 121.125V122.66H386.182V123.498H384.998V127.43C384.998 127.684 385.051 127.875 385.156 128.004C385.262 128.129 385.441 128.191 385.695 128.191C385.82 128.191 385.992 128.168 386.211 128.121V129C385.926 129.078 385.648 129.117 385.379 129.117C384.895 129.117 384.529 128.971 384.283 128.678C384.037 128.385 383.914 127.969 383.914 127.43V123.498H382.76V122.66H383.914V121.125H384.998ZM387.049 125.771C387.049 125.15 387.17 124.592 387.412 124.096C387.658 123.6 387.998 123.217 388.432 122.947C388.869 122.678 389.367 122.543 389.926 122.543C390.789 122.543 391.486 122.842 392.018 123.439C392.553 124.037 392.82 124.832 392.82 125.824V125.9C392.82 126.518 392.701 127.072 392.463 127.564C392.229 128.053 391.891 128.434 391.449 128.707C391.012 128.98 390.508 129.117 389.938 129.117C389.078 129.117 388.381 128.818 387.846 128.221C387.314 127.623 387.049 126.832 387.049 125.848V125.771ZM388.139 125.9C388.139 126.604 388.301 127.168 388.625 127.594C388.953 128.02 389.391 128.232 389.938 128.232C390.488 128.232 390.926 128.018 391.25 127.588C391.574 127.154 391.736 126.549 391.736 125.771C391.736 125.076 391.57 124.514 391.238 124.084C390.91 123.65 390.473 123.434 389.926 123.434C389.391 123.434 388.959 123.646 388.631 124.072C388.303 124.498 388.139 125.107 388.139 125.9ZM399.535 125.9C399.535 126.865 399.314 127.643 398.873 128.232C398.432 128.822 397.834 129.117 397.08 129.117C396.311 129.117 395.705 128.873 395.264 128.385V131.438H394.18V122.66H395.17L395.223 123.363C395.664 122.816 396.277 122.543 397.062 122.543C397.824 122.543 398.426 122.83 398.867 123.404C399.312 123.979 399.535 124.777 399.535 125.801V125.9ZM398.451 125.777C398.451 125.062 398.299 124.498 397.994 124.084C397.689 123.67 397.271 123.463 396.74 123.463C396.084 123.463 395.592 123.754 395.264 124.336V127.365C395.588 127.943 396.084 128.232 396.752 128.232C397.271 128.232 397.684 128.027 397.988 127.617C398.297 127.203 398.451 126.59 398.451 125.777ZM402.096 129H401.012V122.66H402.096V129ZM400.924 120.979C400.924 120.803 400.977 120.654 401.082 120.533C401.191 120.412 401.352 120.352 401.562 120.352C401.773 120.352 401.934 120.412 402.043 120.533C402.152 120.654 402.207 120.803 402.207 120.979C402.207 121.154 402.152 121.301 402.043 121.418C401.934 121.535 401.773 121.594 401.562 121.594C401.352 121.594 401.191 121.535 401.082 121.418C400.977 121.301 400.924 121.154 400.924 120.979ZM406.379 128.232C406.766 128.232 407.104 128.115 407.393 127.881C407.682 127.646 407.842 127.354 407.873 127.002H408.898C408.879 127.365 408.754 127.711 408.523 128.039C408.293 128.367 407.984 128.629 407.598 128.824C407.215 129.02 406.809 129.117 406.379 129.117C405.516 129.117 404.828 128.83 404.316 128.256C403.809 127.678 403.555 126.889 403.555 125.889V125.707C403.555 125.09 403.668 124.541 403.895 124.061C404.121 123.58 404.445 123.207 404.867 122.941C405.293 122.676 405.795 122.543 406.373 122.543C407.084 122.543 407.674 122.756 408.143 123.182C408.615 123.607 408.867 124.16 408.898 124.84H407.873C407.842 124.43 407.686 124.094 407.404 123.832C407.127 123.566 406.783 123.434 406.373 123.434C405.822 123.434 405.395 123.633 405.09 124.031C404.789 124.426 404.639 124.998 404.639 125.748V125.953C404.639 126.684 404.789 127.246 405.09 127.641C405.391 128.035 405.82 128.232 406.379 128.232ZM413.809 127.318C413.809 127.025 413.697 126.799 413.475 126.639C413.256 126.475 412.871 126.334 412.32 126.217C411.773 126.1 411.338 125.959 411.014 125.795C410.693 125.631 410.455 125.436 410.299 125.209C410.146 124.982 410.07 124.713 410.07 124.4C410.07 123.881 410.289 123.441 410.727 123.082C411.168 122.723 411.73 122.543 412.414 122.543C413.133 122.543 413.715 122.729 414.16 123.1C414.609 123.471 414.834 123.945 414.834 124.523H413.744C413.744 124.227 413.617 123.971 413.363 123.756C413.113 123.541 412.797 123.434 412.414 123.434C412.02 123.434 411.711 123.52 411.488 123.691C411.266 123.863 411.154 124.088 411.154 124.365C411.154 124.627 411.258 124.824 411.465 124.957C411.672 125.09 412.045 125.217 412.584 125.338C413.127 125.459 413.566 125.604 413.902 125.771C414.238 125.939 414.486 126.143 414.646 126.381C414.811 126.615 414.893 126.902 414.893 127.242C414.893 127.809 414.666 128.264 414.213 128.607C413.76 128.947 413.172 129.117 412.449 129.117C411.941 129.117 411.492 129.027 411.102 128.848C410.711 128.668 410.404 128.418 410.182 128.098C409.963 127.773 409.854 127.424 409.854 127.049H410.938C410.957 127.412 411.102 127.701 411.371 127.916C411.645 128.127 412.004 128.232 412.449 128.232C412.859 128.232 413.188 128.15 413.434 127.986C413.684 127.818 413.809 127.596 413.809 127.318ZM416.27 128.432C416.27 128.244 416.324 128.088 416.434 127.963C416.547 127.838 416.715 127.775 416.938 127.775C417.16 127.775 417.328 127.838 417.441 127.963C417.559 128.088 417.617 128.244 417.617 128.432C417.617 128.611 417.559 128.762 417.441 128.883C417.328 129.004 417.16 129.064 416.938 129.064C416.715 129.064 416.547 129.004 416.434 128.883C416.324 128.762 416.27 128.611 416.27 128.432ZM416.275 123.258C416.275 123.07 416.33 122.914 416.439 122.789C416.553 122.664 416.721 122.602 416.943 122.602C417.166 122.602 417.334 122.664 417.447 122.789C417.564 122.914 417.623 123.07 417.623 123.258C417.623 123.438 417.564 123.588 417.447 123.709C417.334 123.83 417.166 123.891 416.943 123.891C416.721 123.891 416.553 123.83 416.439 123.709C416.33 123.588 416.275 123.438 416.275 123.258ZM328.695 139.232H325.115V143H323.99V134.469H329.275V135.395H325.115V138.312H328.695V139.232ZM331.631 143H330.547V136.66H331.631V143ZM330.459 134.979C330.459 134.803 330.512 134.654 330.617 134.533C330.727 134.412 330.887 134.352 331.098 134.352C331.309 134.352 331.469 134.412 331.578 134.533C331.688 134.654 331.742 134.803 331.742 134.979C331.742 135.154 331.688 135.301 331.578 135.418C331.469 135.535 331.309 135.594 331.098 135.594C330.887 135.594 330.727 135.535 330.617 135.418C330.512 135.301 330.459 135.154 330.459 134.979ZM334.396 136.66L334.432 137.457C334.916 136.848 335.549 136.543 336.33 136.543C337.67 136.543 338.346 137.299 338.357 138.811V143H337.273V138.805C337.27 138.348 337.164 138.01 336.957 137.791C336.754 137.572 336.436 137.463 336.002 137.463C335.65 137.463 335.342 137.557 335.076 137.744C334.811 137.932 334.604 138.178 334.455 138.482V143H333.371V136.66H334.396ZM341.17 143H340.086V136.66H341.17V143ZM339.998 134.979C339.998 134.803 340.051 134.654 340.156 134.533C340.266 134.412 340.426 134.352 340.637 134.352C340.848 134.352 341.008 134.412 341.117 134.533C341.227 134.654 341.281 134.803 341.281 134.979C341.281 135.154 341.227 135.301 341.117 135.418C341.008 135.535 340.848 135.594 340.637 135.594C340.426 135.594 340.266 135.535 340.156 135.418C340.051 135.301 339.998 135.154 339.998 134.979ZM344.381 135.125V136.66H345.564V137.498H344.381V141.43C344.381 141.684 344.434 141.875 344.539 142.004C344.645 142.129 344.824 142.191 345.078 142.191C345.203 142.191 345.375 142.168 345.594 142.121V143C345.309 143.078 345.031 143.117 344.762 143.117C344.277 143.117 343.912 142.971 343.666 142.678C343.42 142.385 343.297 141.969 343.297 141.43V137.498H342.143V136.66H343.297V135.125H344.381ZM348.014 143H346.93V136.66H348.014V143ZM346.842 134.979C346.842 134.803 346.895 134.654 347 134.533C347.109 134.412 347.27 134.352 347.48 134.352C347.691 134.352 347.852 134.412 347.961 134.533C348.07 134.654 348.125 134.803 348.125 134.979C348.125 135.154 348.07 135.301 347.961 135.418C347.852 135.535 347.691 135.594 347.48 135.594C347.27 135.594 347.109 135.535 347 135.418C346.895 135.301 346.842 135.154 346.842 134.979ZM353.908 143H352.824V136.66H353.908V143ZM352.736 134.979C352.736 134.803 352.789 134.654 352.895 134.533C353.004 134.412 353.164 134.352 353.375 134.352C353.586 134.352 353.746 134.412 353.855 134.533C353.965 134.654 354.02 134.803 354.02 134.979C354.02 135.154 353.965 135.301 353.855 135.418C353.746 135.535 353.586 135.594 353.375 135.594C353.164 135.594 353.004 135.535 352.895 135.418C352.789 135.301 352.736 135.154 352.736 134.979ZM359.645 136.66L359.674 137.363C360.139 136.816 360.766 136.543 361.555 136.543C362.441 136.543 363.045 136.883 363.365 137.562C363.576 137.258 363.85 137.012 364.186 136.824C364.525 136.637 364.926 136.543 365.387 136.543C366.777 136.543 367.484 137.279 367.508 138.752V143H366.424V138.816C366.424 138.363 366.32 138.025 366.113 137.803C365.906 137.576 365.559 137.463 365.07 137.463C364.668 137.463 364.334 137.584 364.068 137.826C363.803 138.064 363.648 138.387 363.605 138.793V143H362.516V138.846C362.516 137.924 362.064 137.463 361.162 137.463C360.451 137.463 359.965 137.766 359.703 138.371V143H358.619V136.66H359.645ZM373.062 143C373 142.875 372.949 142.652 372.91 142.332C372.406 142.855 371.805 143.117 371.105 143.117C370.48 143.117 369.967 142.941 369.564 142.59C369.166 142.234 368.967 141.785 368.967 141.242C368.967 140.582 369.217 140.07 369.717 139.707C370.221 139.34 370.928 139.156 371.838 139.156H372.893V138.658C372.893 138.279 372.779 137.979 372.553 137.756C372.326 137.529 371.992 137.416 371.551 137.416C371.164 137.416 370.84 137.514 370.578 137.709C370.316 137.904 370.186 138.141 370.186 138.418H369.096C369.096 138.102 369.207 137.797 369.43 137.504C369.656 137.207 369.961 136.973 370.344 136.801C370.73 136.629 371.154 136.543 371.615 136.543C372.346 136.543 372.918 136.727 373.332 137.094C373.746 137.457 373.961 137.959 373.977 138.6V141.518C373.977 142.1 374.051 142.562 374.199 142.906V143H373.062ZM371.264 142.174C371.604 142.174 371.926 142.086 372.23 141.91C372.535 141.734 372.756 141.506 372.893 141.225V139.924H372.043C370.715 139.924 370.051 140.312 370.051 141.09C370.051 141.43 370.164 141.695 370.391 141.887C370.617 142.078 370.908 142.174 371.264 142.174ZM376.854 143H375.77V136.66H376.854V143ZM375.682 134.979C375.682 134.803 375.734 134.654 375.84 134.533C375.949 134.412 376.109 134.352 376.32 134.352C376.531 134.352 376.691 134.412 376.801 134.533C376.91 134.654 376.965 134.803 376.965 134.979C376.965 135.154 376.91 135.301 376.801 135.418C376.691 135.535 376.531 135.594 376.32 135.594C376.109 135.594 375.949 135.535 375.84 135.418C375.734 135.301 375.682 135.154 375.682 134.979ZM379.619 136.66L379.654 137.457C380.139 136.848 380.771 136.543 381.553 136.543C382.893 136.543 383.568 137.299 383.58 138.811V143H382.496V138.805C382.492 138.348 382.387 138.01 382.18 137.791C381.977 137.572 381.658 137.463 381.225 137.463C380.873 137.463 380.564 137.557 380.299 137.744C380.033 137.932 379.826 138.178 379.678 138.482V143H378.594V136.66H379.619ZM386.686 135.125V136.66H387.869V137.498H386.686V141.43C386.686 141.684 386.738 141.875 386.844 142.004C386.949 142.129 387.129 142.191 387.383 142.191C387.508 142.191 387.68 142.168 387.898 142.121V143C387.613 143.078 387.336 143.117 387.066 143.117C386.582 143.117 386.217 142.971 385.971 142.678C385.725 142.385 385.602 141.969 385.602 141.43V137.498H384.447V136.66H385.602V135.125H386.686ZM388.736 139.771C388.736 139.15 388.857 138.592 389.1 138.096C389.346 137.6 389.686 137.217 390.119 136.947C390.557 136.678 391.055 136.543 391.613 136.543C392.477 136.543 393.174 136.842 393.705 137.439C394.24 138.037 394.508 138.832 394.508 139.824V139.9C394.508 140.518 394.389 141.072 394.15 141.564C393.916 142.053 393.578 142.434 393.137 142.707C392.699 142.98 392.195 143.117 391.625 143.117C390.766 143.117 390.068 142.818 389.533 142.221C389.002 141.623 388.736 140.832 388.736 139.848V139.771ZM389.826 139.9C389.826 140.604 389.988 141.168 390.312 141.594C390.641 142.02 391.078 142.232 391.625 142.232C392.176 142.232 392.613 142.018 392.938 141.588C393.262 141.154 393.424 140.549 393.424 139.771C393.424 139.076 393.258 138.514 392.926 138.084C392.598 137.65 392.16 137.434 391.613 137.434C391.078 137.434 390.646 137.646 390.318 138.072C389.99 138.498 389.826 139.107 389.826 139.9ZM401.223 139.9C401.223 140.865 401.002 141.643 400.561 142.232C400.119 142.822 399.521 143.117 398.768 143.117C397.998 143.117 397.393 142.873 396.951 142.385V145.438H395.867V136.66H396.857L396.91 137.363C397.352 136.816 397.965 136.543 398.75 136.543C399.512 136.543 400.113 136.83 400.555 137.404C401 137.979 401.223 138.777 401.223 139.801V139.9ZM400.139 139.777C400.139 139.062 399.986 138.498 399.682 138.084C399.377 137.67 398.959 137.463 398.428 137.463C397.771 137.463 397.279 137.754 396.951 138.336V141.365C397.275 141.943 397.771 142.232 398.439 142.232C398.959 142.232 399.371 142.027 399.676 141.617C399.984 141.203 400.139 140.59 400.139 139.777ZM403.783 143H402.699V136.66H403.783V143ZM402.611 134.979C402.611 134.803 402.664 134.654 402.77 134.533C402.879 134.412 403.039 134.352 403.25 134.352C403.461 134.352 403.621 134.412 403.73 134.533C403.84 134.654 403.895 134.803 403.895 134.979C403.895 135.154 403.84 135.301 403.73 135.418C403.621 135.535 403.461 135.594 403.25 135.594C403.039 135.594 402.879 135.535 402.77 135.418C402.664 135.301 402.611 135.154 402.611 134.979ZM408.066 142.232C408.453 142.232 408.791 142.115 409.08 141.881C409.369 141.646 409.529 141.354 409.561 141.002H410.586C410.566 141.365 410.441 141.711 410.211 142.039C409.98 142.367 409.672 142.629 409.285 142.824C408.902 143.02 408.496 143.117 408.066 143.117C407.203 143.117 406.516 142.83 406.004 142.256C405.496 141.678 405.242 140.889 405.242 139.889V139.707C405.242 139.09 405.355 138.541 405.582 138.061C405.809 137.58 406.133 137.207 406.555 136.941C406.98 136.676 407.482 136.543 408.061 136.543C408.771 136.543 409.361 136.756 409.83 137.182C410.303 137.607 410.555 138.16 410.586 138.84H409.561C409.529 138.43 409.373 138.094 409.092 137.832C408.814 137.566 408.471 137.434 408.061 137.434C407.51 137.434 407.082 137.633 406.777 138.031C406.477 138.426 406.326 138.998 406.326 139.748V139.953C406.326 140.684 406.477 141.246 406.777 141.641C407.078 142.035 407.508 142.232 408.066 142.232ZM413.076 140.598C413.084 140.133 413.137 139.766 413.234 139.496C413.332 139.227 413.531 138.928 413.832 138.6L414.6 137.809C414.928 137.438 415.092 137.039 415.092 136.613C415.092 136.203 414.984 135.883 414.77 135.652C414.555 135.418 414.242 135.301 413.832 135.301C413.434 135.301 413.113 135.406 412.871 135.617C412.629 135.828 412.508 136.111 412.508 136.467H411.424C411.432 135.834 411.656 135.324 412.098 134.938C412.543 134.547 413.121 134.352 413.832 134.352C414.57 134.352 415.145 134.551 415.555 134.949C415.969 135.344 416.176 135.887 416.176 136.578C416.176 137.262 415.859 137.936 415.227 138.6L414.588 139.232C414.303 139.549 414.16 140.004 414.16 140.598H413.076ZM413.029 142.455C413.029 142.279 413.082 142.133 413.188 142.016C413.297 141.895 413.457 141.834 413.668 141.834C413.879 141.834 414.039 141.895 414.148 142.016C414.258 142.133 414.312 142.279 414.312 142.455C414.312 142.631 414.258 142.777 414.148 142.895C414.039 143.008 413.879 143.064 413.668 143.064C413.457 143.064 413.297 143.008 413.188 142.895C413.082 142.777 413.029 142.631 413.029 142.455Z" fill="black"/>
<line y1="-0.5" x2="144" y2="-0.5" transform="matrix(1 -8.74228e-08 -8.74228e-08 -1 368 295)" stroke="black"/>
<line y1="-0.5" x2="164" y2="-0.5" transform="matrix(4.37114e-08 -1 -1 -4.37114e-08 511 295)" stroke="black"/>
<path d="M463.646 132.354C463.451 132.158 463.451 131.842 463.646 131.646L466.828 128.464C467.024 128.269 467.34 128.269 467.536 128.464C467.731 128.66 467.731 128.976 467.536 129.172L464.707 132L467.536 134.828C467.731 135.024 467.731 135.34 467.536 135.536C467.34 135.731 467.024 135.731 466.828 135.536L463.646 132.354ZM511 132.5H464V131.5H511V132.5Z" fill="black"/>
<path d="M198.646 132.354C198.451 132.158 198.451 131.842 198.646 131.646L201.828 128.464C202.024 128.269 202.34 128.269 202.536 128.464C202.731 128.66 202.731 128.976 202.536 129.172L199.707 132L202.536 134.828C202.731 135.024 202.731 135.34 202.536 135.536C202.34 135.731 202.024 135.731 201.828 135.536L198.646 132.354ZM265 132.5H199V131.5H265V132.5Z" fill="black"/>
<line x1="368.5" y1="267" x2="368.5" y2="295" stroke="black"/>
<path d="M246.504 118.197C245.539 117.92 244.836 117.58 244.395 117.178C243.957 116.771 243.738 116.271 243.738 115.678C243.738 115.006 244.006 114.451 244.541 114.014C245.08 113.572 245.779 113.352 246.639 113.352C247.225 113.352 247.746 113.465 248.203 113.691C248.664 113.918 249.02 114.23 249.27 114.629C249.523 115.027 249.65 115.463 249.65 115.936H248.52C248.52 115.42 248.355 115.016 248.027 114.723C247.699 114.426 247.236 114.277 246.639 114.277C246.084 114.277 245.65 114.4 245.338 114.646C245.029 114.889 244.875 115.227 244.875 115.66C244.875 116.008 245.021 116.303 245.314 116.545C245.611 116.783 246.113 117.002 246.82 117.201C247.531 117.4 248.086 117.621 248.484 117.863C248.887 118.102 249.184 118.381 249.375 118.701C249.57 119.021 249.668 119.398 249.668 119.832C249.668 120.523 249.398 121.078 248.859 121.496C248.32 121.91 247.6 122.117 246.697 122.117C246.111 122.117 245.564 122.006 245.057 121.783C244.549 121.557 244.156 121.248 243.879 120.857C243.605 120.467 243.469 120.023 243.469 119.527H244.6C244.6 120.043 244.789 120.451 245.168 120.752C245.551 121.049 246.061 121.197 246.697 121.197C247.291 121.197 247.746 121.076 248.062 120.834C248.379 120.592 248.537 120.262 248.537 119.844C248.537 119.426 248.391 119.104 248.098 118.877C247.805 118.646 247.273 118.42 246.504 118.197ZM252.123 122H251.039V115.66H252.123V122ZM250.951 113.979C250.951 113.803 251.004 113.654 251.109 113.533C251.219 113.412 251.379 113.352 251.59 113.352C251.801 113.352 251.961 113.412 252.07 113.533C252.18 113.654 252.234 113.803 252.234 113.979C252.234 114.154 252.18 114.301 252.07 114.418C251.961 114.535 251.801 114.594 251.59 114.594C251.379 114.594 251.219 114.535 251.109 114.418C251.004 114.301 250.951 114.154 250.951 113.979Z" fill="black"/>
<path d="M380.547 206H379.416L375.121 199.426V206H373.99V197.469H375.121L379.428 204.072V197.469H380.547V206ZM382.088 202.771C382.088 202.15 382.209 201.592 382.451 201.096C382.697 200.6 383.037 200.217 383.471 199.947C383.908 199.678 384.406 199.543 384.965 199.543C385.828 199.543 386.525 199.842 387.057 200.439C387.592 201.037 387.859 201.832 387.859 202.824V202.9C387.859 203.518 387.74 204.072 387.502 204.564C387.268 205.053 386.93 205.434 386.488 205.707C386.051 205.98 385.547 206.117 384.977 206.117C384.117 206.117 383.42 205.818 382.885 205.221C382.354 204.623 382.088 203.832 382.088 202.848V202.771ZM383.178 202.9C383.178 203.604 383.34 204.168 383.664 204.594C383.992 205.02 384.43 205.232 384.977 205.232C385.527 205.232 385.965 205.018 386.289 204.588C386.613 204.154 386.775 203.549 386.775 202.771C386.775 202.076 386.609 201.514 386.277 201.084C385.949 200.65 385.512 200.434 384.965 200.434C384.43 200.434 383.998 200.646 383.67 201.072C383.342 201.498 383.178 202.107 383.178 202.9Z" fill="black"/>
<path d="M366.115 308.66V312H364.99V303.469H368.137C369.07 303.469 369.801 303.707 370.328 304.184C370.859 304.66 371.125 305.291 371.125 306.076C371.125 306.904 370.865 307.543 370.346 307.992C369.83 308.438 369.09 308.66 368.125 308.66H366.115ZM366.115 307.74H368.137C368.738 307.74 369.199 307.6 369.52 307.318C369.84 307.033 370 306.623 370 306.088C370 305.58 369.84 305.174 369.52 304.869C369.199 304.564 368.76 304.406 368.201 304.395H366.115V307.74ZM376.234 312C376.172 311.875 376.121 311.652 376.082 311.332C375.578 311.855 374.977 312.117 374.277 312.117C373.652 312.117 373.139 311.941 372.736 311.59C372.338 311.234 372.139 310.785 372.139 310.242C372.139 309.582 372.389 309.07 372.889 308.707C373.393 308.34 374.1 308.156 375.01 308.156H376.064V307.658C376.064 307.279 375.951 306.979 375.725 306.756C375.498 306.529 375.164 306.416 374.723 306.416C374.336 306.416 374.012 306.514 373.75 306.709C373.488 306.904 373.357 307.141 373.357 307.418H372.268C372.268 307.102 372.379 306.797 372.602 306.504C372.828 306.207 373.133 305.973 373.516 305.801C373.902 305.629 374.326 305.543 374.787 305.543C375.518 305.543 376.09 305.727 376.504 306.094C376.918 306.457 377.133 306.959 377.148 307.6V310.518C377.148 311.1 377.223 311.562 377.371 311.906V312H376.234ZM374.436 311.174C374.775 311.174 375.098 311.086 375.402 310.91C375.707 310.734 375.928 310.506 376.064 310.225V308.924H375.215C373.887 308.924 373.223 309.312 373.223 310.09C373.223 310.43 373.336 310.695 373.562 310.887C373.789 311.078 374.08 311.174 374.436 311.174ZM382.539 310.318C382.539 310.025 382.428 309.799 382.205 309.639C381.986 309.475 381.602 309.334 381.051 309.217C380.504 309.1 380.068 308.959 379.744 308.795C379.424 308.631 379.186 308.436 379.029 308.209C378.877 307.982 378.801 307.713 378.801 307.4C378.801 306.881 379.02 306.441 379.457 306.082C379.898 305.723 380.461 305.543 381.145 305.543C381.863 305.543 382.445 305.729 382.891 306.1C383.34 306.471 383.564 306.945 383.564 307.523H382.475C382.475 307.227 382.348 306.971 382.094 306.756C381.844 306.541 381.527 306.434 381.145 306.434C380.75 306.434 380.441 306.52 380.219 306.691C379.996 306.863 379.885 307.088 379.885 307.365C379.885 307.627 379.988 307.824 380.195 307.957C380.402 308.09 380.775 308.217 381.314 308.338C381.857 308.459 382.297 308.604 382.633 308.771C382.969 308.939 383.217 309.143 383.377 309.381C383.541 309.615 383.623 309.902 383.623 310.242C383.623 310.809 383.396 311.264 382.943 311.607C382.49 311.947 381.902 312.117 381.18 312.117C380.672 312.117 380.223 312.027 379.832 311.848C379.441 311.668 379.135 311.418 378.912 311.098C378.693 310.773 378.584 310.424 378.584 310.049H379.668C379.688 310.412 379.832 310.701 380.102 310.916C380.375 311.127 380.734 311.232 381.18 311.232C381.59 311.232 381.918 311.15 382.164 310.986C382.414 310.818 382.539 310.596 382.539 310.318ZM388.727 310.318C388.727 310.025 388.615 309.799 388.393 309.639C388.174 309.475 387.789 309.334 387.238 309.217C386.691 309.1 386.256 308.959 385.932 308.795C385.611 308.631 385.373 308.436 385.217 308.209C385.064 307.982 384.988 307.713 384.988 307.4C384.988 306.881 385.207 306.441 385.645 306.082C386.086 305.723 386.648 305.543 387.332 305.543C388.051 305.543 388.633 305.729 389.078 306.1C389.527 306.471 389.752 306.945 389.752 307.523H388.662C388.662 307.227 388.535 306.971 388.281 306.756C388.031 306.541 387.715 306.434 387.332 306.434C386.938 306.434 386.629 306.52 386.406 306.691C386.184 306.863 386.072 307.088 386.072 307.365C386.072 307.627 386.176 307.824 386.383 307.957C386.59 308.09 386.963 308.217 387.502 308.338C388.045 308.459 388.484 308.604 388.82 308.771C389.156 308.939 389.404 309.143 389.564 309.381C389.729 309.615 389.811 309.902 389.811 310.242C389.811 310.809 389.584 311.264 389.131 311.607C388.678 311.947 388.09 312.117 387.367 312.117C386.859 312.117 386.41 312.027 386.02 311.848C385.629 311.668 385.322 311.418 385.1 311.098C384.881 310.773 384.771 310.424 384.771 310.049H385.855C385.875 310.412 386.02 310.701 386.289 310.916C386.562 311.127 386.922 311.232 387.367 311.232C387.777 311.232 388.105 311.15 388.352 310.986C388.602 310.818 388.727 310.596 388.727 310.318ZM395.137 312C395.074 311.875 395.023 311.652 394.984 311.332C394.48 311.855 393.879 312.117 393.18 312.117C392.555 312.117 392.041 311.941 391.639 311.59C391.24 311.234 391.041 310.785 391.041 310.242C391.041 309.582 391.291 309.07 391.791 308.707C392.295 308.34 393.002 308.156 393.912 308.156H394.967V307.658C394.967 307.279 394.854 306.979 394.627 306.756C394.4 306.529 394.066 306.416 393.625 306.416C393.238 306.416 392.914 306.514 392.652 306.709C392.391 306.904 392.26 307.141 392.26 307.418H391.17C391.17 307.102 391.281 306.797 391.504 306.504C391.73 306.207 392.035 305.973 392.418 305.801C392.805 305.629 393.229 305.543 393.689 305.543C394.42 305.543 394.992 305.727 395.406 306.094C395.82 306.457 396.035 306.959 396.051 307.6V310.518C396.051 311.1 396.125 311.562 396.273 311.906V312H395.137ZM393.338 311.174C393.678 311.174 394 311.086 394.305 310.91C394.609 310.734 394.83 310.506 394.967 310.225V308.924H394.117C392.789 308.924 392.125 309.312 392.125 310.09C392.125 310.43 392.238 310.695 392.465 310.887C392.691 311.078 392.982 311.174 393.338 311.174ZM404.641 312C404.578 311.875 404.527 311.652 404.488 311.332C403.984 311.855 403.383 312.117 402.684 312.117C402.059 312.117 401.545 311.941 401.143 311.59C400.744 311.234 400.545 310.785 400.545 310.242C400.545 309.582 400.795 309.07 401.295 308.707C401.799 308.34 402.506 308.156 403.416 308.156H404.471V307.658C404.471 307.279 404.357 306.979 404.131 306.756C403.904 306.529 403.57 306.416 403.129 306.416C402.742 306.416 402.418 306.514 402.156 306.709C401.895 306.904 401.764 307.141 401.764 307.418H400.674C400.674 307.102 400.785 306.797 401.008 306.504C401.234 306.207 401.539 305.973 401.922 305.801C402.309 305.629 402.732 305.543 403.193 305.543C403.924 305.543 404.496 305.727 404.91 306.094C405.324 306.457 405.539 306.959 405.555 307.6V310.518C405.555 311.1 405.629 311.562 405.777 311.906V312H404.641ZM402.842 311.174C403.182 311.174 403.504 311.086 403.809 310.91C404.113 310.734 404.334 310.506 404.471 310.225V308.924H403.621C402.293 308.924 401.629 309.312 401.629 310.09C401.629 310.43 401.742 310.695 401.969 310.887C402.195 311.078 402.486 311.174 402.842 311.174ZM408.432 312H407.348V303H408.432V312ZM414.168 305.66L414.197 306.363C414.662 305.816 415.289 305.543 416.078 305.543C416.965 305.543 417.568 305.883 417.889 306.562C418.1 306.258 418.373 306.012 418.709 305.824C419.049 305.637 419.449 305.543 419.91 305.543C421.301 305.543 422.008 306.279 422.031 307.752V312H420.947V307.816C420.947 307.363 420.844 307.025 420.637 306.803C420.43 306.576 420.082 306.463 419.594 306.463C419.191 306.463 418.857 306.584 418.592 306.826C418.326 307.064 418.172 307.387 418.129 307.793V312H417.039V307.846C417.039 306.924 416.588 306.463 415.686 306.463C414.975 306.463 414.488 306.766 414.227 307.371V312H413.143V305.66H414.168ZM427.586 312C427.523 311.875 427.473 311.652 427.434 311.332C426.93 311.855 426.328 312.117 425.629 312.117C425.004 312.117 424.49 311.941 424.088 311.59C423.689 311.234 423.49 310.785 423.49 310.242C423.49 309.582 423.74 309.07 424.24 308.707C424.744 308.34 425.451 308.156 426.361 308.156H427.416V307.658C427.416 307.279 427.303 306.979 427.076 306.756C426.85 306.529 426.516 306.416 426.074 306.416C425.688 306.416 425.363 306.514 425.102 306.709C424.84 306.904 424.709 307.141 424.709 307.418H423.619C423.619 307.102 423.73 306.797 423.953 306.504C424.18 306.207 424.484 305.973 424.867 305.801C425.254 305.629 425.678 305.543 426.139 305.543C426.869 305.543 427.441 305.727 427.855 306.094C428.27 306.457 428.484 306.959 428.5 307.6V310.518C428.5 311.1 428.574 311.562 428.723 311.906V312H427.586ZM425.787 311.174C426.127 311.174 426.449 311.086 426.754 310.91C427.059 310.734 427.279 310.506 427.416 310.225V308.924H426.566C425.238 308.924 424.574 309.312 424.574 310.09C424.574 310.43 424.688 310.695 424.914 310.887C425.141 311.078 425.432 311.174 425.787 311.174ZM431.377 312H430.293V305.66H431.377V312ZM430.205 303.979C430.205 303.803 430.258 303.654 430.363 303.533C430.473 303.412 430.633 303.352 430.844 303.352C431.055 303.352 431.215 303.412 431.324 303.533C431.434 303.654 431.488 303.803 431.488 303.979C431.488 304.154 431.434 304.301 431.324 304.418C431.215 304.535 431.055 304.594 430.844 304.594C430.633 304.594 430.473 304.535 430.363 304.418C430.258 304.301 430.205 304.154 430.205 303.979ZM434.143 305.66L434.178 306.457C434.662 305.848 435.295 305.543 436.076 305.543C437.416 305.543 438.092 306.299 438.104 307.811V312H437.02V307.805C437.016 307.348 436.91 307.01 436.703 306.791C436.5 306.572 436.182 306.463 435.748 306.463C435.396 306.463 435.088 306.557 434.822 306.744C434.557 306.932 434.35 307.178 434.201 307.482V312H433.117V305.66H434.143ZM441.209 304.125V305.66H442.393V306.498H441.209V310.43C441.209 310.684 441.262 310.875 441.367 311.004C441.473 311.129 441.652 311.191 441.906 311.191C442.031 311.191 442.203 311.168 442.422 311.121V312C442.137 312.078 441.859 312.117 441.59 312.117C441.105 312.117 440.74 311.971 440.494 311.678C440.248 311.385 440.125 310.969 440.125 310.43V306.498H438.971V305.66H440.125V304.125H441.209ZM443.26 308.771C443.26 308.15 443.381 307.592 443.623 307.096C443.869 306.6 444.209 306.217 444.643 305.947C445.08 305.678 445.578 305.543 446.137 305.543C447 305.543 447.697 305.842 448.229 306.439C448.764 307.037 449.031 307.832 449.031 308.824V308.9C449.031 309.518 448.912 310.072 448.674 310.564C448.439 311.053 448.102 311.434 447.66 311.707C447.223 311.98 446.719 312.117 446.148 312.117C445.289 312.117 444.592 311.818 444.057 311.221C443.525 310.623 443.26 309.832 443.26 308.848V308.771ZM444.35 308.9C444.35 309.604 444.512 310.168 444.836 310.594C445.164 311.02 445.602 311.232 446.148 311.232C446.699 311.232 447.137 311.018 447.461 310.588C447.785 310.154 447.947 309.549 447.947 308.771C447.947 308.076 447.781 307.514 447.449 307.084C447.121 306.65 446.684 306.434 446.137 306.434C445.602 306.434 445.17 306.646 444.842 307.072C444.514 307.498 444.35 308.107 444.35 308.9ZM455.746 308.9C455.746 309.865 455.525 310.643 455.084 311.232C454.643 311.822 454.045 312.117 453.291 312.117C452.521 312.117 451.916 311.873 451.475 311.385V314.438H450.391V305.66H451.381L451.434 306.363C451.875 305.816 452.488 305.543 453.273 305.543C454.035 305.543 454.637 305.83 455.078 306.404C455.523 306.979 455.746 307.777 455.746 308.801V308.9ZM454.662 308.777C454.662 308.062 454.51 307.498 454.205 307.084C453.9 306.67 453.482 306.463 452.951 306.463C452.295 306.463 451.803 306.754 451.475 307.336V310.365C451.799 310.943 452.295 311.232 452.963 311.232C453.482 311.232 453.895 311.027 454.199 310.617C454.508 310.203 454.662 309.59 454.662 308.777ZM458.307 312H457.223V305.66H458.307V312ZM457.135 303.979C457.135 303.803 457.188 303.654 457.293 303.533C457.402 303.412 457.562 303.352 457.773 303.352C457.984 303.352 458.145 303.412 458.254 303.533C458.363 303.654 458.418 303.803 458.418 303.979C458.418 304.154 458.363 304.301 458.254 304.418C458.145 304.535 457.984 304.594 457.773 304.594C457.562 304.594 457.402 304.535 457.293 304.418C457.188 304.301 457.135 304.154 457.135 303.979ZM462.59 311.232C462.977 311.232 463.314 311.115 463.604 310.881C463.893 310.646 464.053 310.354 464.084 310.002H465.109C465.09 310.365 464.965 310.711 464.734 311.039C464.504 311.367 464.195 311.629 463.809 311.824C463.426 312.02 463.02 312.117 462.59 312.117C461.727 312.117 461.039 311.83 460.527 311.256C460.02 310.678 459.766 309.889 459.766 308.889V308.707C459.766 308.09 459.879 307.541 460.105 307.061C460.332 306.58 460.656 306.207 461.078 305.941C461.504 305.676 462.006 305.543 462.584 305.543C463.295 305.543 463.885 305.756 464.354 306.182C464.826 306.607 465.078 307.16 465.109 307.84H464.084C464.053 307.43 463.896 307.094 463.615 306.832C463.338 306.566 462.994 306.434 462.584 306.434C462.033 306.434 461.605 306.633 461.301 307.031C461 307.426 460.85 307.998 460.85 308.748V308.953C460.85 309.684 461 310.246 461.301 310.641C461.602 311.035 462.031 311.232 462.59 311.232ZM472.996 310.318C472.996 310.025 472.885 309.799 472.662 309.639C472.443 309.475 472.059 309.334 471.508 309.217C470.961 309.1 470.525 308.959 470.201 308.795C469.881 308.631 469.643 308.436 469.486 308.209C469.334 307.982 469.258 307.713 469.258 307.4C469.258 306.881 469.477 306.441 469.914 306.082C470.355 305.723 470.918 305.543 471.602 305.543C472.32 305.543 472.902 305.729 473.348 306.1C473.797 306.471 474.021 306.945 474.021 307.523H472.932C472.932 307.227 472.805 306.971 472.551 306.756C472.301 306.541 471.984 306.434 471.602 306.434C471.207 306.434 470.898 306.52 470.676 306.691C470.453 306.863 470.342 307.088 470.342 307.365C470.342 307.627 470.445 307.824 470.652 307.957C470.859 308.09 471.232 308.217 471.771 308.338C472.314 308.459 472.754 308.604 473.09 308.771C473.426 308.939 473.674 309.143 473.834 309.381C473.998 309.615 474.08 309.902 474.08 310.242C474.08 310.809 473.854 311.264 473.4 311.607C472.947 311.947 472.359 312.117 471.637 312.117C471.129 312.117 470.68 312.027 470.289 311.848C469.898 311.668 469.592 311.418 469.369 311.098C469.15 310.773 469.041 310.424 469.041 310.049H470.125C470.145 310.412 470.289 310.701 470.559 310.916C470.832 311.127 471.191 311.232 471.637 311.232C472.047 311.232 472.375 311.15 472.621 310.986C472.871 310.818 472.996 310.596 472.996 310.318ZM479.406 311.373C478.984 311.869 478.365 312.117 477.549 312.117C476.873 312.117 476.357 311.922 476.002 311.531C475.65 311.137 475.473 310.555 475.469 309.785V305.66H476.553V309.756C476.553 310.717 476.943 311.197 477.725 311.197C478.553 311.197 479.104 310.889 479.377 310.271V305.66H480.461V312H479.43L479.406 311.373ZM484.656 311.232C485.043 311.232 485.381 311.115 485.67 310.881C485.959 310.646 486.119 310.354 486.15 310.002H487.176C487.156 310.365 487.031 310.711 486.801 311.039C486.57 311.367 486.262 311.629 485.875 311.824C485.492 312.02 485.086 312.117 484.656 312.117C483.793 312.117 483.105 311.83 482.594 311.256C482.086 310.678 481.832 309.889 481.832 308.889V308.707C481.832 308.09 481.945 307.541 482.172 307.061C482.398 306.58 482.723 306.207 483.145 305.941C483.57 305.676 484.072 305.543 484.65 305.543C485.361 305.543 485.951 305.756 486.42 306.182C486.893 306.607 487.145 307.16 487.176 307.84H486.15C486.119 307.43 485.963 307.094 485.682 306.832C485.404 306.566 485.061 306.434 484.65 306.434C484.1 306.434 483.672 306.633 483.367 307.031C483.066 307.426 482.916 307.998 482.916 308.748V308.953C482.916 309.684 483.066 310.246 483.367 310.641C483.668 311.035 484.098 311.232 484.656 311.232ZM490.938 311.232C491.324 311.232 491.662 311.115 491.951 310.881C492.24 310.646 492.4 310.354 492.432 310.002H493.457C493.438 310.365 493.312 310.711 493.082 311.039C492.852 311.367 492.543 311.629 492.156 311.824C491.773 312.02 491.367 312.117 490.938 312.117C490.074 312.117 489.387 311.83 488.875 311.256C488.367 310.678 488.113 309.889 488.113 308.889V308.707C488.113 308.09 488.227 307.541 488.453 307.061C488.68 306.58 489.004 306.207 489.426 305.941C489.852 305.676 490.354 305.543 490.932 305.543C491.643 305.543 492.232 305.756 492.701 306.182C493.174 306.607 493.426 307.16 493.457 307.84H492.432C492.4 307.43 492.244 307.094 491.963 306.832C491.686 306.566 491.342 306.434 490.932 306.434C490.381 306.434 489.953 306.633 489.648 307.031C489.348 307.426 489.197 307.998 489.197 308.748V308.953C489.197 309.684 489.348 310.246 489.648 310.641C489.949 311.035 490.379 311.232 490.938 311.232ZM497.307 312.117C496.447 312.117 495.748 311.836 495.209 311.273C494.67 310.707 494.4 309.951 494.4 309.006V308.807C494.4 308.178 494.52 307.617 494.758 307.125C495 306.629 495.336 306.242 495.766 305.965C496.199 305.684 496.668 305.543 497.172 305.543C497.996 305.543 498.637 305.814 499.094 306.357C499.551 306.9 499.779 307.678 499.779 308.689V309.141H495.484C495.5 309.766 495.682 310.271 496.029 310.658C496.381 311.041 496.826 311.232 497.365 311.232C497.748 311.232 498.072 311.154 498.338 310.998C498.604 310.842 498.836 310.635 499.035 310.377L499.697 310.893C499.166 311.709 498.369 312.117 497.307 312.117ZM497.172 306.434C496.734 306.434 496.367 306.594 496.07 306.914C495.773 307.23 495.59 307.676 495.52 308.25H498.695V308.168C498.664 307.617 498.516 307.191 498.25 306.891C497.984 306.586 497.625 306.434 497.172 306.434ZM504.73 310.318C504.73 310.025 504.619 309.799 504.396 309.639C504.178 309.475 503.793 309.334 503.242 309.217C502.695 309.1 502.26 308.959 501.936 308.795C501.615 308.631 501.377 308.436 501.221 308.209C501.068 307.982 500.992 307.713 500.992 307.4C500.992 306.881 501.211 306.441 501.648 306.082C502.09 305.723 502.652 305.543 503.336 305.543C504.055 305.543 504.637 305.729 505.082 306.1C505.531 306.471 505.756 306.945 505.756 307.523H504.666C504.666 307.227 504.539 306.971 504.285 306.756C504.035 306.541 503.719 306.434 503.336 306.434C502.941 306.434 502.633 306.52 502.41 306.691C502.188 306.863 502.076 307.088 502.076 307.365C502.076 307.627 502.18 307.824 502.387 307.957C502.594 308.09 502.967 308.217 503.506 308.338C504.049 308.459 504.488 308.604 504.824 308.771C505.16 308.939 505.408 309.143 505.568 309.381C505.732 309.615 505.814 309.902 505.814 310.242C505.814 310.809 505.588 311.264 505.135 311.607C504.682 311.947 504.094 312.117 503.371 312.117C502.863 312.117 502.414 312.027 502.023 311.848C501.633 311.668 501.326 311.418 501.104 311.098C500.885 310.773 500.775 310.424 500.775 310.049H501.859C501.879 310.412 502.023 310.701 502.293 310.916C502.566 311.127 502.926 311.232 503.371 311.232C503.781 311.232 504.109 311.15 504.355 310.986C504.605 310.818 504.73 310.596 504.73 310.318ZM510.918 310.318C510.918 310.025 510.807 309.799 510.584 309.639C510.365 309.475 509.98 309.334 509.43 309.217C508.883 309.1 508.447 308.959 508.123 308.795C507.803 308.631 507.564 308.436 507.408 308.209C507.256 307.982 507.18 307.713 507.18 307.4C507.18 306.881 507.398 306.441 507.836 306.082C508.277 305.723 508.84 305.543 509.523 305.543C510.242 305.543 510.824 305.729 511.27 306.1C511.719 306.471 511.943 306.945 511.943 307.523H510.854C510.854 307.227 510.727 306.971 510.473 306.756C510.223 306.541 509.906 306.434 509.523 306.434C509.129 306.434 508.82 306.52 508.598 306.691C508.375 306.863 508.264 307.088 508.264 307.365C508.264 307.627 508.367 307.824 508.574 307.957C508.781 308.09 509.154 308.217 509.693 308.338C510.236 308.459 510.676 308.604 511.012 308.771C511.348 308.939 511.596 309.143 511.756 309.381C511.92 309.615 512.002 309.902 512.002 310.242C512.002 310.809 511.775 311.264 511.322 311.607C510.869 311.947 510.281 312.117 509.559 312.117C509.051 312.117 508.602 312.027 508.211 311.848C507.82 311.668 507.514 311.418 507.291 311.098C507.072 310.773 506.963 310.424 506.963 310.049H508.047C508.066 310.412 508.211 310.701 508.48 310.916C508.754 311.127 509.113 311.232 509.559 311.232C509.969 311.232 510.297 311.15 510.543 310.986C510.793 310.818 510.918 310.596 510.918 310.318ZM514.592 312H513.508V305.66H514.592V312ZM513.42 303.979C513.42 303.803 513.473 303.654 513.578 303.533C513.688 303.412 513.848 303.352 514.059 303.352C514.27 303.352 514.43 303.412 514.539 303.533C514.648 303.654 514.703 303.803 514.703 303.979C514.703 304.154 514.648 304.301 514.539 304.418C514.43 304.535 514.27 304.594 514.059 304.594C513.848 304.594 513.688 304.535 513.578 304.418C513.473 304.301 513.42 304.154 513.42 303.979ZM518.424 310.529L519.994 305.66H521.102L518.828 312H518.002L515.705 305.66H516.812L518.424 310.529ZM521.764 308.771C521.764 308.15 521.885 307.592 522.127 307.096C522.373 306.6 522.713 306.217 523.146 305.947C523.584 305.678 524.082 305.543 524.641 305.543C525.504 305.543 526.201 305.842 526.732 306.439C527.268 307.037 527.535 307.832 527.535 308.824V308.9C527.535 309.518 527.416 310.072 527.178 310.564C526.943 311.053 526.605 311.434 526.164 311.707C525.727 311.98 525.223 312.117 524.652 312.117C523.793 312.117 523.096 311.818 522.561 311.221C522.029 310.623 521.764 309.832 521.764 308.848V308.771ZM522.854 308.9C522.854 309.604 523.016 310.168 523.34 310.594C523.668 311.02 524.105 311.232 524.652 311.232C525.203 311.232 525.641 311.018 525.965 310.588C526.289 310.154 526.451 309.549 526.451 308.771C526.451 308.076 526.285 307.514 525.953 307.084C525.625 306.65 525.188 306.434 524.641 306.434C524.105 306.434 523.674 306.646 523.346 307.072C523.018 307.498 522.854 308.107 522.854 308.9Z" fill="black"/>
<rect x="314" y="220" width="112" height="47" fill="#2F80ED"/>
<path d="M319.197 244H318.072V235.469H319.197V244ZM324.781 242.318C324.781 242.025 324.67 241.799 324.447 241.639C324.229 241.475 323.844 241.334 323.293 241.217C322.746 241.1 322.311 240.959 321.986 240.795C321.666 240.631 321.428 240.436 321.271 240.209C321.119 239.982 321.043 239.713 321.043 239.4C321.043 238.881 321.262 238.441 321.699 238.082C322.141 237.723 322.703 237.543 323.387 237.543C324.105 237.543 324.688 237.729 325.133 238.1C325.582 238.471 325.807 238.945 325.807 239.523H324.717C324.717 239.227 324.59 238.971 324.336 238.756C324.086 238.541 323.77 238.434 323.387 238.434C322.992 238.434 322.684 238.52 322.461 238.691C322.238 238.863 322.127 239.088 322.127 239.365C322.127 239.627 322.23 239.824 322.438 239.957C322.645 240.09 323.018 240.217 323.557 240.338C324.1 240.459 324.539 240.604 324.875 240.771C325.211 240.939 325.459 241.143 325.619 241.381C325.783 241.615 325.865 241.902 325.865 242.242C325.865 242.809 325.639 243.264 325.186 243.607C324.732 243.947 324.145 244.117 323.422 244.117C322.914 244.117 322.465 244.027 322.074 243.848C321.684 243.668 321.377 243.418 321.154 243.098C320.936 242.773 320.826 242.424 320.826 242.049H321.91C321.93 242.412 322.074 242.701 322.344 242.916C322.617 243.127 322.977 243.232 323.422 243.232C323.832 243.232 324.16 243.15 324.406 242.986C324.656 242.818 324.781 242.596 324.781 242.318ZM329.82 243.232C330.207 243.232 330.545 243.115 330.834 242.881C331.123 242.646 331.283 242.354 331.314 242.002H332.34C332.32 242.365 332.195 242.711 331.965 243.039C331.734 243.367 331.426 243.629 331.039 243.824C330.656 244.02 330.25 244.117 329.82 244.117C328.957 244.117 328.27 243.83 327.758 243.256C327.25 242.678 326.996 241.889 326.996 240.889V240.707C326.996 240.09 327.109 239.541 327.336 239.061C327.562 238.58 327.887 238.207 328.309 237.941C328.734 237.676 329.236 237.543 329.814 237.543C330.525 237.543 331.115 237.756 331.584 238.182C332.057 238.607 332.309 239.16 332.34 239.84H331.314C331.283 239.43 331.127 239.094 330.846 238.832C330.568 238.566 330.225 238.434 329.814 238.434C329.264 238.434 328.836 238.633 328.531 239.031C328.23 239.426 328.08 239.998 328.08 240.748V240.953C328.08 241.684 328.23 242.246 328.531 242.641C328.832 243.035 329.262 243.232 329.82 243.232ZM336.623 238.633C336.459 238.605 336.281 238.592 336.09 238.592C335.379 238.592 334.896 238.895 334.643 239.5V244H333.559V237.66H334.613L334.631 238.393C334.986 237.826 335.49 237.543 336.143 237.543C336.354 237.543 336.514 237.57 336.623 237.625V238.633ZM338.803 244H337.719V237.66H338.803V244ZM337.631 235.979C337.631 235.803 337.684 235.654 337.789 235.533C337.898 235.412 338.059 235.352 338.27 235.352C338.48 235.352 338.641 235.412 338.75 235.533C338.859 235.654 338.914 235.803 338.914 235.979C338.914 236.154 338.859 236.301 338.75 236.418C338.641 236.535 338.48 236.594 338.27 236.594C338.059 236.594 337.898 236.535 337.789 236.418C337.684 236.301 337.631 236.154 337.631 235.979ZM342.635 242.529L344.205 237.66H345.312L343.039 244H342.213L339.916 237.66H341.023L342.635 242.529ZM347.533 244H346.449V237.66H347.533V244ZM346.361 235.979C346.361 235.803 346.414 235.654 346.52 235.533C346.629 235.412 346.789 235.352 347 235.352C347.211 235.352 347.371 235.412 347.48 235.533C347.59 235.654 347.645 235.803 347.645 235.979C347.645 236.154 347.59 236.301 347.48 236.418C347.371 236.535 347.211 236.594 347 236.594C346.789 236.594 346.629 236.535 346.52 236.418C346.414 236.301 346.361 236.154 346.361 235.979ZM350.744 236.125V237.66H351.928V238.498H350.744V242.43C350.744 242.684 350.797 242.875 350.902 243.004C351.008 243.129 351.188 243.191 351.441 243.191C351.566 243.191 351.738 243.168 351.957 243.121V244C351.672 244.078 351.395 244.117 351.125 244.117C350.641 244.117 350.275 243.971 350.029 243.678C349.783 243.385 349.66 242.969 349.66 242.43V238.498H348.506V237.66H349.66V236.125H350.744ZM354.377 244H353.293V237.66H354.377V244ZM353.205 235.979C353.205 235.803 353.258 235.654 353.363 235.533C353.473 235.412 353.633 235.352 353.844 235.352C354.055 235.352 354.215 235.412 354.324 235.533C354.434 235.654 354.488 235.803 354.488 235.979C354.488 236.154 354.434 236.301 354.324 236.418C354.215 236.535 354.055 236.594 353.844 236.594C353.633 236.594 353.473 236.535 353.363 236.418C353.258 236.301 353.205 236.154 353.205 235.979ZM363.008 244C362.945 243.875 362.895 243.652 362.855 243.332C362.352 243.855 361.75 244.117 361.051 244.117C360.426 244.117 359.912 243.941 359.51 243.59C359.111 243.234 358.912 242.785 358.912 242.242C358.912 241.582 359.162 241.07 359.662 240.707C360.166 240.34 360.873 240.156 361.783 240.156H362.838V239.658C362.838 239.279 362.725 238.979 362.498 238.756C362.271 238.529 361.938 238.416 361.496 238.416C361.109 238.416 360.785 238.514 360.523 238.709C360.262 238.904 360.131 239.141 360.131 239.418H359.041C359.041 239.102 359.152 238.797 359.375 238.504C359.602 238.207 359.906 237.973 360.289 237.801C360.676 237.629 361.1 237.543 361.561 237.543C362.291 237.543 362.863 237.727 363.277 238.094C363.691 238.457 363.906 238.959 363.922 239.6V242.518C363.922 243.1 363.996 243.562 364.145 243.906V244H363.008ZM361.209 243.174C361.549 243.174 361.871 243.086 362.176 242.91C362.48 242.734 362.701 242.506 362.838 242.225V240.924H361.988C360.66 240.924 359.996 241.312 359.996 242.09C359.996 242.43 360.109 242.695 360.336 242.887C360.562 243.078 360.854 243.174 361.209 243.174ZM366.799 244H365.715V235H366.799V244ZM372.535 237.66L372.564 238.363C373.029 237.816 373.656 237.543 374.445 237.543C375.332 237.543 375.936 237.883 376.256 238.562C376.467 238.258 376.74 238.012 377.076 237.824C377.416 237.637 377.816 237.543 378.277 237.543C379.668 237.543 380.375 238.279 380.398 239.752V244H379.314V239.816C379.314 239.363 379.211 239.025 379.004 238.803C378.797 238.576 378.449 238.463 377.961 238.463C377.559 238.463 377.225 238.584 376.959 238.826C376.693 239.064 376.539 239.387 376.496 239.793V244H375.406V239.846C375.406 238.924 374.955 238.463 374.053 238.463C373.342 238.463 372.855 238.766 372.594 239.371V244H371.51V237.66H372.535ZM385.953 244C385.891 243.875 385.84 243.652 385.801 243.332C385.297 243.855 384.695 244.117 383.996 244.117C383.371 244.117 382.857 243.941 382.455 243.59C382.057 243.234 381.857 242.785 381.857 242.242C381.857 241.582 382.107 241.07 382.607 240.707C383.111 240.34 383.818 240.156 384.729 240.156H385.783V239.658C385.783 239.279 385.67 238.979 385.443 238.756C385.217 238.529 384.883 238.416 384.441 238.416C384.055 238.416 383.73 238.514 383.469 238.709C383.207 238.904 383.076 239.141 383.076 239.418H381.986C381.986 239.102 382.098 238.797 382.32 238.504C382.547 238.207 382.852 237.973 383.234 237.801C383.621 237.629 384.045 237.543 384.506 237.543C385.236 237.543 385.809 237.727 386.223 238.094C386.637 238.457 386.852 238.959 386.867 239.6V242.518C386.867 243.1 386.941 243.562 387.09 243.906V244H385.953ZM384.154 243.174C384.494 243.174 384.816 243.086 385.121 242.91C385.426 242.734 385.646 242.506 385.783 242.225V240.924H384.934C383.605 240.924 382.941 241.312 382.941 242.09C382.941 242.43 383.055 242.695 383.281 242.887C383.508 243.078 383.799 243.174 384.154 243.174ZM389.744 244H388.66V237.66H389.744V244ZM388.572 235.979C388.572 235.803 388.625 235.654 388.73 235.533C388.84 235.412 389 235.352 389.211 235.352C389.422 235.352 389.582 235.412 389.691 235.533C389.801 235.654 389.855 235.803 389.855 235.979C389.855 236.154 389.801 236.301 389.691 236.418C389.582 236.535 389.422 236.594 389.211 236.594C389 236.594 388.84 236.535 388.73 236.418C388.625 236.301 388.572 236.154 388.572 235.979ZM392.51 237.66L392.545 238.457C393.029 237.848 393.662 237.543 394.443 237.543C395.783 237.543 396.459 238.299 396.471 239.811V244H395.387V239.805C395.383 239.348 395.277 239.01 395.07 238.791C394.867 238.572 394.549 238.463 394.115 238.463C393.764 238.463 393.455 238.557 393.189 238.744C392.924 238.932 392.717 239.178 392.568 239.482V244H391.484V237.66H392.51ZM399.576 236.125V237.66H400.76V238.498H399.576V242.43C399.576 242.684 399.629 242.875 399.734 243.004C399.84 243.129 400.02 243.191 400.273 243.191C400.398 243.191 400.57 243.168 400.789 243.121V244C400.504 244.078 400.227 244.117 399.957 244.117C399.473 244.117 399.107 243.971 398.861 243.678C398.615 243.385 398.492 242.969 398.492 242.43V238.498H397.338V237.66H398.492V236.125H399.576ZM401.627 240.771C401.627 240.15 401.748 239.592 401.99 239.096C402.236 238.6 402.576 238.217 403.01 237.947C403.447 237.678 403.945 237.543 404.504 237.543C405.367 237.543 406.064 237.842 406.596 238.439C407.131 239.037 407.398 239.832 407.398 240.824V240.9C407.398 241.518 407.279 242.072 407.041 242.564C406.807 243.053 406.469 243.434 406.027 243.707C405.59 243.98 405.086 244.117 404.516 244.117C403.656 244.117 402.959 243.818 402.424 243.221C401.893 242.623 401.627 241.832 401.627 240.848V240.771ZM402.717 240.9C402.717 241.604 402.879 242.168 403.203 242.594C403.531 243.02 403.969 243.232 404.516 243.232C405.066 243.232 405.504 243.018 405.828 242.588C406.152 242.154 406.314 241.549 406.314 240.771C406.314 240.076 406.148 239.514 405.816 239.084C405.488 238.65 405.051 238.434 404.504 238.434C403.969 238.434 403.537 238.646 403.209 239.072C402.881 239.498 402.717 240.107 402.717 240.9ZM414.113 240.9C414.113 241.865 413.893 242.643 413.451 243.232C413.01 243.822 412.412 244.117 411.658 244.117C410.889 244.117 410.283 243.873 409.842 243.385V246.438H408.758V237.66H409.748L409.801 238.363C410.242 237.816 410.855 237.543 411.641 237.543C412.402 237.543 413.004 237.83 413.445 238.404C413.891 238.979 414.113 239.777 414.113 240.801V240.9ZM413.029 240.777C413.029 240.062 412.877 239.498 412.572 239.084C412.268 238.67 411.85 238.463 411.318 238.463C410.662 238.463 410.17 238.754 409.842 239.336V242.365C410.166 242.943 410.662 243.232 411.33 243.232C411.85 243.232 412.262 243.027 412.566 242.617C412.875 242.203 413.029 241.59 413.029 240.777ZM416.674 244H415.59V237.66H416.674V244ZM415.502 235.979C415.502 235.803 415.555 235.654 415.66 235.533C415.77 235.412 415.93 235.352 416.141 235.352C416.352 235.352 416.512 235.412 416.621 235.533C416.73 235.654 416.785 235.803 416.785 235.979C416.785 236.154 416.73 236.301 416.621 236.418C416.512 236.535 416.352 236.594 416.141 236.594C415.93 236.594 415.77 236.535 415.66 236.418C415.555 236.301 415.502 236.154 415.502 235.979ZM420.957 243.232C421.344 243.232 421.682 243.115 421.971 242.881C422.26 242.646 422.42 242.354 422.451 242.002H423.477C423.457 242.365 423.332 242.711 423.102 243.039C422.871 243.367 422.562 243.629 422.176 243.824C421.793 244.02 421.387 244.117 420.957 244.117C420.094 244.117 419.406 243.83 418.895 243.256C418.387 242.678 418.133 241.889 418.133 240.889V240.707C418.133 240.09 418.246 239.541 418.473 239.061C418.699 238.58 419.023 238.207 419.445 237.941C419.871 237.676 420.373 237.543 420.951 237.543C421.662 237.543 422.252 237.756 422.721 238.182C423.193 238.607 423.445 239.16 423.477 239.84H422.451C422.42 239.43 422.264 239.094 421.982 238.832C421.705 238.566 421.361 238.434 420.951 238.434C420.4 238.434 419.973 238.633 419.668 239.031C419.367 239.426 419.217 239.998 419.217 240.748V240.953C419.217 241.684 419.367 242.246 419.668 242.641C419.969 243.035 420.398 243.232 420.957 243.232Z" fill="black"/>
<ellipse cx="99" cy="132.5" rx="99" ry="38.5" fill="#EB5757"/>
<path d="M55.6953 127.232H52.1152V131H50.9902V122.469H56.2754V123.395H52.1152V126.312H55.6953V127.232ZM58.6309 131H57.5469V124.66H58.6309V131ZM57.459 122.979C57.459 122.803 57.5117 122.654 57.6172 122.533C57.7266 122.412 57.8867 122.352 58.0977 122.352C58.3086 122.352 58.4688 122.412 58.5781 122.533C58.6875 122.654 58.7422 122.803 58.7422 122.979C58.7422 123.154 58.6875 123.301 58.5781 123.418C58.4688 123.535 58.3086 123.594 58.0977 123.594C57.8867 123.594 57.7266 123.535 57.6172 123.418C57.5117 123.301 57.459 123.154 57.459 122.979ZM61.3965 124.66L61.4316 125.457C61.916 124.848 62.5488 124.543 63.3301 124.543C64.6699 124.543 65.3457 125.299 65.3574 126.811V131H64.2734V126.805C64.2695 126.348 64.1641 126.01 63.957 125.791C63.7539 125.572 63.4355 125.463 63.002 125.463C62.6504 125.463 62.3418 125.557 62.0762 125.744C61.8105 125.932 61.6035 126.178 61.4551 126.482V131H60.3711V124.66H61.3965ZM69.623 131.117C68.7637 131.117 68.0645 130.836 67.5254 130.273C66.9863 129.707 66.7168 128.951 66.7168 128.006V127.807C66.7168 127.178 66.8359 126.617 67.0742 126.125C67.3164 125.629 67.6523 125.242 68.082 124.965C68.5156 124.684 68.9844 124.543 69.4883 124.543C70.3125 124.543 70.9531 124.814 71.4102 125.357C71.8672 125.9 72.0957 126.678 72.0957 127.689V128.141H67.8008C67.8164 128.766 67.998 129.271 68.3457 129.658C68.6973 130.041 69.1426 130.232 69.6816 130.232C70.0645 130.232 70.3887 130.154 70.6543 129.998C70.9199 129.842 71.1523 129.635 71.3516 129.377L72.0137 129.893C71.4824 130.709 70.6855 131.117 69.623 131.117ZM69.4883 125.434C69.0508 125.434 68.6836 125.594 68.3867 125.914C68.0898 126.23 67.9062 126.676 67.8359 127.25H71.0117V127.168C70.9805 126.617 70.832 126.191 70.5664 125.891C70.3008 125.586 69.9414 125.434 69.4883 125.434ZM76.0449 127.771C76.0449 127.15 76.166 126.592 76.4082 126.096C76.6543 125.6 76.9941 125.217 77.4277 124.947C77.8652 124.678 78.3633 124.543 78.9219 124.543C79.7852 124.543 80.4824 124.842 81.0137 125.439C81.5488 126.037 81.8164 126.832 81.8164 127.824V127.9C81.8164 128.518 81.6973 129.072 81.459 129.564C81.2246 130.053 80.8867 130.434 80.4453 130.707C80.0078 130.98 79.5039 131.117 78.9336 131.117C78.0742 131.117 77.377 130.818 76.8418 130.221C76.3105 129.623 76.0449 128.832 76.0449 127.848V127.771ZM77.1348 127.9C77.1348 128.604 77.2969 129.168 77.6211 129.594C77.9492 130.02 78.3867 130.232 78.9336 130.232C79.4844 130.232 79.9219 130.018 80.2461 129.588C80.5703 129.154 80.7324 128.549 80.7324 127.771C80.7324 127.076 80.5664 126.514 80.2344 126.084C79.9062 125.65 79.4688 125.434 78.9219 125.434C78.3867 125.434 77.9551 125.646 77.627 126.072C77.2988 126.498 77.1348 127.107 77.1348 127.9ZM84.2012 124.66L84.2363 125.457C84.7207 124.848 85.3535 124.543 86.1348 124.543C87.4746 124.543 88.1504 125.299 88.1621 126.811V131H87.0781V126.805C87.0742 126.348 86.9688 126.01 86.7617 125.791C86.5586 125.572 86.2402 125.463 85.8066 125.463C85.4551 125.463 85.1465 125.557 84.8809 125.744C84.6152 125.932 84.4082 126.178 84.2598 126.482V131H83.1758V124.66H84.2012ZM94.3672 131.885H89V131H94.3672V131.885ZM97.7539 130.232C98.1406 130.232 98.4785 130.115 98.7676 129.881C99.0566 129.646 99.2168 129.354 99.248 129.002H100.273C100.254 129.365 100.129 129.711 99.8984 130.039C99.668 130.367 99.3594 130.629 98.9727 130.824C98.5898 131.02 98.1836 131.117 97.7539 131.117C96.8906 131.117 96.2031 130.83 95.6914 130.256C95.1836 129.678 94.9297 128.889 94.9297 127.889V127.707C94.9297 127.09 95.043 126.541 95.2695 126.061C95.4961 125.58 95.8203 125.207 96.2422 124.941C96.668 124.676 97.1699 124.543 97.748 124.543C98.459 124.543 99.0488 124.756 99.5176 125.182C99.9902 125.607 100.242 126.16 100.273 126.84H99.248C99.2168 126.43 99.0605 126.094 98.7793 125.832C98.502 125.566 98.1582 125.434 97.748 125.434C97.1973 125.434 96.7695 125.633 96.4648 126.031C96.1641 126.426 96.0137 126.998 96.0137 127.748V127.953C96.0137 128.684 96.1641 129.246 96.4648 129.641C96.7656 130.035 97.1953 130.232 97.7539 130.232ZM101.205 127.771C101.205 127.15 101.326 126.592 101.568 126.096C101.814 125.6 102.154 125.217 102.588 124.947C103.025 124.678 103.523 124.543 104.082 124.543C104.945 124.543 105.643 124.842 106.174 125.439C106.709 126.037 106.977 126.832 106.977 127.824V127.9C106.977 128.518 106.857 129.072 106.619 129.564C106.385 130.053 106.047 130.434 105.605 130.707C105.168 130.98 104.664 131.117 104.094 131.117C103.234 131.117 102.537 130.818 102.002 130.221C101.471 129.623 101.205 128.832 101.205 127.848V127.771ZM102.295 127.9C102.295 128.604 102.457 129.168 102.781 129.594C103.109 130.02 103.547 130.232 104.094 130.232C104.645 130.232 105.082 130.018 105.406 129.588C105.73 129.154 105.893 128.549 105.893 127.771C105.893 127.076 105.727 126.514 105.395 126.084C105.066 125.65 104.629 125.434 104.082 125.434C103.547 125.434 103.115 125.646 102.787 126.072C102.459 126.498 102.295 127.107 102.295 127.9ZM109.361 124.66L109.396 125.457C109.881 124.848 110.514 124.543 111.295 124.543C112.635 124.543 113.311 125.299 113.322 126.811V131H112.238V126.805C112.234 126.348 112.129 126.01 111.922 125.791C111.719 125.572 111.4 125.463 110.967 125.463C110.615 125.463 110.307 125.557 110.041 125.744C109.775 125.932 109.568 126.178 109.42 126.482V131H108.336V124.66H109.361ZM115.982 124.66L116.018 125.457C116.502 124.848 117.135 124.543 117.916 124.543C119.256 124.543 119.932 125.299 119.943 126.811V131H118.859V126.805C118.855 126.348 118.75 126.01 118.543 125.791C118.34 125.572 118.021 125.463 117.588 125.463C117.236 125.463 116.928 125.557 116.662 125.744C116.396 125.932 116.189 126.178 116.041 126.482V131H114.957V124.66H115.982ZM124.209 131.117C123.35 131.117 122.65 130.836 122.111 130.273C121.572 129.707 121.303 128.951 121.303 128.006V127.807C121.303 127.178 121.422 126.617 121.66 126.125C121.902 125.629 122.238 125.242 122.668 124.965C123.102 124.684 123.57 124.543 124.074 124.543C124.898 124.543 125.539 124.814 125.996 125.357C126.453 125.9 126.682 126.678 126.682 127.689V128.141H122.387C122.402 128.766 122.584 129.271 122.932 129.658C123.283 130.041 123.729 130.232 124.268 130.232C124.65 130.232 124.975 130.154 125.24 129.998C125.506 129.842 125.738 129.635 125.938 129.377L126.6 129.893C126.068 130.709 125.271 131.117 124.209 131.117ZM124.074 125.434C123.637 125.434 123.27 125.594 122.973 125.914C122.676 126.23 122.492 126.676 122.422 127.25H125.598V127.168C125.566 126.617 125.418 126.191 125.152 125.891C124.887 125.586 124.527 125.434 124.074 125.434ZM130.484 130.232C130.871 130.232 131.209 130.115 131.498 129.881C131.787 129.646 131.947 129.354 131.979 129.002H133.004C132.984 129.365 132.859 129.711 132.629 130.039C132.398 130.367 132.09 130.629 131.703 130.824C131.32 131.02 130.914 131.117 130.484 131.117C129.621 131.117 128.934 130.83 128.422 130.256C127.914 129.678 127.66 128.889 127.66 127.889V127.707C127.66 127.09 127.773 126.541 128 126.061C128.227 125.58 128.551 125.207 128.973 124.941C129.398 124.676 129.9 124.543 130.479 124.543C131.189 124.543 131.779 124.756 132.248 125.182C132.721 125.607 132.973 126.16 133.004 126.84H131.979C131.947 126.43 131.791 126.094 131.51 125.832C131.232 125.566 130.889 125.434 130.479 125.434C129.928 125.434 129.5 125.633 129.195 126.031C128.895 126.426 128.744 126.998 128.744 127.748V127.953C128.744 128.684 128.895 129.246 129.195 129.641C129.496 130.035 129.926 130.232 130.484 130.232ZM135.693 123.125V124.66H136.877V125.498H135.693V129.43C135.693 129.684 135.746 129.875 135.852 130.004C135.957 130.129 136.137 130.191 136.391 130.191C136.516 130.191 136.688 130.168 136.906 130.121V131C136.621 131.078 136.344 131.117 136.074 131.117C135.59 131.117 135.225 130.971 134.979 130.678C134.732 130.385 134.609 129.969 134.609 129.43V125.498H133.455V124.66H134.609V123.125H135.693ZM138.107 127.537C138.107 126.654 138.225 125.807 138.459 124.994C138.697 124.182 139.051 123.443 139.52 122.779C139.988 122.115 140.475 121.646 140.979 121.373L141.201 122.088C140.631 122.525 140.162 123.193 139.795 124.092C139.432 124.99 139.232 125.996 139.197 127.109L139.191 127.607C139.191 129.115 139.467 130.424 140.018 131.533C140.35 132.197 140.744 132.717 141.201 133.092L140.979 133.754C140.459 133.465 139.963 132.98 139.49 132.301C138.568 130.973 138.107 129.385 138.107 127.537ZM144.752 127.596C144.752 128.467 144.637 129.303 144.406 130.104C144.18 130.9 143.83 131.637 143.357 132.312C142.889 132.988 142.396 133.469 141.881 133.754L141.652 133.092C142.254 132.631 142.736 131.916 143.1 130.947C143.467 129.975 143.654 128.896 143.662 127.713V127.525C143.662 126.705 143.576 125.943 143.404 125.24C143.232 124.533 142.992 123.9 142.684 123.342C142.379 122.783 142.035 122.348 141.652 122.035L141.881 121.373C142.396 121.658 142.887 122.135 143.352 122.803C143.82 123.471 144.17 124.207 144.4 125.012C144.635 125.816 144.752 126.678 144.752 127.596Z" fill="black"/>
</svg>
