<svg width="100%" height="100%" viewBox="0 0 457 980" fill="none" xmlns="http://www.w3.org/2000/svg">
<rect x="88" y="766" width="165" height="60" fill="#219653"/>
<path d="M150.998 799H149.914V790H150.998V799ZM152.451 795.771C152.451 795.15 152.572 794.592 152.814 794.096C153.061 793.6 153.4 793.217 153.834 792.947C154.271 792.678 154.77 792.543 155.328 792.543C156.191 792.543 156.889 792.842 157.42 793.439C157.955 794.037 158.223 794.832 158.223 795.824V795.9C158.223 796.518 158.104 797.072 157.865 797.564C157.631 798.053 157.293 798.434 156.852 798.707C156.414 798.98 155.91 799.117 155.34 799.117C154.48 799.117 153.783 798.818 153.248 798.221C152.717 797.623 152.451 796.832 152.451 795.848V795.771ZM153.541 795.9C153.541 796.604 153.703 797.168 154.027 797.594C154.355 798.02 154.793 798.232 155.34 798.232C155.891 798.232 156.328 798.018 156.652 797.588C156.977 797.154 157.139 796.549 157.139 795.771C157.139 795.076 156.973 794.514 156.641 794.084C156.312 793.65 155.875 793.434 155.328 793.434C154.793 793.434 154.361 793.646 154.033 794.072C153.705 794.498 153.541 795.107 153.541 795.9ZM159.324 795.777C159.324 794.789 159.553 794.004 160.01 793.422C160.467 792.836 161.072 792.543 161.826 792.543C162.6 792.543 163.203 792.816 163.637 793.363L163.689 792.66H164.68V798.848C164.68 799.668 164.436 800.314 163.947 800.787C163.463 801.26 162.811 801.496 161.99 801.496C161.533 801.496 161.086 801.398 160.648 801.203C160.211 801.008 159.877 800.74 159.646 800.4L160.209 799.75C160.674 800.324 161.242 800.611 161.914 800.611C162.441 800.611 162.852 800.463 163.145 800.166C163.441 799.869 163.59 799.451 163.59 798.912V798.367C163.156 798.867 162.564 799.117 161.814 799.117C161.072 799.117 160.471 798.818 160.01 798.221C159.553 797.623 159.324 796.809 159.324 795.777ZM160.414 795.9C160.414 796.615 160.561 797.178 160.854 797.588C161.146 797.994 161.557 798.197 162.084 798.197C162.768 798.197 163.27 797.887 163.59 797.266V794.371C163.258 793.766 162.76 793.463 162.096 793.463C161.568 793.463 161.156 793.668 160.859 794.078C160.562 794.488 160.414 795.096 160.414 795.9ZM166.062 795.777C166.062 794.789 166.291 794.004 166.748 793.422C167.205 792.836 167.811 792.543 168.564 792.543C169.338 792.543 169.941 792.816 170.375 793.363L170.428 792.66H171.418V798.848C171.418 799.668 171.174 800.314 170.686 800.787C170.201 801.26 169.549 801.496 168.729 801.496C168.271 801.496 167.824 801.398 167.387 801.203C166.949 801.008 166.615 800.74 166.385 800.4L166.947 799.75C167.412 800.324 167.98 800.611 168.652 800.611C169.18 800.611 169.59 800.463 169.883 800.166C170.18 799.869 170.328 799.451 170.328 798.912V798.367C169.895 798.867 169.303 799.117 168.553 799.117C167.811 799.117 167.209 798.818 166.748 798.221C166.291 797.623 166.062 796.809 166.062 795.777ZM167.152 795.9C167.152 796.615 167.299 797.178 167.592 797.588C167.885 797.994 168.295 798.197 168.822 798.197C169.506 798.197 170.008 797.887 170.328 797.266V794.371C169.996 793.766 169.498 793.463 168.834 793.463C168.307 793.463 167.895 793.668 167.598 794.078C167.301 794.488 167.152 795.096 167.152 795.9ZM175.689 799.117C174.83 799.117 174.131 798.836 173.592 798.273C173.053 797.707 172.783 796.951 172.783 796.006V795.807C172.783 795.178 172.902 794.617 173.141 794.125C173.383 793.629 173.719 793.242 174.148 792.965C174.582 792.684 175.051 792.543 175.555 792.543C176.379 792.543 177.02 792.814 177.477 793.357C177.934 793.9 178.162 794.678 178.162 795.689V796.141H173.867C173.883 796.766 174.064 797.271 174.412 797.658C174.764 798.041 175.209 798.232 175.748 798.232C176.131 798.232 176.455 798.154 176.721 797.998C176.986 797.842 177.219 797.635 177.418 797.377L178.08 797.893C177.549 798.709 176.752 799.117 175.689 799.117ZM175.555 793.434C175.117 793.434 174.75 793.594 174.453 793.914C174.156 794.23 173.973 794.676 173.902 795.25H177.078V795.168C177.047 794.617 176.898 794.191 176.633 793.891C176.367 793.586 176.008 793.434 175.555 793.434ZM182.486 793.633C182.322 793.605 182.145 793.592 181.953 793.592C181.242 793.592 180.76 793.895 180.506 794.5V799H179.422V792.66H180.477L180.494 793.393C180.85 792.826 181.354 792.543 182.006 792.543C182.217 792.543 182.377 792.57 182.486 792.625V793.633ZM183.447 795.537C183.447 794.654 183.564 793.807 183.799 792.994C184.037 792.182 184.391 791.443 184.859 790.779C185.328 790.115 185.814 789.646 186.318 789.373L186.541 790.088C185.971 790.525 185.502 791.193 185.135 792.092C184.771 792.99 184.572 793.996 184.537 795.109L184.531 795.607C184.531 797.115 184.807 798.424 185.357 799.533C185.689 800.197 186.084 800.717 186.541 801.092L186.318 801.754C185.799 801.465 185.303 800.98 184.83 800.301C183.908 798.973 183.447 797.385 183.447 795.537ZM190.092 795.596C190.092 796.467 189.977 797.303 189.746 798.104C189.52 798.9 189.17 799.637 188.697 800.312C188.229 800.988 187.736 801.469 187.221 801.754L186.992 801.092C187.594 800.631 188.076 799.916 188.439 798.947C188.807 797.975 188.994 796.896 189.002 795.713V795.525C189.002 794.705 188.916 793.943 188.744 793.24C188.572 792.533 188.332 791.9 188.023 791.342C187.719 790.783 187.375 790.348 186.992 790.035L187.221 789.373C187.736 789.658 188.227 790.135 188.691 790.803C189.16 791.471 189.51 792.207 189.74 793.012C189.975 793.816 190.092 794.678 190.092 795.596Z" fill="black"/>
<ellipse cx="171" cy="46" rx="170" ry="46" fill="#EB5757"/>
<rect x="61" y="154" width="230" height="68" fill="#219653"/>
<path d="M170.646 154.354C170.842 154.549 171.158 154.549 171.354 154.354L174.536 151.172C174.731 150.976 174.731 150.66 174.536 150.464C174.34 150.269 174.024 150.269 173.828 150.464L171 153.293L168.172 150.464C167.976 150.269 167.66 150.269 167.464 150.464C167.269 150.66 167.269 150.976 167.464 151.172L170.646 154.354ZM170.5 92L170.5 154L171.5 154L171.5 92L170.5 92Z" fill="black"/>
<path d="M170.646 284.354C170.842 284.549 171.158 284.549 171.354 284.354L174.536 281.172C174.731 280.976 174.731 280.66 174.536 280.464C174.34 280.269 174.024 280.269 173.828 280.464L171 283.293L168.172 280.464C167.976 280.269 167.66 280.269 167.464 280.464C167.269 280.66 167.269 280.976 167.464 281.172L170.646 284.354ZM170.5 222L170.5 284L171.5 284L171.5 222L170.5 222Z" fill="black"/>
<path d="M170.646 460.354C170.842 460.549 171.158 460.549 171.354 460.354L174.536 457.172C174.731 456.976 174.731 456.66 174.536 456.464C174.34 456.269 174.024 456.269 173.828 456.464L171 459.293L168.172 456.464C167.976 456.269 167.66 456.269 167.464 456.464C167.269 456.66 167.269 456.976 167.464 457.172L170.646 460.354ZM170.5 398L170.5 460L171.5 460L171.5 398L170.5 398Z" fill="black"/>
<path d="M131.84 43.6602L131.869 44.3633C132.334 43.8164 132.961 43.543 133.75 43.543C134.637 43.543 135.24 43.8828 135.561 44.5625C135.771 44.2578 136.045 44.0117 136.381 43.8242C136.721 43.6367 137.121 43.543 137.582 43.543C138.973 43.543 139.68 44.2793 139.703 45.752V50H138.619V45.8164C138.619 45.3633 138.516 45.0254 138.309 44.8027C138.102 44.5762 137.754 44.4629 137.266 44.4629C136.863 44.4629 136.529 44.584 136.264 44.8262C135.998 45.0645 135.844 45.3867 135.801 45.793V50H134.711V45.8457C134.711 44.9238 134.26 44.4629 133.357 44.4629C132.646 44.4629 132.16 44.7656 131.898 45.3711V50H130.814V43.6602H131.84ZM145.258 50C145.195 49.875 145.145 49.6523 145.105 49.332C144.602 49.8555 144 50.1172 143.301 50.1172C142.676 50.1172 142.162 49.9414 141.76 49.5898C141.361 49.2344 141.162 48.7852 141.162 48.2422C141.162 47.582 141.412 47.0703 141.912 46.707C142.416 46.3398 143.123 46.1562 144.033 46.1562H145.088V45.6582C145.088 45.2793 144.975 44.9785 144.748 44.7559C144.521 44.5293 144.188 44.416 143.746 44.416C143.359 44.416 143.035 44.5137 142.773 44.709C142.512 44.9043 142.381 45.1406 142.381 45.418H141.291C141.291 45.1016 141.402 44.7969 141.625 44.5039C141.852 44.207 142.156 43.9727 142.539 43.8008C142.926 43.6289 143.35 43.543 143.811 43.543C144.541 43.543 145.113 43.7266 145.527 44.0938C145.941 44.457 146.156 44.959 146.172 45.5996V48.5176C146.172 49.0996 146.246 49.5625 146.395 49.9062V50H145.258ZM143.459 49.1738C143.799 49.1738 144.121 49.0859 144.426 48.9102C144.73 48.7344 144.951 48.5059 145.088 48.2246V46.9238H144.238C142.91 46.9238 142.246 47.3125 142.246 48.0898C142.246 48.4297 142.359 48.6953 142.586 48.8867C142.812 49.0781 143.104 49.1738 143.459 49.1738ZM148.896 43.6602L148.932 44.457C149.416 43.8477 150.049 43.543 150.83 43.543C152.17 43.543 152.846 44.2988 152.857 45.8105V50H151.773V45.8047C151.77 45.3477 151.664 45.0098 151.457 44.791C151.254 44.5723 150.936 44.4629 150.502 44.4629C150.15 44.4629 149.842 44.5566 149.576 44.7441C149.311 44.9316 149.104 45.1777 148.955 45.4824V50H147.871V43.6602H148.896ZM158.406 50C158.344 49.875 158.293 49.6523 158.254 49.332C157.75 49.8555 157.148 50.1172 156.449 50.1172C155.824 50.1172 155.311 49.9414 154.908 49.5898C154.51 49.2344 154.311 48.7852 154.311 48.2422C154.311 47.582 154.561 47.0703 155.061 46.707C155.564 46.3398 156.271 46.1562 157.182 46.1562H158.236V45.6582C158.236 45.2793 158.123 44.9785 157.896 44.7559C157.67 44.5293 157.336 44.416 156.895 44.416C156.508 44.416 156.184 44.5137 155.922 44.709C155.66 44.9043 155.529 45.1406 155.529 45.418H154.439C154.439 45.1016 154.551 44.7969 154.773 44.5039C155 44.207 155.305 43.9727 155.688 43.8008C156.074 43.6289 156.498 43.543 156.959 43.543C157.689 43.543 158.262 43.7266 158.676 44.0938C159.09 44.457 159.305 44.959 159.32 45.5996V48.5176C159.32 49.0996 159.395 49.5625 159.543 49.9062V50H158.406ZM156.607 49.1738C156.947 49.1738 157.27 49.0859 157.574 48.9102C157.879 48.7344 158.1 48.5059 158.236 48.2246V46.9238H157.387C156.059 46.9238 155.395 47.3125 155.395 48.0898C155.395 48.4297 155.508 48.6953 155.734 48.8867C155.961 49.0781 156.252 49.1738 156.607 49.1738ZM160.762 46.7773C160.762 45.7891 160.99 45.0039 161.447 44.4219C161.904 43.8359 162.51 43.543 163.264 43.543C164.037 43.543 164.641 43.8164 165.074 44.3633L165.127 43.6602H166.117V49.8477C166.117 50.668 165.873 51.3145 165.385 51.7871C164.9 52.2598 164.248 52.4961 163.428 52.4961C162.971 52.4961 162.523 52.3984 162.086 52.2031C161.648 52.0078 161.314 51.7402 161.084 51.4004L161.646 50.75C162.111 51.3242 162.68 51.6113 163.352 51.6113C163.879 51.6113 164.289 51.4629 164.582 51.166C164.879 50.8691 165.027 50.4512 165.027 49.9121V49.3672C164.594 49.8672 164.002 50.1172 163.252 50.1172C162.51 50.1172 161.908 49.8184 161.447 49.2207C160.99 48.623 160.762 47.8086 160.762 46.7773ZM161.852 46.9004C161.852 47.6152 161.998 48.1777 162.291 48.5879C162.584 48.9941 162.994 49.1973 163.521 49.1973C164.205 49.1973 164.707 48.8867 165.027 48.2656V45.3711C164.695 44.7656 164.197 44.4629 163.533 44.4629C163.006 44.4629 162.594 44.668 162.297 45.0781C162 45.4883 161.852 46.0957 161.852 46.9004ZM170.389 50.1172C169.529 50.1172 168.83 49.8359 168.291 49.2734C167.752 48.707 167.482 47.9512 167.482 47.0059V46.8066C167.482 46.1777 167.602 45.6172 167.84 45.125C168.082 44.6289 168.418 44.2422 168.848 43.9648C169.281 43.6836 169.75 43.543 170.254 43.543C171.078 43.543 171.719 43.8145 172.176 44.3574C172.633 44.9004 172.861 45.6777 172.861 46.6895V47.1406H168.566C168.582 47.7656 168.764 48.2715 169.111 48.6582C169.463 49.041 169.908 49.2324 170.447 49.2324C170.83 49.2324 171.154 49.1543 171.42 48.998C171.686 48.8418 171.918 48.6348 172.117 48.377L172.779 48.8926C172.248 49.709 171.451 50.1172 170.389 50.1172ZM170.254 44.4336C169.816 44.4336 169.449 44.5938 169.152 44.9141C168.855 45.2305 168.672 45.6758 168.602 46.25H171.777V46.168C171.746 45.6172 171.598 45.1914 171.332 44.8906C171.066 44.5859 170.707 44.4336 170.254 44.4336ZM178.691 50.8848H173.324V50H178.691V50.8848ZM179.271 46.7773C179.271 45.8047 179.502 45.0234 179.963 44.4336C180.424 43.8398 181.027 43.543 181.773 43.543C182.516 43.543 183.104 43.7969 183.537 44.3047V41H184.621V50H183.625L183.572 49.3203C183.139 49.8516 182.535 50.1172 181.762 50.1172C181.027 50.1172 180.428 49.8164 179.963 49.2148C179.502 48.6133 179.271 47.8281 179.271 46.8594V46.7773ZM180.355 46.9004C180.355 47.6191 180.504 48.1816 180.801 48.5879C181.098 48.9941 181.508 49.1973 182.031 49.1973C182.719 49.1973 183.221 48.8887 183.537 48.2715V45.3594C183.213 44.7617 182.715 44.4629 182.043 44.4629C181.512 44.4629 181.098 44.668 180.801 45.0781C180.504 45.4883 180.355 46.0957 180.355 46.9004ZM190.223 50C190.16 49.875 190.109 49.6523 190.07 49.332C189.566 49.8555 188.965 50.1172 188.266 50.1172C187.641 50.1172 187.127 49.9414 186.725 49.5898C186.326 49.2344 186.127 48.7852 186.127 48.2422C186.127 47.582 186.377 47.0703 186.877 46.707C187.381 46.3398 188.088 46.1562 188.998 46.1562H190.053V45.6582C190.053 45.2793 189.939 44.9785 189.713 44.7559C189.486 44.5293 189.152 44.416 188.711 44.416C188.324 44.416 188 44.5137 187.738 44.709C187.477 44.9043 187.346 45.1406 187.346 45.418H186.256C186.256 45.1016 186.367 44.7969 186.59 44.5039C186.816 44.207 187.121 43.9727 187.504 43.8008C187.891 43.6289 188.314 43.543 188.775 43.543C189.506 43.543 190.078 43.7266 190.492 44.0938C190.906 44.457 191.121 44.959 191.137 45.5996V48.5176C191.137 49.0996 191.211 49.5625 191.359 49.9062V50H190.223ZM188.424 49.1738C188.764 49.1738 189.086 49.0859 189.391 48.9102C189.695 48.7344 189.916 48.5059 190.053 48.2246V46.9238H189.203C187.875 46.9238 187.211 47.3125 187.211 48.0898C187.211 48.4297 187.324 48.6953 187.551 48.8867C187.777 49.0781 188.068 49.1738 188.424 49.1738ZM194.307 42.125V43.6602H195.49V44.498H194.307V48.4297C194.307 48.6836 194.359 48.875 194.465 49.0039C194.57 49.1289 194.75 49.1914 195.004 49.1914C195.129 49.1914 195.301 49.168 195.52 49.1211V50C195.234 50.0781 194.957 50.1172 194.688 50.1172C194.203 50.1172 193.838 49.9707 193.592 49.6777C193.346 49.3848 193.223 48.9688 193.223 48.4297V44.498H192.068V43.6602H193.223V42.125H194.307ZM200.676 50C200.613 49.875 200.562 49.6523 200.523 49.332C200.02 49.8555 199.418 50.1172 198.719 50.1172C198.094 50.1172 197.58 49.9414 197.178 49.5898C196.779 49.2344 196.58 48.7852 196.58 48.2422C196.58 47.582 196.83 47.0703 197.33 46.707C197.834 46.3398 198.541 46.1562 199.451 46.1562H200.506V45.6582C200.506 45.2793 200.393 44.9785 200.166 44.7559C199.939 44.5293 199.605 44.416 199.164 44.416C198.777 44.416 198.453 44.5137 198.191 44.709C197.93 44.9043 197.799 45.1406 197.799 45.418H196.709C196.709 45.1016 196.82 44.7969 197.043 44.5039C197.27 44.207 197.574 43.9727 197.957 43.8008C198.344 43.6289 198.768 43.543 199.229 43.543C199.959 43.543 200.531 43.7266 200.945 44.0938C201.359 44.457 201.574 44.959 201.59 45.5996V48.5176C201.59 49.0996 201.664 49.5625 201.812 49.9062V50H200.676ZM198.877 49.1738C199.217 49.1738 199.539 49.0859 199.844 48.9102C200.148 48.7344 200.369 48.5059 200.506 48.2246V46.9238H199.656C198.328 46.9238 197.664 47.3125 197.664 48.0898C197.664 48.4297 197.777 48.6953 198.004 48.8867C198.23 49.0781 198.521 49.1738 198.877 49.1738ZM203.248 46.5371C203.248 45.6543 203.365 44.8066 203.6 43.9941C203.838 43.1816 204.191 42.4434 204.66 41.7793C205.129 41.1152 205.615 40.6465 206.119 40.373L206.342 41.0879C205.771 41.5254 205.303 42.1934 204.936 43.0918C204.572 43.9902 204.373 44.9961 204.338 46.1094L204.332 46.6074C204.332 48.1152 204.607 49.4238 205.158 50.5332C205.49 51.1973 205.885 51.7168 206.342 52.0918L206.119 52.7539C205.6 52.4648 205.104 51.9805 204.631 51.3008C203.709 49.9727 203.248 48.3848 203.248 46.5371ZM209.893 46.5957C209.893 47.4668 209.777 48.3027 209.547 49.1035C209.32 49.9004 208.971 50.6367 208.498 51.3125C208.029 51.9883 207.537 52.4688 207.021 52.7539L206.793 52.0918C207.395 51.6309 207.877 50.916 208.24 49.9473C208.607 48.9746 208.795 47.8965 208.803 46.7129V46.5254C208.803 45.7051 208.717 44.9434 208.545 44.2402C208.373 43.5332 208.133 42.9004 207.824 42.3418C207.52 41.7832 207.176 41.3477 206.793 41.0352L207.021 40.373C207.537 40.6582 208.027 41.1348 208.492 41.8027C208.961 42.4707 209.311 43.207 209.541 44.0117C209.775 44.8164 209.893 45.6777 209.893 46.5957Z" fill="black"/>
<path d="M138.562 184.777C138.562 183.789 138.791 183.004 139.248 182.422C139.705 181.836 140.311 181.543 141.064 181.543C141.838 181.543 142.441 181.816 142.875 182.363L142.928 181.66H143.918V187.848C143.918 188.668 143.674 189.314 143.186 189.787C142.701 190.26 142.049 190.496 141.229 190.496C140.771 190.496 140.324 190.398 139.887 190.203C139.449 190.008 139.115 189.74 138.885 189.4L139.447 188.75C139.912 189.324 140.48 189.611 141.152 189.611C141.68 189.611 142.09 189.463 142.383 189.166C142.68 188.869 142.828 188.451 142.828 187.912V187.367C142.395 187.867 141.803 188.117 141.053 188.117C140.311 188.117 139.709 187.818 139.248 187.221C138.791 186.623 138.562 185.809 138.562 184.777ZM139.652 184.9C139.652 185.615 139.799 186.178 140.092 186.588C140.385 186.994 140.795 187.197 141.322 187.197C142.006 187.197 142.508 186.887 142.828 186.266V183.371C142.496 182.766 141.998 182.463 141.334 182.463C140.807 182.463 140.395 182.668 140.098 183.078C139.801 183.488 139.652 184.096 139.652 184.9ZM148.189 188.117C147.33 188.117 146.631 187.836 146.092 187.273C145.553 186.707 145.283 185.951 145.283 185.006V184.807C145.283 184.178 145.402 183.617 145.641 183.125C145.883 182.629 146.219 182.242 146.648 181.965C147.082 181.684 147.551 181.543 148.055 181.543C148.879 181.543 149.52 181.814 149.977 182.357C150.434 182.9 150.662 183.678 150.662 184.689V185.141H146.367C146.383 185.766 146.564 186.271 146.912 186.658C147.264 187.041 147.709 187.232 148.248 187.232C148.631 187.232 148.955 187.154 149.221 186.998C149.486 186.842 149.719 186.635 149.918 186.377L150.58 186.893C150.049 187.709 149.252 188.117 148.189 188.117ZM148.055 182.434C147.617 182.434 147.25 182.594 146.953 182.914C146.656 183.23 146.473 183.676 146.402 184.25H149.578V184.168C149.547 183.617 149.398 183.191 149.133 182.891C148.867 182.586 148.508 182.434 148.055 182.434ZM153.393 180.125V181.66H154.576V182.498H153.393V186.43C153.393 186.684 153.445 186.875 153.551 187.004C153.656 187.129 153.836 187.191 154.09 187.191C154.215 187.191 154.387 187.168 154.605 187.121V188C154.32 188.078 154.043 188.117 153.773 188.117C153.289 188.117 152.924 187.971 152.678 187.678C152.432 187.385 152.309 186.969 152.309 186.43V182.498H151.154V181.66H152.309V180.125H153.393ZM160.418 188.885H155.051V188H160.418V188.885ZM162.287 181.66L162.322 182.457C162.807 181.848 163.439 181.543 164.221 181.543C165.561 181.543 166.236 182.299 166.248 183.811V188H165.164V183.805C165.16 183.348 165.055 183.01 164.848 182.791C164.645 182.572 164.326 182.463 163.893 182.463C163.541 182.463 163.232 182.557 162.967 182.744C162.701 182.932 162.494 183.178 162.346 183.482V188H161.262V181.66H162.287ZM167.596 184.771C167.596 184.15 167.717 183.592 167.959 183.096C168.205 182.6 168.545 182.217 168.979 181.947C169.416 181.678 169.914 181.543 170.473 181.543C171.336 181.543 172.033 181.842 172.564 182.439C173.1 183.037 173.367 183.832 173.367 184.824V184.9C173.367 185.518 173.248 186.072 173.01 186.564C172.775 187.053 172.438 187.434 171.996 187.707C171.559 187.98 171.055 188.117 170.484 188.117C169.625 188.117 168.928 187.818 168.393 187.221C167.861 186.623 167.596 185.832 167.596 184.848V184.771ZM168.686 184.9C168.686 185.604 168.848 186.168 169.172 186.594C169.5 187.02 169.938 187.232 170.484 187.232C171.035 187.232 171.473 187.018 171.797 186.588C172.121 186.154 172.283 185.549 172.283 184.771C172.283 184.076 172.117 183.514 171.785 183.084C171.457 182.65 171.02 182.434 170.473 182.434C169.938 182.434 169.506 182.646 169.178 183.072C168.85 183.498 168.686 184.107 168.686 184.9ZM174.463 184.777C174.463 183.805 174.693 183.023 175.154 182.434C175.615 181.84 176.219 181.543 176.965 181.543C177.707 181.543 178.295 181.797 178.729 182.305V179H179.812V188H178.816L178.764 187.32C178.33 187.852 177.727 188.117 176.953 188.117C176.219 188.117 175.619 187.816 175.154 187.215C174.693 186.613 174.463 185.828 174.463 184.859V184.777ZM175.547 184.9C175.547 185.619 175.695 186.182 175.992 186.588C176.289 186.994 176.699 187.197 177.223 187.197C177.91 187.197 178.412 186.889 178.729 186.271V183.359C178.404 182.762 177.906 182.463 177.234 182.463C176.703 182.463 176.289 182.668 175.992 183.078C175.695 183.488 175.547 184.096 175.547 184.9ZM184.131 188.117C183.271 188.117 182.572 187.836 182.033 187.273C181.494 186.707 181.225 185.951 181.225 185.006V184.807C181.225 184.178 181.344 183.617 181.582 183.125C181.824 182.629 182.16 182.242 182.59 181.965C183.023 181.684 183.492 181.543 183.996 181.543C184.82 181.543 185.461 181.814 185.918 182.357C186.375 182.9 186.604 183.678 186.604 184.689V185.141H182.309C182.324 185.766 182.506 186.271 182.854 186.658C183.205 187.041 183.65 187.232 184.189 187.232C184.572 187.232 184.896 187.154 185.162 186.998C185.428 186.842 185.66 186.635 185.859 186.377L186.521 186.893C185.99 187.709 185.193 188.117 184.131 188.117ZM183.996 182.434C183.559 182.434 183.191 182.594 182.895 182.914C182.598 183.23 182.414 183.676 182.344 184.25H185.52V184.168C185.488 183.617 185.34 183.191 185.074 182.891C184.809 182.586 184.449 182.434 183.996 182.434ZM187.822 184.537C187.822 183.654 187.939 182.807 188.174 181.994C188.412 181.182 188.766 180.443 189.234 179.779C189.703 179.115 190.189 178.646 190.693 178.373L190.916 179.088C190.346 179.525 189.877 180.193 189.51 181.092C189.146 181.99 188.947 182.996 188.912 184.109L188.906 184.607C188.906 186.115 189.182 187.424 189.732 188.533C190.064 189.197 190.459 189.717 190.916 190.092L190.693 190.754C190.174 190.465 189.678 189.98 189.205 189.301C188.283 187.973 187.822 186.385 187.822 184.537ZM194.467 184.596C194.467 185.467 194.352 186.303 194.121 187.104C193.895 187.9 193.545 188.637 193.072 189.312C192.604 189.988 192.111 190.469 191.596 190.754L191.367 190.092C191.969 189.631 192.451 188.916 192.814 187.947C193.182 186.975 193.369 185.896 193.377 184.713V184.525C193.377 183.705 193.291 182.943 193.119 182.24C192.947 181.533 192.707 180.9 192.398 180.342C192.094 179.783 191.75 179.348 191.367 179.035L191.596 178.373C192.111 178.658 192.602 179.135 193.066 179.803C193.535 180.471 193.885 181.207 194.115 182.012C194.35 182.816 194.467 183.678 194.467 184.596ZM138.533 198.771C138.533 198.15 138.654 197.592 138.896 197.096C139.143 196.6 139.482 196.217 139.916 195.947C140.354 195.678 140.852 195.543 141.41 195.543C142.273 195.543 142.971 195.842 143.502 196.439C144.037 197.037 144.305 197.832 144.305 198.824V198.9C144.305 199.518 144.186 200.072 143.947 200.564C143.713 201.053 143.375 201.434 142.934 201.707C142.496 201.98 141.992 202.117 141.422 202.117C140.562 202.117 139.865 201.818 139.33 201.221C138.799 200.623 138.533 199.832 138.533 198.848V198.771ZM139.623 198.9C139.623 199.604 139.785 200.168 140.109 200.594C140.438 201.02 140.875 201.232 141.422 201.232C141.973 201.232 142.41 201.018 142.734 200.588C143.059 200.154 143.221 199.549 143.221 198.771C143.221 198.076 143.055 197.514 142.723 197.084C142.395 196.65 141.957 196.434 141.41 196.434C140.875 196.434 140.443 196.646 140.115 197.072C139.787 197.498 139.623 198.107 139.623 198.9ZM147.135 194.125V195.66H148.318V196.498H147.135V200.43C147.135 200.684 147.188 200.875 147.293 201.004C147.398 201.129 147.578 201.191 147.832 201.191C147.957 201.191 148.129 201.168 148.348 201.121V202C148.062 202.078 147.785 202.117 147.516 202.117C147.031 202.117 146.666 201.971 146.42 201.678C146.174 201.385 146.051 200.969 146.051 200.43V196.498H144.896V195.66H146.051V194.125H147.135ZM151.061 194.125V195.66H152.244V196.498H151.061V200.43C151.061 200.684 151.113 200.875 151.219 201.004C151.324 201.129 151.504 201.191 151.758 201.191C151.883 201.191 152.055 201.168 152.273 201.121V202C151.988 202.078 151.711 202.117 151.441 202.117C150.957 202.117 150.592 201.971 150.346 201.678C150.1 201.385 149.977 200.969 149.977 200.43V196.498H148.822V195.66H149.977V194.125H151.061ZM154.693 202H153.609V195.66H154.693V202ZM153.521 193.979C153.521 193.803 153.574 193.654 153.68 193.533C153.789 193.412 153.949 193.352 154.16 193.352C154.371 193.352 154.531 193.412 154.641 193.533C154.75 193.654 154.805 193.803 154.805 193.979C154.805 194.154 154.75 194.301 154.641 194.418C154.531 194.535 154.371 194.594 154.16 194.594C153.949 194.594 153.789 194.535 153.68 194.418C153.574 194.301 153.521 194.154 153.521 193.979ZM159.064 202.117C158.205 202.117 157.506 201.836 156.967 201.273C156.428 200.707 156.158 199.951 156.158 199.006V198.807C156.158 198.178 156.277 197.617 156.516 197.125C156.758 196.629 157.094 196.242 157.523 195.965C157.957 195.684 158.426 195.543 158.93 195.543C159.754 195.543 160.395 195.814 160.852 196.357C161.309 196.9 161.537 197.678 161.537 198.689V199.141H157.242C157.258 199.766 157.439 200.271 157.787 200.658C158.139 201.041 158.584 201.232 159.123 201.232C159.506 201.232 159.83 201.154 160.096 200.998C160.361 200.842 160.594 200.635 160.793 200.377L161.455 200.893C160.924 201.709 160.127 202.117 159.064 202.117ZM158.93 196.434C158.492 196.434 158.125 196.594 157.828 196.914C157.531 197.23 157.348 197.676 157.277 198.25H160.453V198.168C160.422 197.617 160.273 197.191 160.008 196.891C159.742 196.586 159.383 196.434 158.93 196.434ZM163.822 195.66L163.857 196.457C164.342 195.848 164.975 195.543 165.756 195.543C167.096 195.543 167.771 196.299 167.783 197.811V202H166.699V197.805C166.695 197.348 166.59 197.01 166.383 196.791C166.18 196.572 165.861 196.463 165.428 196.463C165.076 196.463 164.768 196.557 164.502 196.744C164.236 196.932 164.029 197.178 163.881 197.482V202H162.797V195.66H163.822ZM170.596 202H169.512V195.66H170.596V202ZM169.424 193.979C169.424 193.803 169.477 193.654 169.582 193.533C169.691 193.412 169.852 193.352 170.062 193.352C170.273 193.352 170.434 193.412 170.543 193.533C170.652 193.654 170.707 193.803 170.707 193.979C170.707 194.154 170.652 194.301 170.543 194.418C170.434 194.535 170.273 194.594 170.062 194.594C169.852 194.594 169.691 194.535 169.582 194.418C169.477 194.301 169.424 194.154 169.424 193.979ZM175.049 198.777C175.049 197.805 175.279 197.023 175.74 196.434C176.201 195.84 176.805 195.543 177.551 195.543C178.293 195.543 178.881 195.797 179.314 196.305V193H180.398V202H179.402L179.35 201.32C178.916 201.852 178.312 202.117 177.539 202.117C176.805 202.117 176.205 201.816 175.74 201.215C175.279 200.613 175.049 199.828 175.049 198.859V198.777ZM176.133 198.9C176.133 199.619 176.281 200.182 176.578 200.588C176.875 200.994 177.285 201.197 177.809 201.197C178.496 201.197 178.998 200.889 179.314 200.271V197.359C178.99 196.762 178.492 196.463 177.82 196.463C177.289 196.463 176.875 196.668 176.578 197.078C176.281 197.488 176.133 198.096 176.133 198.9ZM186 202C185.938 201.875 185.887 201.652 185.848 201.332C185.344 201.855 184.742 202.117 184.043 202.117C183.418 202.117 182.904 201.941 182.502 201.59C182.104 201.234 181.904 200.785 181.904 200.242C181.904 199.582 182.154 199.07 182.654 198.707C183.158 198.34 183.865 198.156 184.775 198.156H185.83V197.658C185.83 197.279 185.717 196.979 185.49 196.756C185.264 196.529 184.93 196.416 184.488 196.416C184.102 196.416 183.777 196.514 183.516 196.709C183.254 196.904 183.123 197.141 183.123 197.418H182.033C182.033 197.102 182.145 196.797 182.367 196.504C182.594 196.207 182.898 195.973 183.281 195.801C183.668 195.629 184.092 195.543 184.553 195.543C185.283 195.543 185.855 195.727 186.27 196.094C186.684 196.457 186.898 196.959 186.914 197.6V200.518C186.914 201.1 186.988 201.562 187.137 201.906V202H186ZM184.201 201.174C184.541 201.174 184.863 201.086 185.168 200.91C185.473 200.734 185.693 200.506 185.83 200.225V198.924H184.98C183.652 198.924 182.988 199.312 182.988 200.09C182.988 200.43 183.102 200.695 183.328 200.887C183.555 201.078 183.846 201.174 184.201 201.174ZM190.084 194.125V195.66H191.268V196.498H190.084V200.43C190.084 200.684 190.137 200.875 190.242 201.004C190.348 201.129 190.527 201.191 190.781 201.191C190.906 201.191 191.078 201.168 191.297 201.121V202C191.012 202.078 190.734 202.117 190.465 202.117C189.98 202.117 189.615 201.971 189.369 201.678C189.123 201.385 189 200.969 189 200.43V196.498H187.846V195.66H189V194.125H190.084ZM193.717 202H192.633V195.66H193.717V202ZM192.545 193.979C192.545 193.803 192.598 193.654 192.703 193.533C192.812 193.412 192.973 193.352 193.184 193.352C193.395 193.352 193.555 193.412 193.664 193.533C193.773 193.654 193.828 193.803 193.828 193.979C193.828 194.154 193.773 194.301 193.664 194.418C193.555 194.535 193.395 194.594 193.184 194.594C192.973 194.594 192.812 194.535 192.703 194.418C192.598 194.301 192.545 194.154 192.545 193.979ZM199.459 195.66L199.494 196.457C199.979 195.848 200.611 195.543 201.393 195.543C202.732 195.543 203.408 196.299 203.42 197.811V202H202.336V197.805C202.332 197.348 202.227 197.01 202.02 196.791C201.816 196.572 201.498 196.463 201.064 196.463C200.713 196.463 200.404 196.557 200.139 196.744C199.873 196.932 199.666 197.178 199.518 197.482V202H198.434V195.66H199.459ZM204.768 198.771C204.768 198.15 204.889 197.592 205.131 197.096C205.377 196.6 205.717 196.217 206.15 195.947C206.588 195.678 207.086 195.543 207.645 195.543C208.508 195.543 209.205 195.842 209.736 196.439C210.271 197.037 210.539 197.832 210.539 198.824V198.9C210.539 199.518 210.42 200.072 210.182 200.564C209.947 201.053 209.609 201.434 209.168 201.707C208.73 201.98 208.227 202.117 207.656 202.117C206.797 202.117 206.1 201.818 205.564 201.221C205.033 200.623 204.768 199.832 204.768 198.848V198.771ZM205.857 198.9C205.857 199.604 206.02 200.168 206.344 200.594C206.672 201.02 207.109 201.232 207.656 201.232C208.207 201.232 208.645 201.018 208.969 200.588C209.293 200.154 209.455 199.549 209.455 198.771C209.455 198.076 209.289 197.514 208.957 197.084C208.629 196.65 208.191 196.434 207.645 196.434C207.109 196.434 206.678 196.646 206.35 197.072C206.021 197.498 205.857 198.107 205.857 198.9ZM211.635 198.777C211.635 197.805 211.865 197.023 212.326 196.434C212.787 195.84 213.391 195.543 214.137 195.543C214.879 195.543 215.467 195.797 215.9 196.305V193H216.984V202H215.988L215.936 201.32C215.502 201.852 214.898 202.117 214.125 202.117C213.391 202.117 212.791 201.816 212.326 201.215C211.865 200.613 211.635 199.828 211.635 198.859V198.777ZM212.719 198.9C212.719 199.619 212.867 200.182 213.164 200.588C213.461 200.994 213.871 201.197 214.395 201.197C215.082 201.197 215.584 200.889 215.9 200.271V197.359C215.576 196.762 215.078 196.463 214.406 196.463C213.875 196.463 213.461 196.668 213.164 197.078C212.867 197.488 212.719 198.096 212.719 198.9ZM218.385 198.771C218.385 198.15 218.506 197.592 218.748 197.096C218.994 196.6 219.334 196.217 219.768 195.947C220.205 195.678 220.703 195.543 221.262 195.543C222.125 195.543 222.822 195.842 223.354 196.439C223.889 197.037 224.156 197.832 224.156 198.824V198.9C224.156 199.518 224.037 200.072 223.799 200.564C223.564 201.053 223.227 201.434 222.785 201.707C222.348 201.98 221.844 202.117 221.273 202.117C220.414 202.117 219.717 201.818 219.182 201.221C218.65 200.623 218.385 199.832 218.385 198.848V198.771ZM219.475 198.9C219.475 199.604 219.637 200.168 219.961 200.594C220.289 201.02 220.727 201.232 221.273 201.232C221.824 201.232 222.262 201.018 222.586 200.588C222.91 200.154 223.072 199.549 223.072 198.771C223.072 198.076 222.906 197.514 222.574 197.084C222.246 196.65 221.809 196.434 221.262 196.434C220.727 196.434 220.295 196.646 219.967 197.072C219.639 197.498 219.475 198.107 219.475 198.9Z" fill="black"/>
<rect x="56" y="460" width="230" height="68" fill="#2F80ED"/>
<path d="M109.84 491.66L109.869 492.363C110.334 491.816 110.961 491.543 111.75 491.543C112.637 491.543 113.24 491.883 113.561 492.562C113.771 492.258 114.045 492.012 114.381 491.824C114.721 491.637 115.121 491.543 115.582 491.543C116.973 491.543 117.68 492.279 117.703 493.752V498H116.619V493.816C116.619 493.363 116.516 493.025 116.309 492.803C116.102 492.576 115.754 492.463 115.266 492.463C114.863 492.463 114.529 492.584 114.264 492.826C113.998 493.064 113.844 493.387 113.801 493.793V498H112.711V493.846C112.711 492.924 112.26 492.463 111.357 492.463C110.646 492.463 110.16 492.766 109.898 493.371V498H108.814V491.66H109.84ZM121.975 498.117C121.115 498.117 120.416 497.836 119.877 497.273C119.338 496.707 119.068 495.951 119.068 495.006V494.807C119.068 494.178 119.188 493.617 119.426 493.125C119.668 492.629 120.004 492.242 120.434 491.965C120.867 491.684 121.336 491.543 121.84 491.543C122.664 491.543 123.305 491.814 123.762 492.357C124.219 492.9 124.447 493.678 124.447 494.689V495.141H120.152C120.168 495.766 120.35 496.271 120.697 496.658C121.049 497.041 121.494 497.232 122.033 497.232C122.416 497.232 122.74 497.154 123.006 496.998C123.271 496.842 123.504 496.635 123.703 496.377L124.365 496.893C123.834 497.709 123.037 498.117 121.975 498.117ZM121.84 492.434C121.402 492.434 121.035 492.594 120.738 492.914C120.441 493.23 120.258 493.676 120.188 494.25H123.363V494.168C123.332 493.617 123.184 493.191 122.918 492.891C122.652 492.586 122.293 492.434 121.84 492.434ZM126.727 491.66L126.756 492.363C127.221 491.816 127.848 491.543 128.637 491.543C129.523 491.543 130.127 491.883 130.447 492.562C130.658 492.258 130.932 492.012 131.268 491.824C131.607 491.637 132.008 491.543 132.469 491.543C133.859 491.543 134.566 492.279 134.59 493.752V498H133.506V493.816C133.506 493.363 133.402 493.025 133.195 492.803C132.988 492.576 132.641 492.463 132.152 492.463C131.75 492.463 131.416 492.584 131.15 492.826C130.885 493.064 130.73 493.387 130.688 493.793V498H129.598V493.846C129.598 492.924 129.146 492.463 128.244 492.463C127.533 492.463 127.047 492.766 126.785 493.371V498H125.701V491.66H126.727ZM135.943 494.771C135.943 494.15 136.064 493.592 136.307 493.096C136.553 492.6 136.893 492.217 137.326 491.947C137.764 491.678 138.262 491.543 138.82 491.543C139.684 491.543 140.381 491.842 140.912 492.439C141.447 493.037 141.715 493.832 141.715 494.824V494.9C141.715 495.518 141.596 496.072 141.357 496.564C141.123 497.053 140.785 497.434 140.344 497.707C139.906 497.98 139.402 498.117 138.832 498.117C137.973 498.117 137.275 497.818 136.74 497.221C136.209 496.623 135.943 495.832 135.943 494.848V494.771ZM137.033 494.9C137.033 495.604 137.195 496.168 137.52 496.594C137.848 497.02 138.285 497.232 138.832 497.232C139.383 497.232 139.82 497.018 140.145 496.588C140.469 496.154 140.631 495.549 140.631 494.771C140.631 494.076 140.465 493.514 140.133 493.084C139.805 492.65 139.367 492.434 138.82 492.434C138.285 492.434 137.854 492.646 137.525 493.072C137.197 493.498 137.033 494.107 137.033 494.9ZM146.139 492.633C145.975 492.605 145.797 492.592 145.605 492.592C144.895 492.592 144.412 492.895 144.158 493.5V498H143.074V491.66H144.129L144.146 492.393C144.502 491.826 145.006 491.543 145.658 491.543C145.869 491.543 146.029 491.57 146.139 491.625V492.633ZM148.318 498H147.234V491.66H148.318V498ZM147.146 489.979C147.146 489.803 147.199 489.654 147.305 489.533C147.414 489.412 147.574 489.352 147.785 489.352C147.996 489.352 148.156 489.412 148.266 489.533C148.375 489.654 148.43 489.803 148.43 489.979C148.43 490.154 148.375 490.301 148.266 490.418C148.156 490.535 147.996 490.594 147.785 490.594C147.574 490.594 147.414 490.535 147.305 490.418C147.199 490.301 147.146 490.154 147.146 489.979ZM151.078 497.115H154.787V498H149.754V497.203L153.252 492.557H149.807V491.66H154.611V492.428L151.078 497.115ZM157.031 497.115H160.74V498H155.707V497.203L159.205 492.557H155.76V491.66H160.564V492.428L157.031 497.115ZM165.879 498C165.816 497.875 165.766 497.652 165.727 497.332C165.223 497.855 164.621 498.117 163.922 498.117C163.297 498.117 162.783 497.941 162.381 497.59C161.982 497.234 161.783 496.785 161.783 496.242C161.783 495.582 162.033 495.07 162.533 494.707C163.037 494.34 163.744 494.156 164.654 494.156H165.709V493.658C165.709 493.279 165.596 492.979 165.369 492.756C165.143 492.529 164.809 492.416 164.367 492.416C163.98 492.416 163.656 492.514 163.395 492.709C163.133 492.904 163.002 493.141 163.002 493.418H161.912C161.912 493.102 162.023 492.797 162.246 492.504C162.473 492.207 162.777 491.973 163.16 491.801C163.547 491.629 163.971 491.543 164.432 491.543C165.162 491.543 165.734 491.727 166.148 492.094C166.562 492.457 166.777 492.959 166.793 493.6V496.518C166.793 497.1 166.867 497.562 167.016 497.906V498H165.879ZM164.08 497.174C164.42 497.174 164.742 497.086 165.047 496.91C165.352 496.734 165.572 496.506 165.709 496.225V494.924H164.859C163.531 494.924 162.867 495.312 162.867 496.09C162.867 496.43 162.98 496.695 163.207 496.887C163.434 497.078 163.725 497.174 164.08 497.174ZM172.646 498H171.562V491.66H172.646V498ZM171.475 489.979C171.475 489.803 171.527 489.654 171.633 489.533C171.742 489.412 171.902 489.352 172.113 489.352C172.324 489.352 172.484 489.412 172.594 489.533C172.703 489.654 172.758 489.803 172.758 489.979C172.758 490.154 172.703 490.301 172.594 490.418C172.484 490.535 172.324 490.594 172.113 490.594C171.902 490.594 171.742 490.535 171.633 490.418C171.527 490.301 171.475 490.154 171.475 489.979ZM174.123 494.777C174.123 493.805 174.354 493.023 174.814 492.434C175.275 491.84 175.879 491.543 176.625 491.543C177.367 491.543 177.955 491.797 178.389 492.305V489H179.473V498H178.477L178.424 497.32C177.99 497.852 177.387 498.117 176.613 498.117C175.879 498.117 175.279 497.816 174.814 497.215C174.354 496.613 174.123 495.828 174.123 494.859V494.777ZM175.207 494.9C175.207 495.619 175.355 496.182 175.652 496.588C175.949 496.994 176.359 497.197 176.883 497.197C177.57 497.197 178.072 496.889 178.389 496.271V493.359C178.064 492.762 177.566 492.463 176.895 492.463C176.363 492.463 175.949 492.668 175.652 493.078C175.355 493.488 175.207 494.096 175.207 494.9ZM186.768 498.117C185.908 498.117 185.209 497.836 184.67 497.273C184.131 496.707 183.861 495.951 183.861 495.006V494.807C183.861 494.178 183.98 493.617 184.219 493.125C184.461 492.629 184.797 492.242 185.227 491.965C185.66 491.684 186.129 491.543 186.633 491.543C187.457 491.543 188.098 491.814 188.555 492.357C189.012 492.9 189.24 493.678 189.24 494.689V495.141H184.945C184.961 495.766 185.143 496.271 185.49 496.658C185.842 497.041 186.287 497.232 186.826 497.232C187.209 497.232 187.533 497.154 187.799 496.998C188.064 496.842 188.297 496.635 188.496 496.377L189.158 496.893C188.627 497.709 187.83 498.117 186.768 498.117ZM186.633 492.434C186.195 492.434 185.828 492.594 185.531 492.914C185.234 493.23 185.051 493.676 184.98 494.25H188.156V494.168C188.125 493.617 187.977 493.191 187.711 492.891C187.445 492.586 187.086 492.434 186.633 492.434ZM194.947 490.125V491.66H196.131V492.498H194.947V496.43C194.947 496.684 195 496.875 195.105 497.004C195.211 497.129 195.391 497.191 195.645 497.191C195.77 497.191 195.941 497.168 196.16 497.121V498C195.875 498.078 195.598 498.117 195.328 498.117C194.844 498.117 194.479 497.971 194.232 497.678C193.986 497.385 193.863 496.969 193.863 496.43V492.498H192.709V491.66H193.863V490.125H194.947ZM198.58 498H197.496V491.66H198.58V498ZM197.408 489.979C197.408 489.803 197.461 489.654 197.566 489.533C197.676 489.412 197.836 489.352 198.047 489.352C198.258 489.352 198.418 489.412 198.527 489.533C198.637 489.654 198.691 489.803 198.691 489.979C198.691 490.154 198.637 490.301 198.527 490.418C198.418 490.535 198.258 490.594 198.047 490.594C197.836 490.594 197.676 490.535 197.566 490.418C197.461 490.301 197.408 490.154 197.408 489.979ZM205.676 494.9C205.676 495.865 205.455 496.643 205.014 497.232C204.572 497.822 203.975 498.117 203.221 498.117C202.451 498.117 201.846 497.873 201.404 497.385V500.438H200.32V491.66H201.311L201.363 492.363C201.805 491.816 202.418 491.543 203.203 491.543C203.965 491.543 204.566 491.83 205.008 492.404C205.453 492.979 205.676 493.777 205.676 494.801V494.9ZM204.592 494.777C204.592 494.062 204.439 493.498 204.135 493.084C203.83 492.67 203.412 492.463 202.881 492.463C202.225 492.463 201.732 492.754 201.404 493.336V496.365C201.729 496.943 202.225 497.232 202.893 497.232C203.412 497.232 203.824 497.027 204.129 496.617C204.438 496.203 204.592 495.59 204.592 494.777ZM206.771 494.771C206.771 494.15 206.893 493.592 207.135 493.096C207.381 492.6 207.721 492.217 208.154 491.947C208.592 491.678 209.09 491.543 209.648 491.543C210.512 491.543 211.209 491.842 211.74 492.439C212.275 493.037 212.543 493.832 212.543 494.824V494.9C212.543 495.518 212.424 496.072 212.186 496.564C211.951 497.053 211.613 497.434 211.172 497.707C210.734 497.98 210.23 498.117 209.66 498.117C208.801 498.117 208.104 497.818 207.568 497.221C207.037 496.623 206.771 495.832 206.771 494.848V494.771ZM207.861 494.9C207.861 495.604 208.023 496.168 208.348 496.594C208.676 497.02 209.113 497.232 209.66 497.232C210.211 497.232 210.648 497.018 210.973 496.588C211.297 496.154 211.459 495.549 211.459 494.771C211.459 494.076 211.293 493.514 210.961 493.084C210.633 492.65 210.195 492.434 209.648 492.434C209.113 492.434 208.682 492.646 208.354 493.072C208.025 493.498 207.861 494.107 207.861 494.9ZM217.904 491.66L217.939 492.457C218.424 491.848 219.057 491.543 219.838 491.543C221.178 491.543 221.854 492.299 221.865 493.811V498H220.781V493.805C220.777 493.348 220.672 493.01 220.465 492.791C220.262 492.572 219.943 492.463 219.51 492.463C219.158 492.463 218.85 492.557 218.584 492.744C218.318 492.932 218.111 493.178 217.963 493.482V498H216.879V491.66H217.904ZM223.213 494.771C223.213 494.15 223.334 493.592 223.576 493.096C223.822 492.6 224.162 492.217 224.596 491.947C225.033 491.678 225.531 491.543 226.09 491.543C226.953 491.543 227.65 491.842 228.182 492.439C228.717 493.037 228.984 493.832 228.984 494.824V494.9C228.984 495.518 228.865 496.072 228.627 496.564C228.393 497.053 228.055 497.434 227.613 497.707C227.176 497.98 226.672 498.117 226.102 498.117C225.242 498.117 224.545 497.818 224.01 497.221C223.479 496.623 223.213 495.832 223.213 494.848V494.771ZM224.303 494.9C224.303 495.604 224.465 496.168 224.789 496.594C225.117 497.02 225.555 497.232 226.102 497.232C226.652 497.232 227.09 497.018 227.414 496.588C227.738 496.154 227.9 495.549 227.9 494.771C227.9 494.076 227.734 493.514 227.402 493.084C227.074 492.65 226.637 492.434 226.09 492.434C225.555 492.434 225.123 492.646 224.795 493.072C224.467 493.498 224.303 494.107 224.303 494.9ZM230.08 494.777C230.08 493.805 230.311 493.023 230.771 492.434C231.232 491.84 231.836 491.543 232.582 491.543C233.324 491.543 233.912 491.797 234.346 492.305V489H235.43V498H234.434L234.381 497.32C233.947 497.852 233.344 498.117 232.57 498.117C231.836 498.117 231.236 497.816 230.771 497.215C230.311 496.613 230.08 495.828 230.08 494.859V494.777ZM231.164 494.9C231.164 495.619 231.312 496.182 231.609 496.588C231.906 496.994 232.316 497.197 232.84 497.197C233.527 497.197 234.029 496.889 234.346 496.271V493.359C234.021 492.762 233.523 492.463 232.852 492.463C232.32 492.463 231.906 492.668 231.609 493.078C231.312 493.488 231.164 494.096 231.164 494.9ZM239.748 498.117C238.889 498.117 238.189 497.836 237.65 497.273C237.111 496.707 236.842 495.951 236.842 495.006V494.807C236.842 494.178 236.961 493.617 237.199 493.125C237.441 492.629 237.777 492.242 238.207 491.965C238.641 491.684 239.109 491.543 239.613 491.543C240.438 491.543 241.078 491.814 241.535 492.357C241.992 492.9 242.221 493.678 242.221 494.689V495.141H237.926C237.941 495.766 238.123 496.271 238.471 496.658C238.822 497.041 239.268 497.232 239.807 497.232C240.189 497.232 240.514 497.154 240.779 496.998C241.045 496.842 241.277 496.635 241.477 496.377L242.139 496.893C241.607 497.709 240.811 498.117 239.748 498.117ZM239.613 492.434C239.176 492.434 238.809 492.594 238.512 492.914C238.215 493.23 238.031 493.676 237.961 494.25H241.137V494.168C241.105 493.617 240.957 493.191 240.691 492.891C240.426 492.586 240.066 492.434 239.613 492.434Z" fill="black"/>
<path d="M170.5 284L250 341L170.5 398L91 341L170.5 284Z" fill="#F2994A"/>
<path d="M104.812 341.057H101.115V344.08H105.41V345H99.9902V336.469H105.352V337.395H101.115V340.137H104.812V341.057ZM106.717 338.871L106.102 338.449C106.465 337.941 106.652 337.406 106.664 336.844V336H107.736V336.762C107.732 337.152 107.635 337.543 107.443 337.934C107.256 338.32 107.014 338.633 106.717 338.871ZM115.711 343.318C115.711 343.025 115.6 342.799 115.377 342.639C115.158 342.475 114.773 342.334 114.223 342.217C113.676 342.1 113.24 341.959 112.916 341.795C112.596 341.631 112.357 341.436 112.201 341.209C112.049 340.982 111.973 340.713 111.973 340.4C111.973 339.881 112.191 339.441 112.629 339.082C113.07 338.723 113.633 338.543 114.316 338.543C115.035 338.543 115.617 338.729 116.062 339.1C116.512 339.471 116.736 339.945 116.736 340.523H115.646C115.646 340.227 115.52 339.971 115.266 339.756C115.016 339.541 114.699 339.434 114.316 339.434C113.922 339.434 113.613 339.52 113.391 339.691C113.168 339.863 113.057 340.088 113.057 340.365C113.057 340.627 113.16 340.824 113.367 340.957C113.574 341.09 113.947 341.217 114.486 341.338C115.029 341.459 115.469 341.604 115.805 341.771C116.141 341.939 116.389 342.143 116.549 342.381C116.713 342.615 116.795 342.902 116.795 343.242C116.795 343.809 116.568 344.264 116.115 344.607C115.662 344.947 115.074 345.117 114.352 345.117C113.844 345.117 113.395 345.027 113.004 344.848C112.613 344.668 112.307 344.418 112.084 344.098C111.865 343.773 111.756 343.424 111.756 343.049H112.84C112.859 343.412 113.004 343.701 113.273 343.916C113.547 344.127 113.906 344.232 114.352 344.232C114.762 344.232 115.09 344.15 115.336 343.986C115.586 343.818 115.711 343.596 115.711 343.318ZM119.678 337.125V338.66H120.861V339.498H119.678V343.43C119.678 343.684 119.73 343.875 119.836 344.004C119.941 344.129 120.121 344.191 120.375 344.191C120.5 344.191 120.672 344.168 120.891 344.121V345C120.605 345.078 120.328 345.117 120.059 345.117C119.574 345.117 119.209 344.971 118.963 344.678C118.717 344.385 118.594 343.969 118.594 343.43V339.498H117.439V338.66H118.594V337.125H119.678ZM126.047 345C125.984 344.875 125.934 344.652 125.895 344.332C125.391 344.855 124.789 345.117 124.09 345.117C123.465 345.117 122.951 344.941 122.549 344.59C122.15 344.234 121.951 343.785 121.951 343.242C121.951 342.582 122.201 342.07 122.701 341.707C123.205 341.34 123.912 341.156 124.822 341.156H125.877V340.658C125.877 340.279 125.764 339.979 125.537 339.756C125.311 339.529 124.977 339.416 124.535 339.416C124.148 339.416 123.824 339.514 123.562 339.709C123.301 339.904 123.17 340.141 123.17 340.418H122.08C122.08 340.102 122.191 339.797 122.414 339.504C122.641 339.207 122.945 338.973 123.328 338.801C123.715 338.629 124.139 338.543 124.6 338.543C125.33 338.543 125.902 338.727 126.316 339.094C126.73 339.457 126.945 339.959 126.961 340.6V343.518C126.961 344.1 127.035 344.562 127.184 344.906V345H126.047ZM124.248 344.174C124.588 344.174 124.91 344.086 125.215 343.91C125.52 343.734 125.74 343.506 125.877 343.225V341.924H125.027C123.699 341.924 123.035 342.312 123.035 343.09C123.035 343.43 123.148 343.695 123.375 343.887C123.602 344.078 123.893 344.174 124.248 344.174ZM130.131 337.125V338.66H131.314V339.498H130.131V343.43C130.131 343.684 130.184 343.875 130.289 344.004C130.395 344.129 130.574 344.191 130.828 344.191C130.953 344.191 131.125 344.168 131.344 344.121V345C131.059 345.078 130.781 345.117 130.512 345.117C130.027 345.117 129.662 344.971 129.416 344.678C129.17 344.385 129.047 343.969 129.047 343.43V339.498H127.893V338.66H129.047V337.125H130.131ZM132.182 341.771C132.182 341.15 132.303 340.592 132.545 340.096C132.791 339.6 133.131 339.217 133.564 338.947C134.002 338.678 134.5 338.543 135.059 338.543C135.922 338.543 136.619 338.842 137.15 339.439C137.686 340.037 137.953 340.832 137.953 341.824V341.9C137.953 342.518 137.834 343.072 137.596 343.564C137.361 344.053 137.023 344.434 136.582 344.707C136.145 344.98 135.641 345.117 135.07 345.117C134.211 345.117 133.514 344.818 132.979 344.221C132.447 343.623 132.182 342.832 132.182 341.848V341.771ZM133.271 341.9C133.271 342.604 133.434 343.168 133.758 343.594C134.086 344.02 134.523 344.232 135.07 344.232C135.621 344.232 136.059 344.018 136.383 343.588C136.707 343.154 136.869 342.549 136.869 341.771C136.869 341.076 136.703 340.514 136.371 340.084C136.043 339.65 135.605 339.434 135.059 339.434C134.523 339.434 134.092 339.646 133.764 340.072C133.436 340.498 133.271 341.107 133.271 341.9ZM145.354 339.633C145.189 339.605 145.012 339.592 144.82 339.592C144.109 339.592 143.627 339.895 143.373 340.5V345H142.289V338.66H143.344L143.361 339.393C143.717 338.826 144.221 338.543 144.873 338.543C145.084 338.543 145.244 338.57 145.354 338.625V339.633ZM148.869 345.117C148.01 345.117 147.311 344.836 146.771 344.273C146.232 343.707 145.963 342.951 145.963 342.006V341.807C145.963 341.178 146.082 340.617 146.32 340.125C146.562 339.629 146.898 339.242 147.328 338.965C147.762 338.684 148.23 338.543 148.734 338.543C149.559 338.543 150.199 338.814 150.656 339.357C151.113 339.9 151.342 340.678 151.342 341.689V342.141H147.047C147.062 342.766 147.244 343.271 147.592 343.658C147.943 344.041 148.389 344.232 148.928 344.232C149.311 344.232 149.635 344.154 149.9 343.998C150.166 343.842 150.398 343.635 150.598 343.377L151.26 343.893C150.729 344.709 149.932 345.117 148.869 345.117ZM148.734 339.434C148.297 339.434 147.93 339.594 147.633 339.914C147.336 340.23 147.152 340.676 147.082 341.25H150.258V341.168C150.227 340.617 150.078 340.191 149.812 339.891C149.547 339.586 149.188 339.434 148.734 339.434ZM156.293 343.318C156.293 343.025 156.182 342.799 155.959 342.639C155.74 342.475 155.355 342.334 154.805 342.217C154.258 342.1 153.822 341.959 153.498 341.795C153.178 341.631 152.939 341.436 152.783 341.209C152.631 340.982 152.555 340.713 152.555 340.4C152.555 339.881 152.773 339.441 153.211 339.082C153.652 338.723 154.215 338.543 154.898 338.543C155.617 338.543 156.199 338.729 156.645 339.1C157.094 339.471 157.318 339.945 157.318 340.523H156.229C156.229 340.227 156.102 339.971 155.848 339.756C155.598 339.541 155.281 339.434 154.898 339.434C154.504 339.434 154.195 339.52 153.973 339.691C153.75 339.863 153.639 340.088 153.639 340.365C153.639 340.627 153.742 340.824 153.949 340.957C154.156 341.09 154.529 341.217 155.068 341.338C155.611 341.459 156.051 341.604 156.387 341.771C156.723 341.939 156.971 342.143 157.131 342.381C157.295 342.615 157.377 342.902 157.377 343.242C157.377 343.809 157.15 344.264 156.697 344.607C156.244 344.947 155.656 345.117 154.934 345.117C154.426 345.117 153.977 345.027 153.586 344.848C153.195 344.668 152.889 344.418 152.666 344.098C152.447 343.773 152.338 343.424 152.338 343.049H153.422C153.441 343.412 153.586 343.701 153.855 343.916C154.129 344.127 154.488 344.232 154.934 344.232C155.344 344.232 155.672 344.15 155.918 343.986C156.168 343.818 156.293 343.596 156.293 343.318ZM160.26 337.125V338.66H161.443V339.498H160.26V343.43C160.26 343.684 160.312 343.875 160.418 344.004C160.523 344.129 160.703 344.191 160.957 344.191C161.082 344.191 161.254 344.168 161.473 344.121V345C161.188 345.078 160.91 345.117 160.641 345.117C160.156 345.117 159.791 344.971 159.545 344.678C159.299 344.385 159.176 343.969 159.176 343.43V339.498H158.021V338.66H159.176V337.125H160.26ZM163.893 345H162.809V338.66H163.893V345ZM162.721 336.979C162.721 336.803 162.773 336.654 162.879 336.533C162.988 336.412 163.148 336.352 163.359 336.352C163.57 336.352 163.73 336.412 163.84 336.533C163.949 336.654 164.004 336.803 164.004 336.979C164.004 337.154 163.949 337.301 163.84 337.418C163.73 337.535 163.57 337.594 163.359 337.594C163.148 337.594 162.988 337.535 162.879 337.418C162.773 337.301 162.721 337.154 162.721 336.979ZM167.104 337.125V338.66H168.287V339.498H167.104V343.43C167.104 343.684 167.156 343.875 167.262 344.004C167.367 344.129 167.547 344.191 167.801 344.191C167.926 344.191 168.098 344.168 168.316 344.121V345C168.031 345.078 167.754 345.117 167.484 345.117C167 345.117 166.635 344.971 166.389 344.678C166.143 344.385 166.02 343.969 166.02 343.43V339.498H164.865V338.66H166.02V337.125H167.104ZM173.473 344.373C173.051 344.869 172.432 345.117 171.615 345.117C170.939 345.117 170.424 344.922 170.068 344.531C169.717 344.137 169.539 343.555 169.535 342.785V338.66H170.619V342.756C170.619 343.717 171.01 344.197 171.791 344.197C172.619 344.197 173.17 343.889 173.443 343.271V338.66H174.527V345H173.496L173.473 344.373ZM177.357 345H176.273V338.66H177.357V345ZM176.186 336.979C176.186 336.803 176.238 336.654 176.344 336.533C176.453 336.412 176.613 336.352 176.824 336.352C177.035 336.352 177.195 336.412 177.305 336.533C177.414 336.654 177.469 336.803 177.469 336.979C177.469 337.154 177.414 337.301 177.305 337.418C177.195 337.535 177.035 337.594 176.824 337.594C176.613 337.594 176.453 337.535 176.344 337.418C176.238 337.301 176.186 337.154 176.186 336.979ZM180.568 337.125V338.66H181.752V339.498H180.568V343.43C180.568 343.684 180.621 343.875 180.727 344.004C180.832 344.129 181.012 344.191 181.266 344.191C181.391 344.191 181.562 344.168 181.781 344.121V345C181.496 345.078 181.219 345.117 180.949 345.117C180.465 345.117 180.1 344.971 179.854 344.678C179.607 344.385 179.484 343.969 179.484 343.43V339.498H178.33V338.66H179.484V337.125H180.568ZM182.619 341.771C182.619 341.15 182.74 340.592 182.982 340.096C183.229 339.6 183.568 339.217 184.002 338.947C184.439 338.678 184.938 338.543 185.496 338.543C186.359 338.543 187.057 338.842 187.588 339.439C188.123 340.037 188.391 340.832 188.391 341.824V341.9C188.391 342.518 188.271 343.072 188.033 343.564C187.799 344.053 187.461 344.434 187.02 344.707C186.582 344.98 186.078 345.117 185.508 345.117C184.648 345.117 183.951 344.818 183.416 344.221C182.885 343.623 182.619 342.832 182.619 341.848V341.771ZM183.709 341.9C183.709 342.604 183.871 343.168 184.195 343.594C184.523 344.02 184.961 344.232 185.508 344.232C186.059 344.232 186.496 344.018 186.82 343.588C187.145 343.154 187.307 342.549 187.307 341.771C187.307 341.076 187.141 340.514 186.809 340.084C186.48 339.65 186.043 339.434 185.496 339.434C184.961 339.434 184.529 339.646 184.201 340.072C183.873 340.498 183.709 341.107 183.709 341.9ZM196.641 344.373C196.219 344.869 195.6 345.117 194.783 345.117C194.107 345.117 193.592 344.922 193.236 344.531C192.885 344.137 192.707 343.555 192.703 342.785V338.66H193.787V342.756C193.787 343.717 194.178 344.197 194.959 344.197C195.787 344.197 196.338 343.889 196.611 343.271V338.66H197.695V345H196.664L196.641 344.373ZM200.373 338.66L200.408 339.457C200.893 338.848 201.525 338.543 202.307 338.543C203.646 338.543 204.322 339.299 204.334 340.811V345H203.25V340.805C203.246 340.348 203.141 340.01 202.934 339.791C202.73 339.572 202.412 339.463 201.979 339.463C201.627 339.463 201.318 339.557 201.053 339.744C200.787 339.932 200.58 340.178 200.432 340.482V345H199.348V338.66H200.373ZM212.01 339.633C211.846 339.605 211.668 339.592 211.477 339.592C210.766 339.592 210.283 339.895 210.029 340.5V345H208.945V338.66H210L210.018 339.393C210.373 338.826 210.877 338.543 211.529 338.543C211.74 338.543 211.9 338.57 212.01 338.625V339.633ZM215.525 345.117C214.666 345.117 213.967 344.836 213.428 344.273C212.889 343.707 212.619 342.951 212.619 342.006V341.807C212.619 341.178 212.738 340.617 212.977 340.125C213.219 339.629 213.555 339.242 213.984 338.965C214.418 338.684 214.887 338.543 215.391 338.543C216.215 338.543 216.855 338.814 217.312 339.357C217.77 339.9 217.998 340.678 217.998 341.689V342.141H213.703C213.719 342.766 213.9 343.271 214.248 343.658C214.6 344.041 215.045 344.232 215.584 344.232C215.967 344.232 216.291 344.154 216.557 343.998C216.822 343.842 217.055 343.635 217.254 343.377L217.916 343.893C217.385 344.709 216.588 345.117 215.525 345.117ZM215.391 339.434C214.953 339.434 214.586 339.594 214.289 339.914C213.992 340.23 213.809 340.676 213.738 341.25H216.914V341.168C216.883 340.617 216.734 340.191 216.469 339.891C216.203 339.586 215.844 339.434 215.391 339.434ZM221.801 344.232C222.188 344.232 222.525 344.115 222.814 343.881C223.104 343.646 223.264 343.354 223.295 343.002H224.32C224.301 343.365 224.176 343.711 223.945 344.039C223.715 344.367 223.406 344.629 223.02 344.824C222.637 345.02 222.23 345.117 221.801 345.117C220.938 345.117 220.25 344.83 219.738 344.256C219.23 343.678 218.977 342.889 218.977 341.889V341.707C218.977 341.09 219.09 340.541 219.316 340.061C219.543 339.58 219.867 339.207 220.289 338.941C220.715 338.676 221.217 338.543 221.795 338.543C222.506 338.543 223.096 338.756 223.564 339.182C224.037 339.607 224.289 340.16 224.32 340.84H223.295C223.264 340.43 223.107 340.094 222.826 339.832C222.549 339.566 222.205 339.434 221.795 339.434C221.244 339.434 220.816 339.633 220.512 340.031C220.211 340.426 220.061 340.998 220.061 341.748V341.953C220.061 342.684 220.211 343.246 220.512 343.641C220.812 344.035 221.242 344.232 221.801 344.232ZM225.252 341.771C225.252 341.15 225.373 340.592 225.615 340.096C225.861 339.6 226.201 339.217 226.635 338.947C227.072 338.678 227.57 338.543 228.129 338.543C228.992 338.543 229.689 338.842 230.221 339.439C230.756 340.037 231.023 340.832 231.023 341.824V341.9C231.023 342.518 230.904 343.072 230.666 343.564C230.432 344.053 230.094 344.434 229.652 344.707C229.215 344.98 228.711 345.117 228.141 345.117C227.281 345.117 226.584 344.818 226.049 344.221C225.518 343.623 225.252 342.832 225.252 341.848V341.771ZM226.342 341.9C226.342 342.604 226.504 343.168 226.828 343.594C227.156 344.02 227.594 344.232 228.141 344.232C228.691 344.232 229.129 344.018 229.453 343.588C229.777 343.154 229.939 342.549 229.939 341.771C229.939 341.076 229.773 340.514 229.441 340.084C229.113 339.65 228.676 339.434 228.129 339.434C227.594 339.434 227.162 339.646 226.834 340.072C226.506 340.498 226.342 341.107 226.342 341.9ZM235.447 339.633C235.283 339.605 235.105 339.592 234.914 339.592C234.203 339.592 233.721 339.895 233.467 340.5V345H232.383V338.66H233.438L233.455 339.393C233.811 338.826 234.314 338.543 234.967 338.543C235.178 338.543 235.338 338.57 235.447 338.625V339.633ZM236.068 341.777C236.068 340.805 236.299 340.023 236.76 339.434C237.221 338.84 237.824 338.543 238.57 338.543C239.312 338.543 239.9 338.797 240.334 339.305V336H241.418V345H240.422L240.369 344.32C239.936 344.852 239.332 345.117 238.559 345.117C237.824 345.117 237.225 344.816 236.76 344.215C236.299 343.613 236.068 342.828 236.068 341.859V341.777ZM237.152 341.9C237.152 342.619 237.301 343.182 237.598 343.588C237.895 343.994 238.305 344.197 238.828 344.197C239.516 344.197 240.018 343.889 240.334 343.271V340.359C240.01 339.762 239.512 339.463 238.84 339.463C238.309 339.463 237.895 339.668 237.598 340.078C237.301 340.488 237.152 341.096 237.152 341.9Z" fill="black"/>
<path d="M170.646 590.354C170.842 590.549 171.158 590.549 171.354 590.354L174.536 587.172C174.731 586.976 174.731 586.66 174.536 586.464C174.34 586.269 174.024 586.269 173.828 586.464L171 589.293L168.172 586.464C167.976 586.269 167.66 586.269 167.464 586.464C167.269 586.66 167.269 586.976 167.464 587.172L170.646 590.354ZM170.5 528L170.5 590L171.5 590L171.5 528L170.5 528Z" fill="black"/>
<path d="M170.646 766.354C170.842 766.549 171.158 766.549 171.354 766.354L174.536 763.172C174.731 762.976 174.731 762.66 174.536 762.464C174.34 762.269 174.024 762.269 173.828 762.464L171 765.293L168.172 762.464C167.976 762.269 167.66 762.269 167.464 762.464C167.269 762.66 167.269 762.976 167.464 763.172L170.646 766.354ZM170.5 704L170.5 766L171.5 766L171.5 704L170.5 704Z" fill="black"/>
<path d="M169.646 888.354C169.842 888.549 170.158 888.549 170.354 888.354L173.536 885.172C173.731 884.976 173.731 884.66 173.536 884.464C173.34 884.269 173.024 884.269 172.828 884.464L170 887.293L167.172 884.464C166.976 884.269 166.66 884.269 166.464 884.464C166.269 884.66 166.269 884.976 166.464 885.172L169.646 888.354ZM169.5 826L169.5 888L170.5 888L170.5 826L169.5 826Z" fill="black"/>
<path d="M170.5 590L250 647L170.5 704L91 647L170.5 590Z" fill="#F2994A"/>
<path d="M135.291 639.125V640.66H136.475V641.498H135.291V645.43C135.291 645.684 135.344 645.875 135.449 646.004C135.555 646.129 135.734 646.191 135.988 646.191C136.113 646.191 136.285 646.168 136.504 646.121V647C136.219 647.078 135.941 647.117 135.672 647.117C135.188 647.117 134.822 646.971 134.576 646.678C134.33 646.385 134.207 645.969 134.207 645.43V641.498H133.053V640.66H134.207V639.125H135.291ZM138.924 647H137.84V640.66H138.924V647ZM137.752 638.979C137.752 638.803 137.805 638.654 137.91 638.533C138.02 638.412 138.18 638.352 138.391 638.352C138.602 638.352 138.762 638.412 138.871 638.533C138.98 638.654 139.035 638.803 139.035 638.979C139.035 639.154 138.98 639.301 138.871 639.418C138.762 639.535 138.602 639.594 138.391 639.594C138.18 639.594 138.02 639.535 137.91 639.418C137.805 639.301 137.752 639.154 137.752 638.979ZM146.02 643.9C146.02 644.865 145.799 645.643 145.357 646.232C144.916 646.822 144.318 647.117 143.564 647.117C142.795 647.117 142.189 646.873 141.748 646.385V649.438H140.664V640.66H141.654L141.707 641.363C142.148 640.816 142.762 640.543 143.547 640.543C144.309 640.543 144.91 640.83 145.352 641.404C145.797 641.979 146.02 642.777 146.02 643.801V643.9ZM144.936 643.777C144.936 643.062 144.783 642.498 144.479 642.084C144.174 641.67 143.756 641.463 143.225 641.463C142.568 641.463 142.076 641.754 141.748 642.336V645.365C142.072 645.943 142.568 646.232 143.236 646.232C143.756 646.232 144.168 646.027 144.473 645.617C144.781 645.203 144.936 644.59 144.936 643.777ZM147.115 643.771C147.115 643.15 147.236 642.592 147.479 642.096C147.725 641.6 148.064 641.217 148.498 640.947C148.936 640.678 149.434 640.543 149.992 640.543C150.855 640.543 151.553 640.842 152.084 641.439C152.619 642.037 152.887 642.832 152.887 643.824V643.9C152.887 644.518 152.768 645.072 152.529 645.564C152.295 646.053 151.957 646.434 151.516 646.707C151.078 646.98 150.574 647.117 150.004 647.117C149.145 647.117 148.447 646.818 147.912 646.221C147.381 645.623 147.115 644.832 147.115 643.848V643.771ZM148.205 643.9C148.205 644.604 148.367 645.168 148.691 645.594C149.02 646.02 149.457 646.232 150.004 646.232C150.555 646.232 150.992 646.018 151.316 645.588C151.641 645.154 151.803 644.549 151.803 643.771C151.803 643.076 151.637 642.514 151.305 642.084C150.977 641.65 150.539 641.434 149.992 641.434C149.457 641.434 149.025 641.646 148.697 642.072C148.369 642.498 148.205 643.107 148.205 643.9ZM158.248 640.66L158.283 641.457C158.768 640.848 159.4 640.543 160.182 640.543C161.521 640.543 162.197 641.299 162.209 642.811V647H161.125V642.805C161.121 642.348 161.016 642.01 160.809 641.791C160.605 641.572 160.287 641.463 159.854 641.463C159.502 641.463 159.193 641.557 158.928 641.744C158.662 641.932 158.455 642.178 158.307 642.482V647H157.223V640.66H158.248ZM163.557 643.771C163.557 643.15 163.678 642.592 163.92 642.096C164.166 641.6 164.506 641.217 164.939 640.947C165.377 640.678 165.875 640.543 166.434 640.543C167.297 640.543 167.994 640.842 168.525 641.439C169.061 642.037 169.328 642.832 169.328 643.824V643.9C169.328 644.518 169.209 645.072 168.971 645.564C168.736 646.053 168.398 646.434 167.957 646.707C167.52 646.98 167.016 647.117 166.445 647.117C165.586 647.117 164.889 646.818 164.354 646.221C163.822 645.623 163.557 644.832 163.557 643.848V643.771ZM164.646 643.9C164.646 644.604 164.809 645.168 165.133 645.594C165.461 646.02 165.898 646.232 166.445 646.232C166.996 646.232 167.434 646.018 167.758 645.588C168.082 645.154 168.244 644.549 168.244 643.771C168.244 643.076 168.078 642.514 167.746 642.084C167.418 641.65 166.98 641.434 166.434 641.434C165.898 641.434 165.467 641.646 165.139 642.072C164.811 642.498 164.646 643.107 164.646 643.9ZM170.424 643.777C170.424 642.805 170.654 642.023 171.115 641.434C171.576 640.84 172.18 640.543 172.926 640.543C173.668 640.543 174.256 640.797 174.689 641.305V638H175.773V647H174.777L174.725 646.32C174.291 646.852 173.688 647.117 172.914 647.117C172.18 647.117 171.58 646.816 171.115 646.215C170.654 645.613 170.424 644.828 170.424 643.859V643.777ZM171.508 643.9C171.508 644.619 171.656 645.182 171.953 645.588C172.25 645.994 172.66 646.197 173.184 646.197C173.871 646.197 174.373 645.889 174.689 645.271V642.359C174.365 641.762 173.867 641.463 173.195 641.463C172.664 641.463 172.25 641.668 171.953 642.078C171.656 642.488 171.508 643.096 171.508 643.9ZM180.092 647.117C179.232 647.117 178.533 646.836 177.994 646.273C177.455 645.707 177.186 644.951 177.186 644.006V643.807C177.186 643.178 177.305 642.617 177.543 642.125C177.785 641.629 178.121 641.242 178.551 640.965C178.984 640.684 179.453 640.543 179.957 640.543C180.781 640.543 181.422 640.814 181.879 641.357C182.336 641.9 182.564 642.678 182.564 643.689V644.141H178.27C178.285 644.766 178.467 645.271 178.814 645.658C179.166 646.041 179.611 646.232 180.15 646.232C180.533 646.232 180.857 646.154 181.123 645.998C181.389 645.842 181.621 645.635 181.82 645.377L182.482 645.893C181.951 646.709 181.154 647.117 180.092 647.117ZM179.957 641.434C179.52 641.434 179.152 641.594 178.855 641.914C178.559 642.23 178.375 642.676 178.305 643.25H181.48V643.168C181.449 642.617 181.301 642.191 181.035 641.891C180.77 641.586 180.41 641.434 179.957 641.434ZM191.758 642.23H186.871V641.287H191.758V642.23ZM191.758 644.662H186.871V643.725H191.758V644.662ZM198.344 642.23H193.457V641.287H198.344V642.23ZM198.344 644.662H193.457V643.725H198.344V644.662ZM208.188 643.361C208.188 644.631 207.971 645.574 207.537 646.191C207.104 646.809 206.426 647.117 205.504 647.117C204.594 647.117 203.92 646.816 203.482 646.215C203.045 645.609 202.818 644.707 202.803 643.508V642.061C202.803 640.807 203.02 639.875 203.453 639.266C203.887 638.656 204.566 638.352 205.492 638.352C206.41 638.352 207.086 638.646 207.52 639.236C207.953 639.822 208.176 640.729 208.188 641.955V643.361ZM207.104 641.879C207.104 640.961 206.975 640.293 206.717 639.875C206.459 639.453 206.051 639.242 205.492 639.242C204.938 639.242 204.533 639.451 204.279 639.869C204.025 640.287 203.895 640.93 203.887 641.797V643.531C203.887 644.453 204.02 645.135 204.285 645.576C204.555 646.014 204.961 646.232 205.504 646.232C206.039 646.232 206.436 646.025 206.693 645.611C206.955 645.197 207.092 644.545 207.104 643.654V641.879Z" fill="black"/>
<rect x="319" y="621" width="138" height="53" fill="#219653"/>
<path d="M331.84 644.66L331.869 645.363C332.334 644.816 332.961 644.543 333.75 644.543C334.637 644.543 335.24 644.883 335.561 645.562C335.771 645.258 336.045 645.012 336.381 644.824C336.721 644.637 337.121 644.543 337.582 644.543C338.973 644.543 339.68 645.279 339.703 646.752V651H338.619V646.816C338.619 646.363 338.516 646.025 338.309 645.803C338.102 645.576 337.754 645.463 337.266 645.463C336.863 645.463 336.529 645.584 336.264 645.826C335.998 646.064 335.844 646.387 335.801 646.793V651H334.711V646.846C334.711 645.924 334.26 645.463 333.357 645.463C332.646 645.463 332.16 645.766 331.898 646.371V651H330.814V644.66H331.84ZM345.258 651C345.195 650.875 345.145 650.652 345.105 650.332C344.602 650.855 344 651.117 343.301 651.117C342.676 651.117 342.162 650.941 341.76 650.59C341.361 650.234 341.162 649.785 341.162 649.242C341.162 648.582 341.412 648.07 341.912 647.707C342.416 647.34 343.123 647.156 344.033 647.156H345.088V646.658C345.088 646.279 344.975 645.979 344.748 645.756C344.521 645.529 344.188 645.416 343.746 645.416C343.359 645.416 343.035 645.514 342.773 645.709C342.512 645.904 342.381 646.141 342.381 646.418H341.291C341.291 646.102 341.402 645.797 341.625 645.504C341.852 645.207 342.156 644.973 342.539 644.801C342.926 644.629 343.35 644.543 343.811 644.543C344.541 644.543 345.113 644.727 345.527 645.094C345.941 645.457 346.156 645.959 346.172 646.6V649.518C346.172 650.1 346.246 650.562 346.395 650.906V651H345.258ZM343.459 650.174C343.799 650.174 344.121 650.086 344.426 649.91C344.73 649.734 344.951 649.506 345.088 649.225V647.924H344.238C342.91 647.924 342.246 648.312 342.246 649.09C342.246 649.43 342.359 649.695 342.586 649.887C342.812 650.078 343.104 650.174 343.459 650.174ZM348.896 644.66L348.932 645.457C349.416 644.848 350.049 644.543 350.83 644.543C352.17 644.543 352.846 645.299 352.857 646.811V651H351.773V646.805C351.77 646.348 351.664 646.01 351.457 645.791C351.254 645.572 350.936 645.463 350.502 645.463C350.15 645.463 349.842 645.557 349.576 645.744C349.311 645.932 349.104 646.178 348.955 646.482V651H347.871V644.66H348.896ZM358.406 651C358.344 650.875 358.293 650.652 358.254 650.332C357.75 650.855 357.148 651.117 356.449 651.117C355.824 651.117 355.311 650.941 354.908 650.59C354.51 650.234 354.311 649.785 354.311 649.242C354.311 648.582 354.561 648.07 355.061 647.707C355.564 647.34 356.271 647.156 357.182 647.156H358.236V646.658C358.236 646.279 358.123 645.979 357.896 645.756C357.67 645.529 357.336 645.416 356.895 645.416C356.508 645.416 356.184 645.514 355.922 645.709C355.66 645.904 355.529 646.141 355.529 646.418H354.439C354.439 646.102 354.551 645.797 354.773 645.504C355 645.207 355.305 644.973 355.688 644.801C356.074 644.629 356.498 644.543 356.959 644.543C357.689 644.543 358.262 644.727 358.676 645.094C359.09 645.457 359.305 645.959 359.32 646.6V649.518C359.32 650.1 359.395 650.562 359.543 650.906V651H358.406ZM356.607 650.174C356.947 650.174 357.27 650.086 357.574 649.91C357.879 649.734 358.1 649.506 358.236 649.225V647.924H357.387C356.059 647.924 355.395 648.312 355.395 649.09C355.395 649.43 355.508 649.695 355.734 649.887C355.961 650.078 356.252 650.174 356.607 650.174ZM360.762 647.777C360.762 646.789 360.99 646.004 361.447 645.422C361.904 644.836 362.51 644.543 363.264 644.543C364.037 644.543 364.641 644.816 365.074 645.363L365.127 644.66H366.117V650.848C366.117 651.668 365.873 652.314 365.385 652.787C364.9 653.26 364.248 653.496 363.428 653.496C362.971 653.496 362.523 653.398 362.086 653.203C361.648 653.008 361.314 652.74 361.084 652.4L361.646 651.75C362.111 652.324 362.68 652.611 363.352 652.611C363.879 652.611 364.289 652.463 364.582 652.166C364.879 651.869 365.027 651.451 365.027 650.912V650.367C364.594 650.867 364.002 651.117 363.252 651.117C362.51 651.117 361.908 650.818 361.447 650.221C360.99 649.623 360.762 648.809 360.762 647.777ZM361.852 647.9C361.852 648.615 361.998 649.178 362.291 649.588C362.584 649.994 362.994 650.197 363.521 650.197C364.205 650.197 364.707 649.887 365.027 649.266V646.371C364.695 645.766 364.197 645.463 363.533 645.463C363.006 645.463 362.594 645.668 362.297 646.078C362 646.488 361.852 647.096 361.852 647.9ZM370.389 651.117C369.529 651.117 368.83 650.836 368.291 650.273C367.752 649.707 367.482 648.951 367.482 648.006V647.807C367.482 647.178 367.602 646.617 367.84 646.125C368.082 645.629 368.418 645.242 368.848 644.965C369.281 644.684 369.75 644.543 370.254 644.543C371.078 644.543 371.719 644.814 372.176 645.357C372.633 645.9 372.861 646.678 372.861 647.689V648.141H368.566C368.582 648.766 368.764 649.271 369.111 649.658C369.463 650.041 369.908 650.232 370.447 650.232C370.83 650.232 371.154 650.154 371.42 649.998C371.686 649.842 371.918 649.635 372.117 649.377L372.779 649.893C372.248 650.709 371.451 651.117 370.389 651.117ZM370.254 645.434C369.816 645.434 369.449 645.594 369.152 645.914C368.855 646.23 368.672 646.676 368.602 647.25H371.777V647.168C371.746 646.617 371.598 646.191 371.332 645.891C371.066 645.586 370.707 645.434 370.254 645.434ZM378.691 651.885H373.324V651H378.691V651.885ZM379.271 647.777C379.271 646.805 379.502 646.023 379.963 645.434C380.424 644.84 381.027 644.543 381.773 644.543C382.516 644.543 383.104 644.797 383.537 645.305V642H384.621V651H383.625L383.572 650.32C383.139 650.852 382.535 651.117 381.762 651.117C381.027 651.117 380.428 650.816 379.963 650.215C379.502 649.613 379.271 648.828 379.271 647.859V647.777ZM380.355 647.9C380.355 648.619 380.504 649.182 380.801 649.588C381.098 649.994 381.508 650.197 382.031 650.197C382.719 650.197 383.221 649.889 383.537 649.271V646.359C383.213 645.762 382.715 645.463 382.043 645.463C381.512 645.463 381.098 645.668 380.801 646.078C380.504 646.488 380.355 647.096 380.355 647.9ZM390.223 651C390.16 650.875 390.109 650.652 390.07 650.332C389.566 650.855 388.965 651.117 388.266 651.117C387.641 651.117 387.127 650.941 386.725 650.59C386.326 650.234 386.127 649.785 386.127 649.242C386.127 648.582 386.377 648.07 386.877 647.707C387.381 647.34 388.088 647.156 388.998 647.156H390.053V646.658C390.053 646.279 389.939 645.979 389.713 645.756C389.486 645.529 389.152 645.416 388.711 645.416C388.324 645.416 388 645.514 387.738 645.709C387.477 645.904 387.346 646.141 387.346 646.418H386.256C386.256 646.102 386.367 645.797 386.59 645.504C386.816 645.207 387.121 644.973 387.504 644.801C387.891 644.629 388.314 644.543 388.775 644.543C389.506 644.543 390.078 644.727 390.492 645.094C390.906 645.457 391.121 645.959 391.137 646.6V649.518C391.137 650.1 391.211 650.562 391.359 650.906V651H390.223ZM388.424 650.174C388.764 650.174 389.086 650.086 389.391 649.91C389.695 649.734 389.916 649.506 390.053 649.225V647.924H389.203C387.875 647.924 387.211 648.312 387.211 649.09C387.211 649.43 387.324 649.695 387.551 649.887C387.777 650.078 388.068 650.174 388.424 650.174ZM394.307 643.125V644.66H395.49V645.498H394.307V649.43C394.307 649.684 394.359 649.875 394.465 650.004C394.57 650.129 394.75 650.191 395.004 650.191C395.129 650.191 395.301 650.168 395.52 650.121V651C395.234 651.078 394.957 651.117 394.688 651.117C394.203 651.117 393.838 650.971 393.592 650.678C393.346 650.385 393.223 649.969 393.223 649.43V645.498H392.068V644.66H393.223V643.125H394.307ZM400.676 651C400.613 650.875 400.562 650.652 400.523 650.332C400.02 650.855 399.418 651.117 398.719 651.117C398.094 651.117 397.58 650.941 397.178 650.59C396.779 650.234 396.58 649.785 396.58 649.242C396.58 648.582 396.83 648.07 397.33 647.707C397.834 647.34 398.541 647.156 399.451 647.156H400.506V646.658C400.506 646.279 400.393 645.979 400.166 645.756C399.939 645.529 399.605 645.416 399.164 645.416C398.777 645.416 398.453 645.514 398.191 645.709C397.93 645.904 397.799 646.141 397.799 646.418H396.709C396.709 646.102 396.82 645.797 397.043 645.504C397.27 645.207 397.574 644.973 397.957 644.801C398.344 644.629 398.768 644.543 399.229 644.543C399.959 644.543 400.531 644.727 400.945 645.094C401.359 645.457 401.574 645.959 401.59 646.6V649.518C401.59 650.1 401.664 650.562 401.812 650.906V651H400.676ZM398.877 650.174C399.217 650.174 399.539 650.086 399.844 649.91C400.148 649.734 400.369 649.506 400.506 649.225V647.924H399.656C398.328 647.924 397.664 648.312 397.664 649.09C397.664 649.43 397.777 649.695 398.004 649.887C398.23 650.078 398.521 650.174 398.877 650.174ZM407.859 651.885H402.492V651H407.859V651.885ZM410.174 643.125V644.66H411.357V645.498H410.174V649.43C410.174 649.684 410.227 649.875 410.332 650.004C410.438 650.129 410.617 650.191 410.871 650.191C410.996 650.191 411.168 650.168 411.387 650.121V651C411.102 651.078 410.824 651.117 410.555 651.117C410.07 651.117 409.705 650.971 409.459 650.678C409.213 650.385 409.09 649.969 409.09 649.43V645.498H407.936V644.66H409.09V643.125H410.174ZM414.703 649.412L416.18 644.66H417.34L414.791 651.979C414.396 653.033 413.77 653.561 412.91 653.561L412.705 653.543L412.301 653.467V652.588L412.594 652.611C412.961 652.611 413.246 652.537 413.449 652.389C413.656 652.24 413.826 651.969 413.959 651.574L414.199 650.93L411.938 644.66H413.121L414.703 649.412ZM423.668 647.9C423.668 648.865 423.447 649.643 423.006 650.232C422.564 650.822 421.967 651.117 421.213 651.117C420.443 651.117 419.838 650.873 419.396 650.385V653.438H418.312V644.66H419.303L419.355 645.363C419.797 644.816 420.41 644.543 421.195 644.543C421.957 644.543 422.559 644.83 423 645.404C423.445 645.979 423.668 646.777 423.668 647.801V647.9ZM422.584 647.777C422.584 647.062 422.432 646.498 422.127 646.084C421.822 645.67 421.404 645.463 420.873 645.463C420.217 645.463 419.725 645.754 419.396 646.336V649.365C419.721 649.943 420.217 650.232 420.885 650.232C421.404 650.232 421.816 650.027 422.121 649.617C422.43 649.203 422.584 648.59 422.584 647.777ZM427.682 651.117C426.822 651.117 426.123 650.836 425.584 650.273C425.045 649.707 424.775 648.951 424.775 648.006V647.807C424.775 647.178 424.895 646.617 425.133 646.125C425.375 645.629 425.711 645.242 426.141 644.965C426.574 644.684 427.043 644.543 427.547 644.543C428.371 644.543 429.012 644.814 429.469 645.357C429.926 645.9 430.154 646.678 430.154 647.689V648.141H425.859C425.875 648.766 426.057 649.271 426.404 649.658C426.756 650.041 427.201 650.232 427.74 650.232C428.123 650.232 428.447 650.154 428.713 649.998C428.979 649.842 429.211 649.635 429.41 649.377L430.072 649.893C429.541 650.709 428.744 651.117 427.682 651.117ZM427.547 645.434C427.109 645.434 426.742 645.594 426.445 645.914C426.148 646.23 425.965 646.676 425.895 647.25H429.07V647.168C429.039 646.617 428.891 646.191 428.625 645.891C428.359 645.586 428 645.434 427.547 645.434ZM436.652 647.361C436.652 648.631 436.436 649.574 436.002 650.191C435.568 650.809 434.891 651.117 433.969 651.117C433.059 651.117 432.385 650.816 431.947 650.215C431.51 649.609 431.283 648.707 431.268 647.508V646.061C431.268 644.807 431.484 643.875 431.918 643.266C432.352 642.656 433.031 642.352 433.957 642.352C434.875 642.352 435.551 642.646 435.984 643.236C436.418 643.822 436.641 644.729 436.652 645.955V647.361ZM435.568 645.879C435.568 644.961 435.439 644.293 435.182 643.875C434.924 643.453 434.516 643.242 433.957 643.242C433.402 643.242 432.998 643.451 432.744 643.869C432.49 644.287 432.359 644.93 432.352 645.797V647.531C432.352 648.453 432.484 649.135 432.75 649.576C433.02 650.014 433.426 650.232 433.969 650.232C434.504 650.232 434.9 650.025 435.158 649.611C435.42 649.197 435.557 648.545 435.568 647.654V645.879ZM438.111 647.537C438.111 646.654 438.229 645.807 438.463 644.994C438.701 644.182 439.055 643.443 439.523 642.779C439.992 642.115 440.479 641.646 440.982 641.373L441.205 642.088C440.635 642.525 440.166 643.193 439.799 644.092C439.436 644.99 439.236 645.996 439.201 647.109L439.195 647.607C439.195 649.115 439.471 650.424 440.021 651.533C440.354 652.197 440.748 652.717 441.205 653.092L440.982 653.754C440.463 653.465 439.967 652.98 439.494 652.301C438.572 650.973 438.111 649.385 438.111 647.537ZM444.756 647.596C444.756 648.467 444.641 649.303 444.41 650.104C444.184 650.9 443.834 651.637 443.361 652.312C442.893 652.988 442.4 653.469 441.885 653.754L441.656 653.092C442.258 652.631 442.74 651.916 443.104 650.947C443.471 649.975 443.658 648.896 443.666 647.713V647.525C443.666 646.705 443.58 645.943 443.408 645.24C443.236 644.533 442.996 643.9 442.688 643.342C442.383 642.783 442.039 642.348 441.656 642.035L441.885 641.373C442.4 641.658 442.891 642.135 443.355 642.803C443.824 643.471 444.174 644.207 444.404 645.012C444.639 645.816 444.756 646.678 444.756 647.596Z" fill="black"/>
<path d="M319.354 647.354C319.549 647.158 319.549 646.842 319.354 646.646L316.172 643.464C315.976 643.269 315.66 643.269 315.464 643.464C315.269 643.66 315.269 643.976 315.464 644.172L318.293 647L315.464 649.828C315.269 650.024 315.269 650.34 315.464 650.536C315.66 650.731 315.976 650.731 316.172 650.536L319.354 647.354ZM250 647.5H319V646.5H250V647.5Z" fill="black"/>
<line x1="17.5" y1="341" x2="17.5" y2="795" stroke="black"/>
<path d="M88.3536 795.354C88.5488 795.158 88.5488 794.842 88.3536 794.646L85.1716 791.464C84.9763 791.269 84.6597 791.269 84.4645 791.464C84.2692 791.66 84.2692 791.976 84.4645 792.172L87.2929 795L84.4645 797.828C84.2692 798.024 84.2692 798.34 84.4645 798.536C84.6597 798.731 84.9763 798.731 85.1716 798.536L88.3536 795.354ZM17 795.5H88V794.5H17V795.5Z" fill="black"/>
<line x1="91" y1="341.5" x2="17" y2="341.5" stroke="black"/>
<ellipse cx="170" cy="934" rx="170" ry="46" fill="#EB5757"/>
<path d="M125.184 938V932.498H124.182V931.66H125.184V931.121C125.184 930.414 125.385 929.863 125.787 929.469C126.193 929.074 126.766 928.877 127.504 928.877C127.941 928.877 128.494 928.996 129.162 929.234L128.98 930.148C128.492 929.953 128.027 929.855 127.586 929.855C127.121 929.855 126.785 929.961 126.578 930.172C126.375 930.379 126.273 930.691 126.273 931.109V931.66H127.568V932.498H126.273V938H125.184ZM129.701 938H128.611V931.66H129.701V938ZM132.49 931.66L132.525 932.457C133.01 931.848 133.643 931.543 134.424 931.543C135.764 931.543 136.439 932.299 136.451 933.811V938H135.367V933.805C135.363 933.348 135.258 933.01 135.051 932.791C134.848 932.572 134.529 932.463 134.096 932.463C133.744 932.463 133.436 932.557 133.17 932.744C132.904 932.932 132.697 933.178 132.549 933.482V938H131.465V931.66H132.49ZM140.717 938.117C139.857 938.117 139.158 937.836 138.619 937.273C138.08 936.707 137.811 935.951 137.811 935.006V934.807C137.811 934.178 137.93 933.617 138.168 933.125C138.41 932.629 138.746 932.242 139.176 931.965C139.609 931.684 140.078 931.543 140.582 931.543C141.406 931.543 142.047 931.814 142.504 932.357C142.961 932.9 143.189 933.678 143.189 934.689V935.141H138.895C138.91 935.766 139.092 936.271 139.439 936.658C139.791 937.041 140.236 937.232 140.775 937.232C141.158 937.232 141.482 937.154 141.748 936.998C142.014 936.842 142.246 936.635 142.445 936.377L143.107 936.893C142.576 937.709 141.779 938.117 140.717 938.117ZM140.582 932.434C140.145 932.434 139.777 932.594 139.48 932.914C139.184 933.23 139 933.676 138.93 934.25H142.105V934.168C142.074 933.617 141.926 933.191 141.66 932.891C141.395 932.586 141.035 932.434 140.582 932.434ZM148.445 931.66L148.475 932.363C148.939 931.816 149.566 931.543 150.355 931.543C151.242 931.543 151.846 931.883 152.166 932.562C152.377 932.258 152.65 932.012 152.986 931.824C153.326 931.637 153.727 931.543 154.188 931.543C155.578 931.543 156.285 932.279 156.309 933.752V938H155.225V933.816C155.225 933.363 155.121 933.025 154.914 932.803C154.707 932.576 154.359 932.463 153.871 932.463C153.469 932.463 153.135 932.584 152.869 932.826C152.604 933.064 152.449 933.387 152.406 933.793V938H151.316V933.846C151.316 932.924 150.865 932.463 149.963 932.463C149.252 932.463 148.766 932.766 148.504 933.371V938H147.42V931.66H148.445ZM161.863 938C161.801 937.875 161.75 937.652 161.711 937.332C161.207 937.855 160.605 938.117 159.906 938.117C159.281 938.117 158.768 937.941 158.365 937.59C157.967 937.234 157.768 936.785 157.768 936.242C157.768 935.582 158.018 935.07 158.518 934.707C159.021 934.34 159.729 934.156 160.639 934.156H161.693V933.658C161.693 933.279 161.58 932.979 161.354 932.756C161.127 932.529 160.793 932.416 160.352 932.416C159.965 932.416 159.641 932.514 159.379 932.709C159.117 932.904 158.986 933.141 158.986 933.418H157.896C157.896 933.102 158.008 932.797 158.23 932.504C158.457 932.207 158.762 931.973 159.145 931.801C159.531 931.629 159.955 931.543 160.416 931.543C161.146 931.543 161.719 931.727 162.133 932.094C162.547 932.457 162.762 932.959 162.777 933.6V936.518C162.777 937.1 162.852 937.562 163 937.906V938H161.863ZM160.064 937.174C160.404 937.174 160.727 937.086 161.031 936.91C161.336 936.734 161.557 936.506 161.693 936.225V934.924H160.844C159.516 934.924 158.852 935.312 158.852 936.09C158.852 936.43 158.965 936.695 159.191 936.887C159.418 937.078 159.709 937.174 160.064 937.174ZM165.502 931.66L165.537 932.457C166.021 931.848 166.654 931.543 167.436 931.543C168.775 931.543 169.451 932.299 169.463 933.811V938H168.379V933.805C168.375 933.348 168.27 933.01 168.062 932.791C167.859 932.572 167.541 932.463 167.107 932.463C166.756 932.463 166.447 932.557 166.182 932.744C165.916 932.932 165.709 933.178 165.561 933.482V938H164.477V931.66H165.502ZM175.012 938C174.949 937.875 174.898 937.652 174.859 937.332C174.355 937.855 173.754 938.117 173.055 938.117C172.43 938.117 171.916 937.941 171.514 937.59C171.115 937.234 170.916 936.785 170.916 936.242C170.916 935.582 171.166 935.07 171.666 934.707C172.17 934.34 172.877 934.156 173.787 934.156H174.842V933.658C174.842 933.279 174.729 932.979 174.502 932.756C174.275 932.529 173.941 932.416 173.5 932.416C173.113 932.416 172.789 932.514 172.527 932.709C172.266 932.904 172.135 933.141 172.135 933.418H171.045C171.045 933.102 171.156 932.797 171.379 932.504C171.605 932.207 171.91 931.973 172.293 931.801C172.68 931.629 173.104 931.543 173.564 931.543C174.295 931.543 174.867 931.727 175.281 932.094C175.695 932.457 175.91 932.959 175.926 933.6V936.518C175.926 937.1 176 937.562 176.148 937.906V938H175.012ZM173.213 937.174C173.553 937.174 173.875 937.086 174.18 936.91C174.484 936.734 174.705 936.506 174.842 936.225V934.924H173.992C172.664 934.924 172 935.312 172 936.09C172 936.43 172.113 936.695 172.34 936.887C172.566 937.078 172.857 937.174 173.213 937.174ZM177.367 934.777C177.367 933.789 177.596 933.004 178.053 932.422C178.51 931.836 179.115 931.543 179.869 931.543C180.643 931.543 181.246 931.816 181.68 932.363L181.732 931.66H182.723V937.848C182.723 938.668 182.479 939.314 181.99 939.787C181.506 940.26 180.854 940.496 180.033 940.496C179.576 940.496 179.129 940.398 178.691 940.203C178.254 940.008 177.92 939.74 177.689 939.4L178.252 938.75C178.717 939.324 179.285 939.611 179.957 939.611C180.484 939.611 180.895 939.463 181.188 939.166C181.484 938.869 181.633 938.451 181.633 937.912V937.367C181.199 937.867 180.607 938.117 179.857 938.117C179.115 938.117 178.514 937.818 178.053 937.221C177.596 936.623 177.367 935.809 177.367 934.777ZM178.457 934.9C178.457 935.615 178.604 936.178 178.896 936.588C179.189 936.994 179.6 937.197 180.127 937.197C180.811 937.197 181.312 936.887 181.633 936.266V933.371C181.301 932.766 180.803 932.463 180.139 932.463C179.611 932.463 179.199 932.668 178.902 933.078C178.605 933.488 178.457 934.096 178.457 934.9ZM186.994 938.117C186.135 938.117 185.436 937.836 184.896 937.273C184.357 936.707 184.088 935.951 184.088 935.006V934.807C184.088 934.178 184.207 933.617 184.445 933.125C184.688 932.629 185.023 932.242 185.453 931.965C185.887 931.684 186.355 931.543 186.859 931.543C187.684 931.543 188.324 931.814 188.781 932.357C189.238 932.9 189.467 933.678 189.467 934.689V935.141H185.172C185.188 935.766 185.369 936.271 185.717 936.658C186.068 937.041 186.514 937.232 187.053 937.232C187.436 937.232 187.76 937.154 188.025 936.998C188.291 936.842 188.523 936.635 188.723 936.377L189.385 936.893C188.854 937.709 188.057 938.117 186.994 938.117ZM186.859 932.434C186.422 932.434 186.055 932.594 185.758 932.914C185.461 933.23 185.277 933.676 185.207 934.25H188.383V934.168C188.352 933.617 188.203 933.191 187.938 932.891C187.672 932.586 187.312 932.434 186.859 932.434ZM195.297 938.885H189.93V938H195.297V938.885ZM195.877 934.777C195.877 933.805 196.107 933.023 196.568 932.434C197.029 931.84 197.633 931.543 198.379 931.543C199.121 931.543 199.709 931.797 200.143 932.305V929H201.227V938H200.23L200.178 937.32C199.744 937.852 199.141 938.117 198.367 938.117C197.633 938.117 197.033 937.816 196.568 937.215C196.107 936.613 195.877 935.828 195.877 934.859V934.777ZM196.961 934.9C196.961 935.619 197.109 936.182 197.406 936.588C197.703 936.994 198.113 937.197 198.637 937.197C199.324 937.197 199.826 936.889 200.143 936.271V933.359C199.818 932.762 199.32 932.463 198.648 932.463C198.117 932.463 197.703 932.668 197.406 933.078C197.109 933.488 196.961 934.096 196.961 934.9ZM206.828 938C206.766 937.875 206.715 937.652 206.676 937.332C206.172 937.855 205.57 938.117 204.871 938.117C204.246 938.117 203.732 937.941 203.33 937.59C202.932 937.234 202.732 936.785 202.732 936.242C202.732 935.582 202.982 935.07 203.482 934.707C203.986 934.34 204.693 934.156 205.604 934.156H206.658V933.658C206.658 933.279 206.545 932.979 206.318 932.756C206.092 932.529 205.758 932.416 205.316 932.416C204.93 932.416 204.605 932.514 204.344 932.709C204.082 932.904 203.951 933.141 203.951 933.418H202.861C202.861 933.102 202.973 932.797 203.195 932.504C203.422 932.207 203.727 931.973 204.109 931.801C204.496 931.629 204.92 931.543 205.381 931.543C206.111 931.543 206.684 931.727 207.098 932.094C207.512 932.457 207.727 932.959 207.742 933.6V936.518C207.742 937.1 207.816 937.562 207.965 937.906V938H206.828ZM205.029 937.174C205.369 937.174 205.691 937.086 205.996 936.91C206.301 936.734 206.521 936.506 206.658 936.225V934.924H205.809C204.48 934.924 203.816 935.312 203.816 936.09C203.816 936.43 203.93 936.695 204.156 936.887C204.383 937.078 204.674 937.174 205.029 937.174ZM210.912 930.125V931.66H212.096V932.498H210.912V936.43C210.912 936.684 210.965 936.875 211.07 937.004C211.176 937.129 211.355 937.191 211.609 937.191C211.734 937.191 211.906 937.168 212.125 937.121V938C211.84 938.078 211.562 938.117 211.293 938.117C210.809 938.117 210.443 937.971 210.197 937.678C209.951 937.385 209.828 936.969 209.828 936.43V932.498H208.674V931.66H209.828V930.125H210.912ZM217.281 938C217.219 937.875 217.168 937.652 217.129 937.332C216.625 937.855 216.023 938.117 215.324 938.117C214.699 938.117 214.186 937.941 213.783 937.59C213.385 937.234 213.186 936.785 213.186 936.242C213.186 935.582 213.436 935.07 213.936 934.707C214.439 934.34 215.146 934.156 216.057 934.156H217.111V933.658C217.111 933.279 216.998 932.979 216.771 932.756C216.545 932.529 216.211 932.416 215.77 932.416C215.383 932.416 215.059 932.514 214.797 932.709C214.535 932.904 214.404 933.141 214.404 933.418H213.314C213.314 933.102 213.426 932.797 213.648 932.504C213.875 932.207 214.18 931.973 214.562 931.801C214.949 931.629 215.373 931.543 215.834 931.543C216.564 931.543 217.137 931.727 217.551 932.094C217.965 932.457 218.18 932.959 218.195 933.6V936.518C218.195 937.1 218.27 937.562 218.418 937.906V938H217.281ZM215.482 937.174C215.822 937.174 216.145 937.086 216.449 936.91C216.754 936.734 216.975 936.506 217.111 936.225V934.924H216.262C214.934 934.924 214.27 935.312 214.27 936.09C214.27 936.43 214.383 936.695 214.609 936.887C214.836 937.078 215.127 937.174 215.482 937.174ZM219.854 934.537C219.854 933.654 219.971 932.807 220.205 931.994C220.443 931.182 220.797 930.443 221.266 929.779C221.734 929.115 222.221 928.646 222.725 928.373L222.947 929.088C222.377 929.525 221.908 930.193 221.541 931.092C221.178 931.99 220.979 932.996 220.943 934.109L220.938 934.607C220.938 936.115 221.213 937.424 221.764 938.533C222.096 939.197 222.49 939.717 222.947 940.092L222.725 940.754C222.205 940.465 221.709 939.98 221.236 939.301C220.314 937.973 219.854 936.385 219.854 934.537ZM226.498 934.596C226.498 935.467 226.383 936.303 226.152 937.104C225.926 937.9 225.576 938.637 225.104 939.312C224.635 939.988 224.143 940.469 223.627 940.754L223.398 940.092C224 939.631 224.482 938.916 224.846 937.947C225.213 936.975 225.4 935.896 225.408 934.713V934.525C225.408 933.705 225.322 932.943 225.15 932.24C224.979 931.533 224.738 930.9 224.43 930.342C224.125 929.783 223.781 929.348 223.398 929.035L223.627 928.373C224.143 928.658 224.633 929.135 225.098 929.803C225.566 930.471 225.916 931.207 226.146 932.012C226.381 932.816 226.498 933.678 226.498 934.596Z" fill="black"/>
<line x1="388.5" y1="674" x2="388.5" y2="934" stroke="black"/>
<path d="M339.646 933.646C339.451 933.842 339.451 934.158 339.646 934.354L342.828 937.536C343.024 937.731 343.34 937.731 343.536 937.536C343.731 937.34 343.731 937.024 343.536 936.828L340.707 934L343.536 931.172C343.731 930.976 343.731 930.66 343.536 930.464C343.34 930.269 343.024 930.269 342.828 930.464L339.646 933.646ZM388 933.5L340 933.5L340 934.5L388 934.5L388 933.5Z" fill="black"/>
<path d="M68.5469 334H67.416L63.1211 327.426V334H61.9902V325.469H63.1211L67.4277 332.072V325.469H68.5469V334ZM70.0879 330.771C70.0879 330.15 70.209 329.592 70.4512 329.096C70.6973 328.6 71.0371 328.217 71.4707 327.947C71.9082 327.678 72.4062 327.543 72.9648 327.543C73.8281 327.543 74.5254 327.842 75.0566 328.439C75.5918 329.037 75.8594 329.832 75.8594 330.824V330.9C75.8594 331.518 75.7402 332.072 75.502 332.564C75.2676 333.053 74.9297 333.434 74.4883 333.707C74.0508 333.98 73.5469 334.117 72.9766 334.117C72.1172 334.117 71.4199 333.818 70.8848 333.221C70.3535 332.623 70.0879 331.832 70.0879 330.848V330.771ZM71.1777 330.9C71.1777 331.604 71.3398 332.168 71.6641 332.594C71.9922 333.02 72.4297 333.232 72.9766 333.232C73.5273 333.232 73.9648 333.018 74.2891 332.588C74.6133 332.154 74.7754 331.549 74.7754 330.771C74.7754 330.076 74.6094 329.514 74.2773 329.084C73.9492 328.65 73.5117 328.434 72.9648 328.434C72.4297 328.434 71.998 328.646 71.6699 329.072C71.3418 329.498 71.1777 330.107 71.1777 330.9Z" fill="black"/>
<path d="M183.547 722H182.416L178.121 715.426V722H176.99V713.469H178.121L182.428 720.072V713.469H183.547V722ZM185.088 718.771C185.088 718.15 185.209 717.592 185.451 717.096C185.697 716.6 186.037 716.217 186.471 715.947C186.908 715.678 187.406 715.543 187.965 715.543C188.828 715.543 189.525 715.842 190.057 716.439C190.592 717.037 190.859 717.832 190.859 718.824V718.9C190.859 719.518 190.74 720.072 190.502 720.564C190.268 721.053 189.93 721.434 189.488 721.707C189.051 721.98 188.547 722.117 187.977 722.117C187.117 722.117 186.42 721.818 185.885 721.221C185.354 720.623 185.088 719.832 185.088 718.848V718.771ZM186.178 718.9C186.178 719.604 186.34 720.168 186.664 720.594C186.992 721.02 187.43 721.232 187.977 721.232C188.527 721.232 188.965 721.018 189.289 720.588C189.613 720.154 189.775 719.549 189.775 718.771C189.775 718.076 189.609 717.514 189.277 717.084C188.949 716.65 188.512 716.434 187.965 716.434C187.43 716.434 186.998 716.646 186.67 717.072C186.342 717.498 186.178 718.107 186.178 718.9Z" fill="black"/>
<path d="M181.504 419.197C180.539 418.92 179.836 418.58 179.395 418.178C178.957 417.771 178.738 417.271 178.738 416.678C178.738 416.006 179.006 415.451 179.541 415.014C180.08 414.572 180.779 414.352 181.639 414.352C182.225 414.352 182.746 414.465 183.203 414.691C183.664 414.918 184.02 415.23 184.27 415.629C184.523 416.027 184.65 416.463 184.65 416.936H183.52C183.52 416.42 183.355 416.016 183.027 415.723C182.699 415.426 182.236 415.277 181.639 415.277C181.084 415.277 180.65 415.4 180.338 415.646C180.029 415.889 179.875 416.227 179.875 416.66C179.875 417.008 180.021 417.303 180.314 417.545C180.611 417.783 181.113 418.002 181.82 418.201C182.531 418.4 183.086 418.621 183.484 418.863C183.887 419.102 184.184 419.381 184.375 419.701C184.57 420.021 184.668 420.398 184.668 420.832C184.668 421.523 184.398 422.078 183.859 422.496C183.32 422.91 182.6 423.117 181.697 423.117C181.111 423.117 180.564 423.006 180.057 422.783C179.549 422.557 179.156 422.248 178.879 421.857C178.605 421.467 178.469 421.023 178.469 420.527H179.6C179.6 421.043 179.789 421.451 180.168 421.752C180.551 422.049 181.061 422.197 181.697 422.197C182.291 422.197 182.746 422.076 183.062 421.834C183.379 421.592 183.537 421.262 183.537 420.844C183.537 420.426 183.391 420.104 183.098 419.877C182.805 419.646 182.273 419.42 181.504 419.197ZM187.123 423H186.039V416.66H187.123V423ZM185.951 414.979C185.951 414.803 186.004 414.654 186.109 414.533C186.219 414.412 186.379 414.352 186.59 414.352C186.801 414.352 186.961 414.412 187.07 414.533C187.18 414.654 187.234 414.803 187.234 414.979C187.234 415.154 187.18 415.301 187.07 415.418C186.961 415.535 186.801 415.594 186.59 415.594C186.379 415.594 186.219 415.535 186.109 415.418C186.004 415.301 185.951 415.154 185.951 414.979Z" fill="black"/>
<path d="M256.504 636.197C255.539 635.92 254.836 635.58 254.395 635.178C253.957 634.771 253.738 634.271 253.738 633.678C253.738 633.006 254.006 632.451 254.541 632.014C255.08 631.572 255.779 631.352 256.639 631.352C257.225 631.352 257.746 631.465 258.203 631.691C258.664 631.918 259.02 632.23 259.27 632.629C259.523 633.027 259.65 633.463 259.65 633.936H258.52C258.52 633.42 258.355 633.016 258.027 632.723C257.699 632.426 257.236 632.277 256.639 632.277C256.084 632.277 255.65 632.4 255.338 632.646C255.029 632.889 254.875 633.227 254.875 633.66C254.875 634.008 255.021 634.303 255.314 634.545C255.611 634.783 256.113 635.002 256.82 635.201C257.531 635.4 258.086 635.621 258.484 635.863C258.887 636.102 259.184 636.381 259.375 636.701C259.57 637.021 259.668 637.398 259.668 637.832C259.668 638.523 259.398 639.078 258.859 639.496C258.32 639.91 257.6 640.117 256.697 640.117C256.111 640.117 255.564 640.006 255.057 639.783C254.549 639.557 254.156 639.248 253.879 638.857C253.605 638.467 253.469 638.023 253.469 637.527H254.6C254.6 638.043 254.789 638.451 255.168 638.752C255.551 639.049 256.061 639.197 256.697 639.197C257.291 639.197 257.746 639.076 258.062 638.834C258.379 638.592 258.537 638.262 258.537 637.844C258.537 637.426 258.391 637.104 258.098 636.877C257.805 636.646 257.273 636.42 256.504 636.197ZM262.123 640H261.039V633.66H262.123V640ZM260.951 631.979C260.951 631.803 261.004 631.654 261.109 631.533C261.219 631.412 261.379 631.352 261.59 631.352C261.801 631.352 261.961 631.412 262.07 631.533C262.18 631.654 262.234 631.803 262.234 631.979C262.234 632.154 262.18 632.301 262.07 632.418C261.961 632.535 261.801 632.594 261.59 632.594C261.379 632.594 261.219 632.535 261.109 632.418C261.004 632.301 260.951 632.154 260.951 631.979Z" fill="black"/>
</svg>
